<svg xmlns="http://www.w3.org/2000/svg" width="40" height="40">
  <path d="M21.5,21.5 L33.9,21.5 L33.9,21.5 L33.5,23.8 L32.6,26.0 L31.4,28.1 L29.9,29.9 L28.1,31.4 L26.0,32.6 L23.8,33.5 L21.5,33.9 L21.5,33.9 Z M18.5,21.5 L18.5,33.9 L18.5,33.9 L16.2,33.5 L14.0,32.6 L11.9,31.4 L10.1,29.9 L8.6,28.1 L7.4,26.0 L6.5,23.8 L6.1,21.5 L6.1,21.5 Z M18.5,18.5 L6.1,18.5 L6.1,18.5 L6.5,16.2 L7.4,14.0 L8.6,11.9 L10.1,10.1 L11.9,8.6 L14.0,7.4 L16.2,6.5 L18.5,6.1 L18.5,6.1 Z M21.5,18.5 L21.5,6.1 L21.5,6.1 L23.8,6.5 L26.0,7.4 L28.1,8.6 L29.9,10.1 L31.4,11.9 L32.6,14.0 L33.5,16.2 L33.9,18.5 L33.9,18.5 Z" fill="#333333"/>
</svg>
