<svg xmlns="http://www.w3.org/2000/svg" width="1344" height="960" viewBox="0 0 1344 960" font-family="sans-serif" font-size="23.467" xml:space="preserve" style="isolation:isolate;white-space:pre"><defs><clipPath id="p63d2d703-720a-48fc-ba36-da15f4a1d0b2-c0" clipPathUnits="userSpaceOnUse"><path d="M106.803 14.667L1160.02 14.667L1160.02 869.827L106.803 869.827Z"/></clipPath></defs><rect width="1344" height="960" fill="#ffffff"/><path d="M0 0L1344 0L1344 960L0 960Z" fill="#ffffff"/><path d="M106.803 14.667L1160.02 14.667L1160.02 869.827L106.803 869.827Z" fill="#ebebeb"/><g clip-path="url(#p63d2d703-720a-48fc-ba36-da15f4a1d0b2-c0)" style="isolation:isolate"><path d="M150.95 14.667L150.95 869.827" fill="none" stroke="#ffffff" stroke-width="0.667"/><path d="M195.097 14.667L195.097 869.827" fill="none" stroke="#ffffff" stroke-width="0.667"/><path d="M239.244 14.667L239.244 869.827" fill="none" stroke="#ffffff" stroke-width="0.667"/><path d="M327.537 14.667L327.537 869.827" fill="none" stroke="#ffffff" stroke-width="0.667"/><path d="M371.684 14.667L371.684 869.827" fill="none" stroke="#ffffff" stroke-width="0.667"/><path d="M415.831 14.667L415.831 869.827" fill="none" stroke="#ffffff" stroke-width="0.667"/><path d="M504.125 14.667L504.125 869.827" fill="none" stroke="#ffffff" stroke-width="0.667"/><path d="M548.271 14.667L548.271 869.827" fill="none" stroke="#ffffff" stroke-width="0.667"/><path d="M592.418 14.667L592.418 869.827" fill="none" stroke="#ffffff" stroke-width="0.667"/><path d="M680.712 14.667L680.712 869.827" fill="none" stroke="#ffffff" stroke-width="0.667"/><path d="M724.859 14.667L724.859 869.827" fill="none" stroke="#ffffff" stroke-width="0.667"/><path d="M769.006 14.667L769.006 869.827" fill="none" stroke="#ffffff" stroke-width="0.667"/><path d="M857.299 14.667L857.299 869.827" fill="none" stroke="#ffffff" stroke-width="0.667"/><path d="M901.446 14.667L901.446 869.827" fill="none" stroke="#ffffff" stroke-width="0.667"/><path d="M945.593 14.667L945.593 869.827" fill="none" stroke="#ffffff" stroke-width="0.667"/><path d="M1033.887 14.667L1033.887 869.827" fill="none" stroke="#ffffff" stroke-width="0.667"/><path d="M1078.033 14.667L1078.033 869.827" fill="none" stroke="#ffffff" stroke-width="0.667"/><path d="M1122.18 14.667L1122.18 869.827" fill="none" stroke="#ffffff" stroke-width="0.667"/><path d="M106.803 14.667L106.803 869.827" fill="none" stroke="#ffffff" stroke-width="1.333"/><path d="M283.39 14.667L283.39 869.827" fill="none" stroke="#ffffff" stroke-width="1.333"/><path d="M459.978 14.667L459.978 869.827" fill="none" stroke="#ffffff" stroke-width="1.333"/><path d="M636.565 14.667L636.565 869.827" fill="none" stroke="#ffffff" stroke-width="1.333"/><path d="M813.152 14.667L813.152 869.827" fill="none" stroke="#ffffff" stroke-width="1.333"/><path d="M989.74 14.667L989.74 869.827" fill="none" stroke="#ffffff" stroke-width="1.333"/><path d="M106.803 730.774L1160.02 730.774" fill="none" stroke="#ffffff" stroke-width="0.667"/><path d="M106.803 530.408L1160.02 530.408" fill="none" stroke="#ffffff" stroke-width="0.667"/><path d="M106.803 330.042L1160.02 330.042" fill="none" stroke="#ffffff" stroke-width="0.667"/><path d="M106.803 129.677L1160.02 129.677" fill="none" stroke="#ffffff" stroke-width="0.667"/><path d="M106.803 830.957L1160.02 830.957" fill="none" stroke="#ffffff" stroke-width="1.333"/><path d="M106.803 630.591L1160.02 630.591" fill="none" stroke="#ffffff" stroke-width="1.333"/><path d="M106.803 430.225L1160.02 430.225" fill="none" stroke="#ffffff" stroke-width="1.333"/><path d="M106.803 229.859L1160.02 229.859" fill="none" stroke="#ffffff" stroke-width="1.333"/><path d="M106.803 29.494L1160.02 29.494" fill="none" stroke="#ffffff" stroke-width="1.333"/></g><g clip-path="url(#p63d2d703-720a-48fc-ba36-da15f4a1d0b2-c0)" style="isolation:isolate"><path d="M157.257 830.957L163.563 830.957L169.87 830.957L176.177 830.957L182.483 830.957L188.79 830.957L195.097 830.957L201.403 830.957L207.71 830.957L214.017 830.957L220.324 830.957L226.63 830.957L232.937 830.957L239.244 830.957L245.55 830.957L251.857 830.957L258.164 830.957L264.47 830.957L270.777 830.957L277.084 830.957L283.39 830.957L289.697 830.957L296.004 830.957L302.311 830.957L308.617 830.957L314.924 830.957L321.231 830.957L327.537 830.957L333.844 830.957L340.151 830.957L346.457 830.957L352.764 830.957L359.071 830.957L365.377 830.957L371.684 830.957L377.991 830.957L384.298 830.957L390.604 830.957L396.911 830.957L403.218 830.957L409.524 830.957L415.831 830.957L422.138 830.957L428.444 830.957L434.751 830.957L441.058 830.957L447.364 830.957L453.671 830.957L459.978 830.957L466.284 830.957L472.591 830.957L478.898 830.957L485.205 830.957L491.511 830.957L497.818 830.957L504.125 830.957L510.431 830.957L516.738 830.957L523.045 830.957L529.351 830.957L535.658 830.957L541.965 830.957L548.271 830.957L554.578 830.957L560.885 830.957L567.192 830.957L573.498 830.957L579.805 830.957L586.112 830.957L592.418 830.957L598.725 830.957L605.032 830.957L611.338 830.957L617.645 830.957L623.952 830.957L630.258 830.957L636.565 830.957L642.872 830.957L649.178 830.957L655.485 830.957L661.792 830.957L668.099 830.957L674.405 830.957L680.712 830.957L687.019 830.957L693.325 830.957L699.632 830.957L705.939 830.957L712.245 830.957L718.552 830.957L724.859 830.957L731.165 830.957L737.472 830.957L743.779 830.957L750.086 830.957L756.392 830.957L762.699 830.957L769.006 830.957L775.312 830.957L781.619 830.957L787.926 830.957L794.232 830.957L800.539 830.957L806.846 830.957L813.152 830.957L819.459 830.957L825.766 830.957L832.073 830.957L838.379 830.957L844.686 830.957L850.993 830.957L857.299 830.957L863.606 830.957L869.913 830.957L876.219 830.957L882.526 830.957L888.833 830.957L895.139 830.957L901.446 830.957L907.753 830.957L914.059 830.957L920.366 830.957L926.673 830.957L932.98 830.957L939.286 830.957L945.593 830.957L951.9 830.957L958.206 830.957L964.513 830.957L970.82 830.957L977.126 830.957L983.433 830.957L989.74 830.957L996.046 830.957L1002.353 830.957L1008.66 830.957L1014.967 830.957L1021.273 830.957L1027.58 830.957L1033.887 830.957L1040.193 830.957L1046.5 830.957L1052.807 830.957L1059.113 830.957L1065.42 830.957L1071.727 830.957L1078.033 830.957L1084.34 830.957L1090.647 830.957L1096.954 830.957L1103.26 830.957L1109.567 830.957L1115.874 830.957L1115.874 285.962L1109.567 221.845L1103.26 229.859L1096.954 213.83L1090.647 269.933L1084.34 326.035L1078.033 277.947L1071.727 181.772L1065.42 261.918L1059.113 318.02L1052.807 173.757L1046.5 285.962L1040.193 221.845L1033.887 293.976L1027.58 205.816L1021.273 261.918L1014.967 261.918L1008.66 213.83L1002.353 221.845L996.046 181.772L989.74 245.889L983.433 229.859L977.126 205.816L970.82 189.786L964.513 157.728L958.206 133.684L951.9 85.596L945.593 85.596L939.286 93.611L932.98 101.625L926.673 77.581L920.366 61.552L914.059 77.581L907.753 53.538L901.446 125.669L895.139 141.699L888.833 181.772L882.526 197.801L876.219 229.859L869.913 253.903L863.606 213.83L857.299 205.816L850.993 205.816L844.686 221.845L838.379 197.801L832.073 213.83L825.766 197.801L819.459 189.786L813.152 173.757L806.846 141.699L800.539 141.699L794.232 93.611L787.926 109.64L781.619 109.64L775.312 117.655L769.006 133.684L762.699 149.713L756.392 141.699L750.086 173.757L743.779 181.772L737.472 181.772L731.165 181.772L724.859 165.742L718.552 141.699L712.245 125.669L705.939 141.699L699.632 173.757L693.325 149.713L687.019 141.699L680.712 173.757L674.405 181.772L668.099 237.874L661.792 149.713L655.485 133.684L649.178 157.728L642.872 173.757L636.565 181.772L630.258 189.786L623.952 101.625L617.645 181.772L611.338 245.889L605.032 173.757L598.725 117.655L592.418 93.611L586.112 93.611L579.805 125.669L573.498 165.742L567.192 165.742L560.885 157.728L554.578 181.772L548.271 149.713L541.965 157.728L535.658 165.742L529.351 213.83L523.045 189.786L516.738 245.889L510.431 205.816L504.125 229.859L497.818 221.845L491.511 221.845L485.205 221.845L478.898 213.83L472.591 221.845L466.284 245.889L459.978 310.006L453.671 253.903L447.364 213.83L441.058 197.801L434.751 189.786L428.444 173.757L422.138 93.611L415.831 85.596L409.524 133.684L403.218 109.64L396.911 133.684L390.604 173.757L384.298 197.801L377.991 149.713L371.684 157.728L365.377 293.976L359.071 237.874L352.764 205.816L346.457 221.845L340.151 197.801L333.844 181.772L327.537 293.976L321.231 374.123L314.924 366.108L308.617 374.123L302.311 342.064L296.004 342.064L289.697 245.889L283.39 358.093L277.084 334.05L270.777 285.962L264.47 374.123L258.164 301.991L251.857 318.02L245.55 366.108L239.244 285.962L232.937 301.991L226.63 277.947L220.324 237.874L214.017 277.947L207.71 342.064L201.403 358.093L195.097 310.006L188.79 301.991L182.483 382.137L176.177 334.05L169.87 237.874L163.563 253.903L157.257 293.976Z" fill="#0067a5" fill-opacity="0.502"/><path d="M157.257 830.957L163.563 830.957L169.87 830.957L176.177 830.957L182.483 830.957L188.79 830.957L195.097 830.957L201.403 830.957L207.71 830.957L214.017 830.957L220.324 830.957L226.63 830.957L232.937 830.957L239.244 830.957L245.55 830.957L251.857 830.957L258.164 830.957L264.47 830.957L270.777 830.957L277.084 830.957L283.39 830.957L289.697 830.957L296.004 830.957L302.311 830.957L308.617 830.957L314.924 830.957L321.231 830.957L327.537 830.957L333.844 830.957L340.151 830.957L346.457 830.957L352.764 830.957L359.071 830.957L365.377 830.957L371.684 830.957L377.991 830.957L384.298 830.957L390.604 830.957L396.911 830.957L403.218 830.957L409.524 830.957L415.831 830.957L422.138 830.957L428.444 830.957L434.751 830.957L441.058 830.957L447.364 830.957L453.671 830.957L459.978 830.957L466.284 830.957L472.591 830.957L478.898 830.957L485.205 830.957L491.511 830.957L497.818 830.957L504.125 830.957L510.431 830.957L516.738 830.957L523.045 830.957L529.351 830.957L535.658 830.957L541.965 830.957L548.271 830.957L554.578 830.957L560.885 830.957L567.192 830.957L573.498 830.957L579.805 830.957L586.112 830.957L592.418 830.957L598.725 830.957L605.032 830.957L611.338 830.957L617.645 830.957L623.952 830.957L630.258 830.957L636.565 830.957L642.872 830.957L649.178 830.957L655.485 830.957L661.792 830.957L668.099 830.957L674.405 830.957L680.712 830.957L687.019 830.957L693.325 830.957L699.632 830.957L705.939 830.957L712.245 830.957L718.552 830.957L724.859 830.957L731.165 830.957L737.472 830.957L743.779 830.957L750.086 830.957L756.392 830.957L762.699 830.957L769.006 830.957L775.312 830.957L781.619 830.957L787.926 830.957L794.232 830.957L800.539 830.957L806.846 830.957L813.152 830.957L819.459 830.957L825.766 830.957L832.073 830.957L838.379 830.957L844.686 830.957L850.993 830.957L857.299 830.957L863.606 830.957L869.913 830.957L876.219 830.957L882.526 830.957L888.833 830.957L895.139 830.957L901.446 830.957L907.753 830.957L914.059 830.957L920.366 830.957L926.673 830.957L932.98 830.957L939.286 830.957L945.593 830.957L951.9 830.957L958.206 830.957L964.513 830.957L970.82 830.957L977.126 830.957L983.433 830.957L989.74 830.957L996.046 830.957L1002.353 830.957L1008.66 830.957L1014.967 830.957L1021.273 830.957L1027.58 830.957L1033.887 830.957L1040.193 830.957L1046.5 830.957L1052.807 830.957L1059.113 830.957L1065.42 830.957L1071.727 830.957L1078.033 830.957L1084.34 830.957L1090.647 830.957L1096.954 830.957L1103.26 830.957L1109.567 830.957L1115.874 830.957" fill="none" stroke="#0067a5" stroke-opacity="0" stroke-width="2.667"/><path d="M157.257 293.976L163.563 253.903L169.87 237.874L176.177 334.05L182.483 382.137L188.79 301.991L195.097 310.006L201.403 358.093L207.71 342.064L214.017 277.947L220.324 237.874L226.63 277.947L232.937 301.991L239.244 285.962L245.55 366.108L251.857 318.02L258.164 301.991L264.47 374.123L270.777 285.962L277.084 334.05L283.39 358.093L289.697 245.889L296.004 342.064L302.311 342.064L308.617 374.123L314.924 366.108L321.231 374.123L327.537 293.976L333.844 181.772L340.151 197.801L346.457 221.845L352.764 205.816L359.071 237.874L365.377 293.976L371.684 157.728L377.991 149.713L384.298 197.801L390.604 173.757L396.911 133.684L403.218 109.64L409.524 133.684L415.831 85.596L422.138 93.611L428.444 173.757L434.751 189.786L441.058 197.801L447.364 213.83L453.671 253.903L459.978 310.006L466.284 245.889L472.591 221.845L478.898 213.83L485.205 221.845L491.511 221.845L497.818 221.845L504.125 229.859L510.431 205.816L516.738 245.889L523.045 189.786L529.351 213.83L535.658 165.742L541.965 157.728L548.271 149.713L554.578 181.772L560.885 157.728L567.192 165.742L573.498 165.742L579.805 125.669L586.112 93.611L592.418 93.611L598.725 117.655L605.032 173.757L611.338 245.889L617.645 181.772L623.952 101.625L630.258 189.786L636.565 181.772L642.872 173.757L649.178 157.728L655.485 133.684L661.792 149.713L668.099 237.874L674.405 181.772L680.712 173.757L687.019 141.699L693.325 149.713L699.632 173.757L705.939 141.699L712.245 125.669L718.552 141.699L724.859 165.742L731.165 181.772L737.472 181.772L743.779 181.772L750.086 173.757L756.392 141.699L762.699 149.713L769.006 133.684L775.312 117.655L781.619 109.64L787.926 109.64L794.232 93.611L800.539 141.699L806.846 141.699L813.152 173.757L819.459 189.786L825.766 197.801L832.073 213.83L838.379 197.801L844.686 221.845L850.993 205.816L857.299 205.816L863.606 213.83L869.913 253.903L876.219 229.859L882.526 197.801L888.833 181.772L895.139 141.699L901.446 125.669L907.753 53.538L914.059 77.581L920.366 61.552L926.673 77.581L932.98 101.625L939.286 93.611L945.593 85.596L951.9 85.596L958.206 133.684L964.513 157.728L970.82 189.786L977.126 205.816L983.433 229.859L989.74 245.889L996.046 181.772L1002.353 221.845L1008.66 213.83L1014.967 261.918L1021.273 261.918L1027.58 205.816L1033.887 293.976L1040.193 221.845L1046.5 285.962L1052.807 173.757L1059.113 318.02L1065.42 261.918L1071.727 181.772L1078.033 277.947L1084.34 326.035L1090.647 269.933L1096.954 213.83L1103.26 229.859L1109.567 221.845L1115.874 285.962" fill="none" stroke="#0067a5" stroke-width="2.667"/><path d="M157.257 830.957L163.563 830.957L169.87 830.957L176.177 830.957L182.483 830.957L188.79 830.957L195.097 830.957L201.403 830.957L207.71 830.957L214.017 830.957L220.324 830.957L226.63 830.957L232.937 830.957L239.244 830.957L245.55 830.957L251.857 830.957L258.164 830.957L264.47 830.957L270.777 830.957L277.084 830.957L283.39 830.957L289.697 830.957L296.004 830.957L302.311 830.957L308.617 830.957L314.924 830.957L321.231 830.957L327.537 830.957L333.844 830.957L340.151 830.957L346.457 830.957L352.764 830.957L359.071 830.957L365.377 830.957L371.684 830.957L377.991 830.957L384.298 830.957L390.604 830.957L396.911 830.957L403.218 830.957L409.524 830.957L415.831 830.957L422.138 830.957L428.444 830.957L434.751 830.957L441.058 830.957L447.364 830.957L453.671 830.957L459.978 830.957L466.284 830.957L472.591 830.957L478.898 830.957L485.205 830.957L491.511 830.957L497.818 830.957L504.125 830.957L510.431 830.957L516.738 830.957L523.045 830.957L529.351 830.957L535.658 830.957L541.965 830.957L548.271 830.957L554.578 830.957L560.885 830.957L567.192 830.957L573.498 830.957L579.805 830.957L586.112 830.957L592.418 830.957L598.725 830.957L605.032 830.957L611.338 830.957L617.645 830.957L623.952 830.957L630.258 830.957L636.565 830.957L642.872 830.957L649.178 830.957L655.485 830.957L661.792 830.957L668.099 830.957L674.405 830.957L680.712 830.957L687.019 830.957L693.325 830.957L699.632 830.957L705.939 830.957L712.245 830.957L718.552 830.957L724.859 830.957L731.165 830.957L737.472 830.957L743.779 830.957L750.086 830.957L756.392 830.957L762.699 830.957L769.006 830.957L775.312 830.957L781.619 830.957L787.926 830.957L794.232 830.957L800.539 830.957L806.846 830.957L813.152 830.957L819.459 830.957L825.766 830.957L832.073 830.957L838.379 830.957L844.686 830.957L850.993 830.957L857.299 830.957L863.606 830.957L869.913 830.957L876.219 830.957L882.526 830.957L888.833 830.957L895.139 830.957L901.446 830.957L907.753 830.957L914.059 830.957L920.366 830.957L926.673 830.957L932.98 830.957L939.286 830.957L945.593 830.957L951.9 830.957L958.206 830.957L964.513 830.957L970.82 830.957L977.126 830.957L983.433 830.957L989.74 830.957L996.046 830.957L1002.353 830.957L1008.66 830.957L1014.967 830.957L1021.273 830.957L1027.58 830.957L1033.887 830.957L1040.193 830.957L1046.5 830.957L1052.807 830.957L1059.113 830.957L1065.42 830.957L1071.727 830.957L1078.033 830.957L1084.34 830.957L1090.647 830.957L1096.954 830.957L1103.26 830.957L1109.567 830.957L1115.874 830.957L1115.874 738.788L1109.567 766.84L1103.26 716.347L1096.954 725.163L1090.647 775.656L1084.34 697.914L1078.033 748.406L1071.727 748.406L1065.42 757.222L1059.113 729.972L1052.807 766.84L1046.5 748.406L1040.193 748.406L1033.887 720.355L1027.58 775.656L1021.273 738.788L1014.967 743.597L1008.66 780.464L1002.353 706.73L996.046 711.539L989.74 753.215L983.433 743.597L977.126 748.406L970.82 743.597L964.513 706.73L958.206 771.648L951.9 794.089L945.593 808.516L939.286 790.082L932.98 775.656L926.673 780.464L920.366 780.464L914.059 812.523L907.753 753.215L901.446 785.273L895.139 766.84L888.833 803.707L882.526 753.215L876.219 729.972L869.913 716.347L863.606 706.73L857.299 748.406L850.993 743.597L844.686 771.648L838.379 780.464L832.073 748.406L825.766 738.788L819.459 753.215L813.152 738.788L806.846 738.788L800.539 738.788L794.232 762.031L787.926 766.84L781.619 748.406L775.312 798.898L769.006 794.089L762.699 771.648L756.392 775.656L750.086 771.648L743.779 720.355L737.472 775.656L731.165 757.222L724.859 771.648L718.552 771.648L712.245 771.648L705.939 734.781L699.632 762.031L693.325 766.84L687.019 762.031L680.712 738.788L674.405 753.215L668.099 775.656L661.792 738.788L655.485 790.082L649.178 780.464L642.872 748.406L636.565 775.656L630.258 716.347L623.952 711.539L617.645 711.539L611.338 716.347L605.032 762.031L598.725 771.648L592.418 785.273L586.112 780.464L579.805 790.082L573.498 743.597L567.192 794.089L560.885 743.597L554.578 757.222L548.271 757.222L541.965 798.097L535.658 766.84L529.351 711.539L523.045 738.788L516.738 748.406L510.431 766.84L504.125 766.84L497.818 780.464L491.511 794.089L485.205 817.332L478.898 780.464L472.591 748.406L466.284 738.788L459.978 757.222L453.671 665.054L447.364 711.539L441.058 738.788L434.751 720.355L428.444 766.84L422.138 757.222L415.831 743.597L409.524 738.788L403.218 720.355L396.911 775.656L390.604 753.215L384.298 716.347L377.991 762.031L371.684 757.222L365.377 701.921L359.071 753.215L352.764 762.031L346.457 771.648L340.151 785.273L333.844 711.539L327.537 734.781L321.231 766.84L314.924 711.539L308.617 697.914L302.311 734.781L296.004 753.215L289.697 697.914L283.39 753.215L277.084 753.215L270.777 738.788L264.47 683.487L258.164 734.781L251.857 738.788L245.55 725.163L239.244 743.597L232.937 757.222L226.63 753.215L220.324 775.656L214.017 762.031L207.71 669.863L201.403 720.355L195.097 762.031L188.79 711.539L182.483 716.347L176.177 738.788L169.87 729.972L163.563 766.84L157.257 771.648Z" fill="#f38400" fill-opacity="0.502"/><path d="M157.257 830.957L163.563 830.957L169.87 830.957L176.177 830.957L182.483 830.957L188.79 830.957L195.097 830.957L201.403 830.957L207.71 830.957L214.017 830.957L220.324 830.957L226.63 830.957L232.937 830.957L239.244 830.957L245.55 830.957L251.857 830.957L258.164 830.957L264.47 830.957L270.777 830.957L277.084 830.957L283.39 830.957L289.697 830.957L296.004 830.957L302.311 830.957L308.617 830.957L314.924 830.957L321.231 830.957L327.537 830.957L333.844 830.957L340.151 830.957L346.457 830.957L352.764 830.957L359.071 830.957L365.377 830.957L371.684 830.957L377.991 830.957L384.298 830.957L390.604 830.957L396.911 830.957L403.218 830.957L409.524 830.957L415.831 830.957L422.138 830.957L428.444 830.957L434.751 830.957L441.058 830.957L447.364 830.957L453.671 830.957L459.978 830.957L466.284 830.957L472.591 830.957L478.898 830.957L485.205 830.957L491.511 830.957L497.818 830.957L504.125 830.957L510.431 830.957L516.738 830.957L523.045 830.957L529.351 830.957L535.658 830.957L541.965 830.957L548.271 830.957L554.578 830.957L560.885 830.957L567.192 830.957L573.498 830.957L579.805 830.957L586.112 830.957L592.418 830.957L598.725 830.957L605.032 830.957L611.338 830.957L617.645 830.957L623.952 830.957L630.258 830.957L636.565 830.957L642.872 830.957L649.178 830.957L655.485 830.957L661.792 830.957L668.099 830.957L674.405 830.957L680.712 830.957L687.019 830.957L693.325 830.957L699.632 830.957L705.939 830.957L712.245 830.957L718.552 830.957L724.859 830.957L731.165 830.957L737.472 830.957L743.779 830.957L750.086 830.957L756.392 830.957L762.699 830.957L769.006 830.957L775.312 830.957L781.619 830.957L787.926 830.957L794.232 830.957L800.539 830.957L806.846 830.957L813.152 830.957L819.459 830.957L825.766 830.957L832.073 830.957L838.379 830.957L844.686 830.957L850.993 830.957L857.299 830.957L863.606 830.957L869.913 830.957L876.219 830.957L882.526 830.957L888.833 830.957L895.139 830.957L901.446 830.957L907.753 830.957L914.059 830.957L920.366 830.957L926.673 830.957L932.98 830.957L939.286 830.957L945.593 830.957L951.9 830.957L958.206 830.957L964.513 830.957L970.82 830.957L977.126 830.957L983.433 830.957L989.74 830.957L996.046 830.957L1002.353 830.957L1008.66 830.957L1014.967 830.957L1021.273 830.957L1027.58 830.957L1033.887 830.957L1040.193 830.957L1046.5 830.957L1052.807 830.957L1059.113 830.957L1065.42 830.957L1071.727 830.957L1078.033 830.957L1084.34 830.957L1090.647 830.957L1096.954 830.957L1103.26 830.957L1109.567 830.957L1115.874 830.957" fill="none" stroke="#f38400" stroke-opacity="0" stroke-width="2.667"/><path d="M157.257 771.648L163.563 766.84L169.87 729.972L176.177 738.788L182.483 716.347L188.79 711.539L195.097 762.031L201.403 720.355L207.71 669.863L214.017 762.031L220.324 775.656L226.63 753.215L232.937 757.222L239.244 743.597L245.55 725.163L251.857 738.788L258.164 734.781L264.47 683.487L270.777 738.788L277.084 753.215L283.39 753.215L289.697 697.914L296.004 753.215L302.311 734.781L308.617 697.914L314.924 711.539L321.231 766.84L327.537 734.781L333.844 711.539L340.151 785.273L346.457 771.648L352.764 762.031L359.071 753.215L365.377 701.921L371.684 757.222L377.991 762.031L384.298 716.347L390.604 753.215L396.911 775.656L403.218 720.355L409.524 738.788L415.831 743.597L422.138 757.222L428.444 766.84L434.751 720.355L441.058 738.788L447.364 711.539L453.671 665.054L459.978 757.222L466.284 738.788L472.591 748.406L478.898 780.464L485.205 817.332L491.511 794.089L497.818 780.464L504.125 766.84L510.431 766.84L516.738 748.406L523.045 738.788L529.351 711.539L535.658 766.84L541.965 798.097L548.271 757.222L554.578 757.222L560.885 743.597L567.192 794.089L573.498 743.597L579.805 790.082L586.112 780.464L592.418 785.273L598.725 771.648L605.032 762.031L611.338 716.347L617.645 711.539L623.952 711.539L630.258 716.347L636.565 775.656L642.872 748.406L649.178 780.464L655.485 790.082L661.792 738.788L668.099 775.656L674.405 753.215L680.712 738.788L687.019 762.031L693.325 766.84L699.632 762.031L705.939 734.781L712.245 771.648L718.552 771.648L724.859 771.648L731.165 757.222L737.472 775.656L743.779 720.355L750.086 771.648L756.392 775.656L762.699 771.648L769.006 794.089L775.312 798.898L781.619 748.406L787.926 766.84L794.232 762.031L800.539 738.788L806.846 738.788L813.152 738.788L819.459 753.215L825.766 738.788L832.073 748.406L838.379 780.464L844.686 771.648L850.993 743.597L857.299 748.406L863.606 706.73L869.913 716.347L876.219 729.972L882.526 753.215L888.833 803.707L895.139 766.84L901.446 785.273L907.753 753.215L914.059 812.523L920.366 780.464L926.673 780.464L932.98 775.656L939.286 790.082L945.593 808.516L951.9 794.089L958.206 771.648L964.513 706.73L970.82 743.597L977.126 748.406L983.433 743.597L989.74 753.215L996.046 711.539L1002.353 706.73L1008.66 780.464L1014.967 743.597L1021.273 738.788L1027.58 775.656L1033.887 720.355L1040.193 748.406L1046.5 748.406L1052.807 766.84L1059.113 729.972L1065.42 757.222L1071.727 748.406L1078.033 748.406L1084.34 697.914L1090.647 775.656L1096.954 725.163L1103.26 716.347L1109.567 766.84L1115.874 738.788" fill="none" stroke="#f38400" stroke-width="2.667"/></g><path d="M150.95 869.827L150.95 873.494" fill="none" stroke="#333333" stroke-width="2.667"/><path d="M195.097 869.827L195.097 873.494" fill="none" stroke="#333333" stroke-width="2.667"/><path d="M239.244 869.827L239.244 873.494" fill="none" stroke="#333333" stroke-width="2.667"/><path d="M327.537 869.827L327.537 873.494" fill="none" stroke="#333333" stroke-width="2.667"/><path d="M371.684 869.827L371.684 873.494" fill="none" stroke="#333333" stroke-width="2.667"/><path d="M415.831 869.827L415.831 873.494" fill="none" stroke="#333333" stroke-width="2.667"/><path d="M504.125 869.827L504.125 873.494" fill="none" stroke="#333333" stroke-width="2.667"/><path d="M548.271 869.827L548.271 873.494" fill="none" stroke="#333333" stroke-width="2.667"/><path d="M592.418 869.827L592.418 873.494" fill="none" stroke="#333333" stroke-width="2.667"/><path d="M680.712 869.827L680.712 873.494" fill="none" stroke="#333333" stroke-width="2.667"/><path d="M724.859 869.827L724.859 873.494" fill="none" stroke="#333333" stroke-width="2.667"/><path d="M769.006 869.827L769.006 873.494" fill="none" stroke="#333333" stroke-width="2.667"/><path d="M857.299 869.827L857.299 873.494" fill="none" stroke="#333333" stroke-width="2.667"/><path d="M901.446 869.827L901.446 873.494" fill="none" stroke="#333333" stroke-width="2.667"/><path d="M945.593 869.827L945.593 873.494" fill="none" stroke="#333333" stroke-width="2.667"/><path d="M1033.887 869.827L1033.887 873.494" fill="none" stroke="#333333" stroke-width="2.667"/><path d="M1078.033 869.827L1078.033 873.494" fill="none" stroke="#333333" stroke-width="2.667"/><path d="M1122.18 869.827L1122.18 873.494" fill="none" stroke="#333333" stroke-width="2.667"/><path d="M106.803 869.827L106.803 877.161" fill="none" stroke="#333333" stroke-width="2.667"/><path d="M283.39 869.827L283.39 877.161" fill="none" stroke="#333333" stroke-width="2.667"/><text fill="#4d4d4d" transform="translate(38.615 876.275)"><tspan x="0" y="22" textLength="136.377" lengthAdjust="spacingAndGlyphs">1973-04-23</tspan></text><path d="M459.978 869.827L459.978 877.161" fill="none" stroke="#333333" stroke-width="2.667"/><text fill="#4d4d4d" transform="translate(215.202 876.275)"><tspan x="0" y="22" textLength="136.377" lengthAdjust="spacingAndGlyphs">1973-05-21</tspan></text><path d="M636.565 869.827L636.565 877.161" fill="none" stroke="#333333" stroke-width="2.667"/><text fill="#4d4d4d" transform="translate(391.789 876.275)"><tspan x="0" y="22" textLength="136.377" lengthAdjust="spacingAndGlyphs">1973-06-18</tspan></text><path d="M813.152 869.827L813.152 877.161" fill="none" stroke="#333333" stroke-width="2.667"/><text fill="#4d4d4d" transform="translate(568.377 876.275)"><tspan x="0" y="22" textLength="136.377" lengthAdjust="spacingAndGlyphs">1973-07-16</tspan></text><path d="M989.74 869.827L989.74 877.161" fill="none" stroke="#333333" stroke-width="2.667"/><text fill="#4d4d4d" transform="translate(744.964 876.275)"><tspan x="0" y="22" textLength="136.377" lengthAdjust="spacingAndGlyphs">1973-08-13</tspan></text><path d="M106.803 730.774L103.136 730.774" fill="none" stroke="#333333" stroke-width="2.667"/><path d="M106.803 530.408L103.136 530.408" fill="none" stroke="#333333" stroke-width="2.667"/><path d="M106.803 330.042L103.136 330.042" fill="none" stroke="#333333" stroke-width="2.667"/><path d="M106.803 129.677L103.136 129.677" fill="none" stroke="#333333" stroke-width="2.667"/><path d="M106.803 830.957L99.47 830.957" fill="none" stroke="#333333" stroke-width="2.667"/><text fill="#4d4d4d" transform="translate(921.551 876.275)"><tspan x="0" y="22" textLength="136.377" lengthAdjust="spacingAndGlyphs">1973-09-10</tspan></text><path d="M106.803 630.591L99.47 630.591" fill="none" stroke="#333333" stroke-width="2.667"/><text fill="#4d4d4d" transform="translate(78.673 816.58)"><tspan x="0" y="22" textLength="14.93" lengthAdjust="spacingAndGlyphs">0</tspan></text><path d="M106.803 430.225L99.47 430.225" fill="none" stroke="#333333" stroke-width="2.667"/><text fill="#4d4d4d" transform="translate(63.743 616.215)"><tspan x="0" y="22" textLength="29.86" lengthAdjust="spacingAndGlyphs">25</tspan></text><path d="M106.803 229.859L99.47 229.859" fill="none" stroke="#333333" stroke-width="2.667"/><text fill="#4d4d4d" transform="translate(63.743 415.849)"><tspan x="0" y="22" textLength="29.86" lengthAdjust="spacingAndGlyphs">50</tspan></text><path d="M106.803 29.494L99.47 29.494" fill="none" stroke="#333333" stroke-width="2.667"/><text fill="#4d4d4d" transform="translate(63.743 215.483)"><tspan x="0" y="22" textLength="29.86" lengthAdjust="spacingAndGlyphs">75</tspan></text><text fill="#4d4d4d" transform="translate(48.813 15.118)"><tspan x="0" y="22" textLength="44.791" lengthAdjust="spacingAndGlyphs">100</tspan></text><text font-size="29.333" fill="#000000" transform="translate(106.803 911.187)"><tspan x="491.553" y="27" textLength="70.111" lengthAdjust="spacingAndGlyphs">Date</tspan></text><text font-size="29.333" fill="#000000" transform="matrix(0 -1 1 0 14.14 482.523)"><tspan x="0" y="27" textLength="80.552" lengthAdjust="spacingAndGlyphs">Value</tspan></text><path d="M1202.687 76.533L1244.927 76.533L1244.927 118.773L1202.687 118.773Z" fill="#ebebeb"/><path d="M1202.687 76.533L1244.927 76.533L1244.927 118.773L1202.687 118.773Z" fill="#0067a5" fill-opacity="0.502"/><path d="M1204.02 77.867L1243.594 77.867L1243.594 117.44L1204.02 117.44Z" fill="none" stroke="#0067a5" stroke-width="2.667"/><text font-size="29.333" fill="#000000" transform="translate(1202.687 30.667)"><tspan x="0" y="27" textLength="90.206" lengthAdjust="spacingAndGlyphs">Series</tspan></text><path d="M1202.687 129.44L1244.927 129.44L1244.927 171.68L1202.687 171.68Z" fill="#ebebeb"/><path d="M1202.687 129.44L1244.927 129.44L1244.927 171.68L1202.687 171.68Z" fill="#f38400" fill-opacity="0.502"/><path d="M1204.02 130.773L1243.594 130.773L1243.594 170.347L1204.02 170.347Z" fill="none" stroke="#f38400" stroke-width="2.667"/><text fill="#4d4d4d" transform="translate(1250.794 83.277)"><tspan x="0" y="22" textLength="62.54" lengthAdjust="spacingAndGlyphs">Temp</tspan></text><text fill="#4d4d4d" transform="translate(1250.794 136.184)"><tspan x="0" y="22" textLength="58.976" lengthAdjust="spacingAndGlyphs">Wind</tspan></text></svg>