<svg xmlns="http://www.w3.org/2000/svg" xmlns:xlink="http://www.w3.org/1999/xlink" version="1.1" class="marks" width="761" height="400" viewBox="0 0 761 400"><rect width="761" height="400" fill="white"/><g fill="none" stroke-miterlimit="10" transform="translate(50,5)"><g class="mark-group role-frame root" role="graphics-object" aria-roledescription="group mark container"><g transform="translate(0,0)"><path class="background" aria-hidden="true" d="M0,0h620v307h-620Z" fill="#EBEBEB"/><g><g class="mark-group role-axis" aria-hidden="true"><g transform="translate(0.5,307.5)"><path class="background" aria-hidden="true" d="M0,0h0v0h0Z" pointer-events="none"/><g><g class="mark-rule role-axis-grid" pointer-events="none"><line transform="translate(116,-307)" x2="0" y2="307" stroke="#FFFFFF" stroke-width="1" opacity="1"/><line transform="translate(310,-307)" x2="0" y2="307" stroke="#FFFFFF" stroke-width="1" opacity="1"/><line transform="translate(503,-307)" x2="0" y2="307" stroke="#FFFFFF" stroke-width="1" opacity="1"/></g></g><path class="foreground" aria-hidden="true" d="" pointer-events="none" display="none"/></g></g><g class="mark-group role-axis" aria-hidden="true"><g transform="translate(0.5,0.5)"><path class="background" aria-hidden="true" d="M0,0h0v0h0Z" pointer-events="none"/><g><g class="mark-rule role-axis-grid" pointer-events="none"><line transform="translate(0,289)" x2="620" y2="0" stroke="#FFFFFF" stroke-width="1" opacity="1"/><line transform="translate(0,205)" x2="620" y2="0" stroke="#FFFFFF" stroke-width="1" opacity="1"/><line transform="translate(0,121)" x2="620" y2="0" stroke="#FFFFFF" stroke-width="1" opacity="1"/><line transform="translate(0,37)" x2="620" y2="0" stroke="#FFFFFF" stroke-width="1" opacity="1"/></g></g><path class="foreground" aria-hidden="true" d="" pointer-events="none" display="none"/></g></g><g class="mark-group role-axis" role="graphics-symbol" aria-roledescription="axis" aria-label="X-axis titled 'species' for a discrete scale with 3 values: Adelie, Chinstrap, Gentoo"><g transform="translate(0.5,307.5)"><path class="background" aria-hidden="true" d="M0,0h0v0h0Z" pointer-events="none"/><g><g class="mark-rule role-axis-tick" pointer-events="none"><line transform="translate(116,0)" x2="0" y2="4" stroke="#333333" stroke-width="1" opacity="1"/><line transform="translate(310,0)" x2="0" y2="4" stroke="#333333" stroke-width="1" opacity="1"/><line transform="translate(503,0)" x2="0" y2="4" stroke="#333333" stroke-width="1" opacity="1"/></g><g class="mark-text role-axis-label" pointer-events="none"><text text-anchor="end" transform="translate(115.75000000000001,6) rotate(270) translate(0,4)" font-family="sans-serif" font-size="12px" fill="#4D4D4D" opacity="1">Adelie</text><text text-anchor="end" transform="translate(309.50000000000006,6) rotate(270) translate(0,4)" font-family="sans-serif" font-size="12px" fill="#4D4D4D" opacity="1">Chinstrap</text><text text-anchor="end" transform="translate(503.25000000000006,6) rotate(270) translate(0,4)" font-family="sans-serif" font-size="12px" fill="#4D4D4D" opacity="1">Gentoo</text></g><g class="mark-text role-axis-title" pointer-events="none"><text text-anchor="middle" transform="translate(310,79.357421875)" font-family="sans-serif" font-size="15px" font-weight="normal" fill="#000000" opacity="1">species</text></g></g><path class="foreground" aria-hidden="true" d="" pointer-events="none" display="none"/></g></g><g class="mark-group role-axis" role="graphics-symbol" aria-roledescription="axis" aria-label="Y-axis titled 'bill_len' for a linear scale with values from 28 to 64"><g transform="translate(0.5,0.5)"><path class="background" aria-hidden="true" d="M0,0h0v0h0Z" pointer-events="none"/><g><g class="mark-rule role-axis-tick" pointer-events="none"><line transform="translate(0,289)" x2="-4" y2="0" stroke="#333333" stroke-width="1" opacity="1"/><line transform="translate(0,205)" x2="-4" y2="0" stroke="#333333" stroke-width="1" opacity="1"/><line transform="translate(0,121)" x2="-4" y2="0" stroke="#333333" stroke-width="1" opacity="1"/><line transform="translate(0,37)" x2="-4" y2="0" stroke="#333333" stroke-width="1" opacity="1"/></g><g class="mark-text role-axis-label" pointer-events="none"><text text-anchor="end" transform="translate(-6,292.7778592756773)" font-family="sans-serif" font-size="12px" fill="#4D4D4D" opacity="1">30</text><text text-anchor="end" transform="translate(-6,208.88729309324953)" font-family="sans-serif" font-size="12px" fill="#4D4D4D" opacity="1">40</text><text text-anchor="end" transform="translate(-6,124.9967269108217)" font-family="sans-serif" font-size="12px" fill="#4D4D4D" opacity="1">50</text><text text-anchor="end" transform="translate(-6,41.106160728393924)" font-family="sans-serif" font-size="12px" fill="#4D4D4D" opacity="1">60</text></g><g class="mark-text role-axis-title" pointer-events="none"><text text-anchor="middle" transform="translate(-29.34765625,153.5) rotate(-90) translate(0,-3)" font-family="sans-serif" font-size="15px" font-weight="normal" fill="#000000" opacity="1">bill_len</text></g></g><path class="foreground" aria-hidden="true" d="" pointer-events="none" display="none"/></g></g><g class="mark-group role-scope layer_0_pathgroup" role="graphics-object" aria-roledescription="group mark container"><g transform="translate(0,0)"><path class="background" aria-hidden="true" d="M0,0h620v307h-620Z"/><g><g class="mark-line role-mark layer_0_marks" role="graphics-object" aria-roledescription="line mark container"><path aria-label="species: Adelie; bill_len: 48.5707117343" role="graphics-symbol" aria-roledescription="line mark" d="M116.288,132.987L116.298,133.565L116.31,134.143L116.326,134.721L116.344,135.298L116.367,135.876L116.394,136.454L116.426,137.032L116.464,137.61L116.509,138.188L116.561,138.765L116.622,139.343L116.692,139.921L116.772,140.499L116.862,141.077L116.964,141.655L117.078,142.232L117.205,142.81L117.344,143.388L117.497,143.966L117.662,144.544L117.84,145.121L118.03,145.699L118.231,146.277L118.442,146.855L118.661,147.433L118.888,148.011L119.119,148.588L119.353,149.166L119.587,149.744L119.82,150.322L120.048,150.9L120.269,151.478L120.481,152.055L120.681,152.633L120.868,153.211L121.04,153.789L121.196,154.367L121.335,154.945L121.457,155.522L121.561,156.1L121.65,156.678L121.723,157.256L121.782,157.834L121.831,158.412L121.871,158.989L121.906,159.567L121.938,160.145L121.973,160.723L122.012,161.301L122.061,161.879L122.122,162.456L122.2,163.034L122.299,163.612L122.421,164.19L122.57,164.768L122.749,165.345L122.96,165.923L123.205,166.501L123.487,167.079L123.806,167.657L124.165,168.235L124.564,168.812L125.003,169.39L125.483,169.968L126.004,170.546L126.566,171.124L127.169,171.702L127.811,172.279L128.494,172.857L129.214,173.435L129.973,174.013L130.769,174.591L131.601,175.169L132.468,175.746L133.37,176.324L134.305,176.902L135.273,177.48L136.274,178.058L137.306,178.636L138.371,179.213L139.466,179.791L140.593,180.369L141.751,180.947L142.939,181.525L144.159,182.102L145.409,182.68L146.689,183.258L147.999,183.836L149.337,184.414L150.702,184.992L152.093,185.569L153.506,186.147L154.938,186.725L156.386,187.303L157.845,187.881L159.31,188.459L160.775,189.036L162.234,189.614L163.68,190.192L165.107,190.77L166.506,191.348L167.871,191.926L169.194,192.503L170.469,193.081L171.69,193.659L172.852,194.237L173.949,194.815L174.979,195.393L175.938,195.97L176.825,196.548L177.641,197.126L178.386,197.704L179.062,198.282L179.672,198.859L180.22,199.437L180.711,200.015L181.148,200.593L181.539,201.171L181.888,201.749L182.201,202.326L182.484,202.904L182.74,203.482L182.975,204.06L183.192,204.638L183.395,205.216L183.587,205.793L183.77,206.371L183.945,206.949L184.114,207.527L184.276,208.105L184.434,208.683L184.586,209.26L184.732,209.838L184.873,210.416L185.008,210.994L185.136,211.572L185.258,212.15L185.372,212.727L185.48,213.305L185.579,213.883L185.671,214.461L185.753,215.039L185.826,215.617L185.889,216.194L185.939,216.772L185.975,217.35L185.996,217.928L186,218.506L185.984,219.083L185.946,219.661L185.884,220.239L185.795,220.817L185.677,221.395L185.528,221.973L185.348,222.55L185.134,223.128L184.886,223.706L184.604,224.284L184.288,224.862L183.939,225.44L183.559,226.017L183.148,226.595L182.709,227.173L182.244,227.751L181.754,228.329L181.241,228.907L180.707,229.484L180.153,230.062L179.58,230.64L178.987,231.218L178.375,231.796L177.742,232.374L177.087,232.951L176.408,233.529L175.703,234.107L174.969,234.685L174.204,235.263L173.404,235.84L172.567,236.418L171.691,236.996L170.774,237.574L169.813,238.152L168.81,238.73L167.762,239.307L166.671,239.885L165.539,240.463L164.366,241.041L163.156,241.619L161.912,242.197L160.638,242.774L159.338,243.352L158.017,243.93L156.68,244.508L155.331,245.086L153.976,245.664L152.619,246.241L151.266,246.819L149.92,247.397L148.586,247.975L147.268,248.553L145.969,249.131L144.692,249.708L143.44,250.286L142.215,250.864L141.019,251.442L139.855,252.02L138.722,252.597L137.623,253.175L136.557,253.753L135.527,254.331L134.532,254.909L133.573,255.487L132.649,256.064L131.762,256.642L130.911,257.22L130.096,257.798L129.316,258.376L128.573,258.954L127.864,259.531L127.19,260.109L126.551,260.687L125.944,261.265L125.371,261.843L124.829,262.421L124.318,262.998L123.837,263.576L123.384,264.154L122.958,264.732L122.557,265.31L122.181,265.888L121.827,266.465L121.495,267.043L121.182,267.621L120.887,268.199L120.609,268.777L120.345,269.355L120.096,269.932L119.859,270.51L119.634,271.088L119.419,271.666L119.214,272.244L119.017,272.821L118.829,273.399L118.648,273.977L118.474,274.555L118.308,275.133L118.149,275.711L117.996,276.288L117.85,276.866L117.711,277.444L117.58,278.022L117.455,278.6L117.337,279.178L117.227,279.755L117.124,280.333L117.028,280.911L116.939,281.489L116.857,282.067L116.783,282.645L116.715,283.222L116.654,283.8L116.599,284.378L116.549,284.956L116.506,285.534L116.467,286.112L116.433,286.689L116.404,287.267L116.379,287.845L116.357,288.423L116.338,289.001L116.322,289.578L116.309,290.156L116.298,290.734L116.289,291.312L116.281,291.89L116.275,292.468L116.27,293.045L116.23,293.045L116.225,292.468L116.219,291.89L116.211,291.312L116.202,290.734L116.191,290.156L116.178,289.578L116.162,289.001L116.143,288.423L116.121,287.845L116.096,287.267L116.067,286.689L116.033,286.112L115.994,285.534L115.951,284.956L115.901,284.378L115.846,283.8L115.785,283.222L115.717,282.645L115.643,282.067L115.561,281.489L115.472,280.911L115.376,280.333L115.273,279.755L115.163,279.178L115.045,278.6L114.92,278.022L114.789,277.444L114.65,276.866L114.504,276.288L114.351,275.711L114.192,275.133L114.026,274.555L113.852,273.977L113.671,273.399L113.483,272.821L113.286,272.244L113.081,271.666L112.866,271.088L112.641,270.51L112.404,269.932L112.155,269.355L111.891,268.777L111.613,268.199L111.318,267.621L111.005,267.043L110.673,266.465L110.319,265.888L109.943,265.31L109.542,264.732L109.116,264.154L108.663,263.576L108.182,262.998L107.671,262.421L107.129,261.843L106.556,261.265L105.949,260.687L105.31,260.109L104.636,259.531L103.927,258.954L103.184,258.376L102.404,257.798L101.589,257.22L100.738,256.642L99.851,256.064L98.927,255.487L97.968,254.909L96.973,254.331L95.943,253.753L94.877,253.175L93.778,252.597L92.645,252.02L91.481,251.442L90.285,250.864L89.06,250.286L87.808,249.708L86.531,249.131L85.232,248.553L83.914,247.975L82.58,247.397L81.234,246.819L79.881,246.241L78.524,245.664L77.169,245.086L75.82,244.508L74.483,243.93L73.162,243.352L71.862,242.774L70.588,242.197L69.344,241.619L68.134,241.041L66.961,240.463L65.829,239.885L64.738,239.307L63.69,238.73L62.687,238.152L61.726,237.574L60.809,236.996L59.933,236.418L59.096,235.84L58.296,235.263L57.531,234.685L56.797,234.107L56.092,233.529L55.413,232.951L54.758,232.374L54.125,231.796L53.513,231.218L52.92,230.64L52.347,230.062L51.793,229.484L51.259,228.907L50.746,228.329L50.256,227.751L49.791,227.173L49.352,226.595L48.941,226.017L48.561,225.44L48.212,224.862L47.896,224.284L47.614,223.706L47.366,223.128L47.152,222.55L46.972,221.973L46.823,221.395L46.705,220.817L46.616,220.239L46.554,219.661L46.516,219.083L46.5,218.506L46.504,217.928L46.525,217.35L46.561,216.772L46.611,216.194L46.674,215.617L46.747,215.039L46.829,214.461L46.921,213.883L47.02,213.305L47.128,212.727L47.242,212.15L47.364,211.572L47.492,210.994L47.627,210.416L47.768,209.838L47.914,209.26L48.066,208.683L48.224,208.105L48.386,207.527L48.555,206.949L48.73,206.371L48.913,205.793L49.105,205.216L49.308,204.638L49.525,204.06L49.76,203.482L50.016,202.904L50.299,202.326L50.612,201.749L50.961,201.171L51.352,200.593L51.789,200.015L52.28,199.437L52.828,198.859L53.438,198.282L54.114,197.704L54.859,197.126L55.675,196.548L56.562,195.97L57.521,195.393L58.551,194.815L59.648,194.237L60.81,193.659L62.031,193.081L63.306,192.503L64.629,191.926L65.994,191.348L67.393,190.77L68.82,190.192L70.266,189.614L71.725,189.036L73.19,188.459L74.655,187.881L76.114,187.303L77.562,186.725L78.994,186.147L80.407,185.569L81.798,184.992L83.163,184.414L84.501,183.836L85.811,183.258L87.091,182.68L88.341,182.102L89.561,181.525L90.749,180.947L91.907,180.369L93.034,179.791L94.129,179.213L95.194,178.636L96.226,178.058L97.227,177.48L98.195,176.902L99.13,176.324L100.032,175.746L100.899,175.169L101.731,174.591L102.527,174.013L103.286,173.435L104.006,172.857L104.689,172.279L105.331,171.702L105.934,171.124L106.496,170.546L107.017,169.968L107.497,169.39L107.936,168.812L108.335,168.235L108.694,167.657L109.013,167.079L109.295,166.501L109.54,165.923L109.751,165.345L109.93,164.768L110.079,164.19L110.201,163.612L110.3,163.034L110.378,162.456L110.439,161.879L110.488,161.301L110.527,160.723L110.562,160.145L110.594,159.567L110.629,158.989L110.669,158.412L110.718,157.834L110.777,157.256L110.85,156.678L110.939,156.1L111.043,155.522L111.165,154.945L111.304,154.367L111.46,153.789L111.632,153.211L111.819,152.633L112.019,152.055L112.231,151.478L112.452,150.9L112.68,150.322L112.913,149.744L113.147,149.166L113.381,148.588L113.612,148.011L113.839,147.433L114.058,146.855L114.269,146.277L114.47,145.699L114.66,145.121L114.838,144.544L115.003,143.966L115.156,143.388L115.295,142.81L115.422,142.232L115.536,141.655L115.638,141.077L115.728,140.499L115.808,139.921L115.878,139.343L115.939,138.765L115.991,138.188L116.036,137.61L116.074,137.032L116.106,136.454L116.133,135.876L116.156,135.298L116.174,134.721L116.19,134.143L116.202,133.565L116.212,132.987" fill="#0067A5" fill-opacity="0.8" stroke="#0067A5" stroke-width="1.3333333333333333" stroke-dasharray=""/></g></g><path class="foreground" aria-hidden="true" d="" display="none"/></g><g transform="translate(0,0)"><path class="background" aria-hidden="true" d="M0,0h620v307h-620Z"/><g><g class="mark-line role-mark layer_0_marks" role="graphics-object" aria-roledescription="line mark container"><path aria-label="species: Chinstrap; bill_len: 61.7954371262" role="graphics-symbol" aria-roledescription="line mark" d="M310.031,22.044L310.036,22.622L310.042,23.2L310.049,23.778L310.057,24.355L310.066,24.933L310.076,25.511L310.088,26.089L310.1,26.667L310.115,27.245L310.131,27.822L310.149,28.4L310.169,28.978L310.191,29.556L310.216,30.134L310.243,30.712L310.272,31.289L310.305,31.867L310.34,32.445L310.378,33.023L310.419,33.601L310.463,34.179L310.511,34.756L310.562,35.334L310.616,35.912L310.674,36.49L310.735,37.068L310.799,37.645L310.867,38.223L310.938,38.801L311.012,39.379L311.088,39.957L311.168,40.535L311.25,41.112L311.334,41.69L311.42,42.268L311.508,42.846L311.597,43.424L311.687,44.002L311.778,44.579L311.869,45.157L311.959,45.735L312.05,46.313L312.14,46.891L312.228,47.469L312.315,48.046L312.4,48.624L312.483,49.202L312.564,49.78L312.642,50.358L312.717,50.936L312.789,51.513L312.858,52.091L312.925,52.669L312.987,53.247L313.047,53.825L313.104,54.403L313.158,54.98L313.21,55.558L313.258,56.136L313.305,56.714L313.35,57.292L313.393,57.869L313.435,58.447L313.475,59.025L313.516,59.603L313.556,60.181L313.597,60.759L313.638,61.336L313.681,61.914L313.725,62.492L313.771,63.07L313.82,63.648L313.872,64.226L313.927,64.803L313.985,65.381L314.048,65.959L314.115,66.537L314.188,67.115L314.266,67.693L314.349,68.27L314.439,68.848L314.536,69.426L314.64,70.004L314.752,70.582L314.873,71.16L315.002,71.737L315.141,72.315L315.29,72.893L315.451,73.471L315.623,74.049L315.808,74.626L316.007,75.204L316.22,75.782L316.448,76.36L316.693,76.938L316.956,77.516L317.238,78.093L317.54,78.671L317.863,79.249L318.208,79.827L318.578,80.405L318.973,80.983L319.394,81.56L319.843,82.138L320.322,82.716L320.832,83.294L321.374,83.872L321.949,84.45L322.559,85.027L323.205,85.605L323.888,86.183L324.609,86.761L325.369,87.339L326.17,87.917L327.011,88.494L327.894,89.072L328.818,89.65L329.785,90.228L330.793,90.806L331.844,91.383L332.936,91.961L334.069,92.539L335.241,93.117L336.453,93.695L337.702,94.273L338.987,94.85L340.305,95.428L341.655,96.006L343.034,96.584L344.439,97.162L345.866,97.74L347.313,98.317L348.776,98.895L350.25,99.473L351.732,100.051L353.217,100.629L354.701,101.207L356.178,101.784L357.644,102.362L359.094,102.94L360.522,103.518L361.924,104.096L363.294,104.674L364.627,105.251L365.918,105.829L367.162,106.407L368.353,106.985L369.488,107.563L370.561,108.141L371.569,108.718L372.507,109.296L373.371,109.874L374.158,110.452L374.865,111.03L375.49,111.607L376.03,112.185L376.483,112.763L376.848,113.341L377.124,113.919L377.311,114.497L377.409,115.074L377.418,115.652L377.34,116.23L377.176,116.808L376.929,117.386L376.6,117.964L376.193,118.541L375.712,119.119L375.16,119.697L374.541,120.275L373.861,120.853L373.124,121.431L372.336,122.008L371.502,122.586L370.629,123.164L369.722,123.742L368.788,124.32L367.833,124.898L366.864,125.475L365.887,126.053L364.909,126.631L363.937,127.209L362.976,127.787L362.033,128.364L361.114,128.942L360.225,129.52L359.371,130.098L358.557,130.676L357.789,131.254L357.071,131.831L356.406,132.409L355.798,132.987L355.249,133.565L354.764,134.143L354.342,134.721L353.985,135.298L353.694,135.876L353.469,136.454L353.309,137.032L353.213,137.61L353.179,138.188L353.204,138.765L353.285,139.343L353.42,139.921L353.603,140.499L353.829,141.077L354.095,141.655L354.393,142.232L354.719,142.81L355.067,143.388L355.429,143.966L355.799,144.544L356.17,145.121L356.537,145.699L356.891,146.277L357.227,146.855L357.537,147.433L357.817,148.011L358.059,148.588L358.258,149.166L358.409,149.744L358.507,150.322L358.548,150.9L358.529,151.478L358.446,152.055L358.297,152.633L358.081,153.211L357.796,153.789L357.442,154.367L357.019,154.945L356.528,155.522L355.971,156.1L355.35,156.678L354.668,157.256L353.928,157.834L353.135,158.412L352.292,158.989L351.405,159.567L350.477,160.145L349.516,160.723L348.527,161.301L347.514,161.879L346.485,162.456L345.444,163.034L344.398,163.612L343.353,164.19L342.313,164.768L341.284,165.345L340.27,165.923L339.277,166.501L338.308,167.079L337.367,167.657L336.458,168.235L335.583,168.812L334.744,169.39L333.943,169.968L333.182,170.546L332.461,171.124L331.781,171.702L331.14,172.279L330.54,172.857L329.979,173.435L329.454,174.013L328.966,174.591L328.511,175.169L328.088,175.746L327.693,176.324L327.326,176.902L326.982,177.48L326.659,178.058L326.354,178.636L326.064,179.213L325.788,179.791L325.521,180.369L325.262,180.947L325.009,181.525L324.758,182.102L324.509,182.68L324.259,183.258L324.007,183.836L323.751,184.414L323.491,184.992L323.225,185.569L322.953,186.147L322.674,186.725L322.389,187.303L322.096,187.881L321.797,188.459L321.491,189.036L321.18,189.614L320.862,190.192L320.54,190.77L320.214,191.348L319.884,191.926L319.552,192.503L319.218,193.081L318.883,193.659L318.548,194.237L318.214,194.815L317.882,195.393L317.553,195.97L317.227,196.548L316.905,197.126L316.589,197.704L316.277,198.282L315.972,198.859L315.673,199.437L315.382,200.015L315.098,200.593L314.822,201.171L314.554,201.749L314.294,202.326L314.043,202.904L313.801,203.482L313.568,204.06L313.343,204.638L313.128,205.216L312.922,205.793L312.725,206.371L312.537,206.949L312.358,207.527L312.187,208.105L312.026,208.683L311.872,209.26L311.728,209.838L311.591,210.416L311.462,210.994L311.341,211.572L311.228,212.15L311.122,212.727L311.023,213.305L310.931,213.883L310.845,214.461L310.765,215.039L310.692,215.617L310.624,216.194L310.561,216.772L310.504,217.35L310.451,217.928L310.403,218.506L310.359,219.083L310.32,219.661L310.284,220.239L310.251,220.817L310.221,221.395L310.195,221.973L310.171,222.55L310.15,223.128L310.131,223.706L310.114,224.284L310.099,224.862L310.086,225.44L310.074,226.017L310.064,226.595L310.055,227.173L310.047,227.751L310.041,228.329L310.035,228.907L310.029,229.484L309.971,229.484L309.965,228.907L309.959,228.329L309.953,227.751L309.945,227.173L309.936,226.595L309.926,226.017L309.914,225.44L309.901,224.862L309.886,224.284L309.869,223.706L309.85,223.128L309.829,222.55L309.805,221.973L309.779,221.395L309.749,220.817L309.716,220.239L309.68,219.661L309.641,219.083L309.597,218.506L309.549,217.928L309.496,217.35L309.439,216.772L309.376,216.194L309.308,215.617L309.235,215.039L309.155,214.461L309.069,213.883L308.977,213.305L308.878,212.727L308.772,212.15L308.659,211.572L308.538,210.994L308.409,210.416L308.272,209.838L308.128,209.26L307.974,208.683L307.813,208.105L307.642,207.527L307.463,206.949L307.275,206.371L307.078,205.793L306.872,205.216L306.657,204.638L306.432,204.06L306.199,203.482L305.957,202.904L305.706,202.326L305.446,201.749L305.178,201.171L304.902,200.593L304.618,200.015L304.327,199.437L304.028,198.859L303.723,198.282L303.411,197.704L303.095,197.126L302.773,196.548L302.447,195.97L302.118,195.393L301.786,194.815L301.452,194.237L301.117,193.659L300.782,193.081L300.448,192.503L300.116,191.926L299.786,191.348L299.46,190.77L299.138,190.192L298.82,189.614L298.509,189.036L298.203,188.459L297.904,187.881L297.611,187.303L297.326,186.725L297.047,186.147L296.775,185.569L296.509,184.992L296.249,184.414L295.993,183.836L295.741,183.258L295.491,182.68L295.242,182.102L294.991,181.525L294.738,180.947L294.479,180.369L294.212,179.791L293.936,179.213L293.646,178.636L293.341,178.058L293.018,177.48L292.674,176.902L292.307,176.324L291.912,175.746L291.489,175.169L291.034,174.591L290.546,174.013L290.021,173.435L289.46,172.857L288.86,172.279L288.219,171.702L287.539,171.124L286.818,170.546L286.057,169.968L285.256,169.39L284.417,168.812L283.542,168.235L282.633,167.657L281.692,167.079L280.723,166.501L279.73,165.923L278.716,165.345L277.687,164.768L276.647,164.19L275.602,163.612L274.556,163.034L273.515,162.456L272.486,161.879L271.473,161.301L270.484,160.723L269.523,160.145L268.595,159.567L267.708,158.989L266.865,158.412L266.072,157.834L265.332,157.256L264.65,156.678L264.029,156.1L263.472,155.522L262.981,154.945L262.558,154.367L262.204,153.789L261.919,153.211L261.703,152.633L261.554,152.055L261.471,151.478L261.452,150.9L261.493,150.322L261.591,149.744L261.742,149.166L261.941,148.588L262.183,148.011L262.463,147.433L262.773,146.855L263.109,146.277L263.463,145.699L263.83,145.121L264.201,144.544L264.571,143.966L264.933,143.388L265.281,142.81L265.607,142.232L265.905,141.655L266.171,141.077L266.397,140.499L266.58,139.921L266.715,139.343L266.796,138.765L266.821,138.188L266.787,137.61L266.691,137.032L266.531,136.454L266.306,135.876L266.015,135.298L265.658,134.721L265.236,134.143L264.751,133.565L264.202,132.987L263.594,132.409L262.929,131.831L262.211,131.254L261.443,130.676L260.629,130.098L259.775,129.52L258.886,128.942L257.967,128.364L257.024,127.787L256.063,127.209L255.091,126.631L254.113,126.053L253.136,125.475L252.167,124.898L251.212,124.32L250.278,123.742L249.371,123.164L248.498,122.586L247.664,122.008L246.876,121.431L246.139,120.853L245.459,120.275L244.84,119.697L244.288,119.119L243.807,118.541L243.4,117.964L243.071,117.386L242.824,116.808L242.66,116.23L242.582,115.652L242.591,115.074L242.689,114.497L242.876,113.919L243.152,113.341L243.517,112.763L243.97,112.185L244.51,111.607L245.135,111.03L245.842,110.452L246.629,109.874L247.493,109.296L248.431,108.718L249.439,108.141L250.512,107.563L251.647,106.985L252.838,106.407L254.082,105.829L255.373,105.251L256.706,104.674L258.076,104.096L259.478,103.518L260.906,102.94L262.356,102.362L263.822,101.784L265.299,101.207L266.783,100.629L268.268,100.051L269.75,99.473L271.224,98.895L272.687,98.317L274.134,97.74L275.561,97.162L276.966,96.584L278.345,96.006L279.695,95.428L281.013,94.85L282.298,94.273L283.547,93.695L284.759,93.117L285.931,92.539L287.064,91.961L288.156,91.383L289.207,90.806L290.215,90.228L291.182,89.65L292.106,89.072L292.989,88.494L293.83,87.917L294.631,87.339L295.391,86.761L296.112,86.183L296.795,85.605L297.441,85.027L298.051,84.45L298.626,83.872L299.168,83.294L299.678,82.716L300.157,82.138L300.606,81.56L301.027,80.983L301.422,80.405L301.792,79.827L302.137,79.249L302.46,78.671L302.762,78.093L303.044,77.516L303.307,76.938L303.552,76.36L303.78,75.782L303.993,75.204L304.192,74.626L304.377,74.049L304.549,73.471L304.71,72.893L304.859,72.315L304.998,71.737L305.127,71.16L305.248,70.582L305.36,70.004L305.464,69.426L305.561,68.848L305.651,68.27L305.734,67.693L305.812,67.115L305.885,66.537L305.952,65.959L306.015,65.381L306.073,64.803L306.128,64.226L306.18,63.648L306.229,63.07L306.275,62.492L306.319,61.914L306.362,61.336L306.403,60.759L306.444,60.181L306.484,59.603L306.525,59.025L306.565,58.447L306.607,57.869L306.65,57.292L306.695,56.714L306.742,56.136L306.79,55.558L306.842,54.98L306.896,54.403L306.953,53.825L307.013,53.247L307.075,52.669L307.142,52.091L307.211,51.513L307.283,50.936L307.358,50.358L307.436,49.78L307.517,49.202L307.6,48.624L307.685,48.046L307.772,47.469L307.86,46.891L307.95,46.313L308.041,45.735L308.131,45.157L308.222,44.579L308.313,44.002L308.403,43.424L308.492,42.846L308.58,42.268L308.666,41.69L308.75,41.112L308.832,40.535L308.912,39.957L308.988,39.379L309.062,38.801L309.133,38.223L309.201,37.645L309.265,37.068L309.326,36.49L309.384,35.912L309.438,35.334L309.489,34.756L309.537,34.179L309.581,33.601L309.622,33.023L309.66,32.445L309.695,31.867L309.728,31.289L309.757,30.712L309.784,30.134L309.809,29.556L309.831,28.978L309.851,28.4L309.869,27.822L309.885,27.245L309.9,26.667L309.912,26.089L309.924,25.511L309.934,24.933L309.943,24.355L309.951,23.778L309.958,23.2L309.964,22.622L309.969,22.044" fill="#F38400" fill-opacity="0.8" stroke="#F38400" stroke-width="1.3333333333333333" stroke-dasharray=""/></g></g><path class="foreground" aria-hidden="true" d="" display="none"/></g><g transform="translate(0,0)"><path class="background" aria-hidden="true" d="M0,0h620v307h-620Z"/><g><g class="mark-line role-mark layer_0_marks" role="graphics-object" aria-roledescription="line mark container"><path aria-label="species: Gentoo; bill_len: 62.7597400193" role="graphics-symbol" aria-roledescription="line mark" d="M503.769,13.955L503.773,14.532L503.777,15.11L503.783,15.688L503.789,16.266L503.797,16.844L503.806,17.422L503.816,17.999L503.828,18.577L503.841,19.155L503.856,19.733L503.873,20.311L503.893,20.888L503.915,21.466L503.939,22.044L503.966,22.622L503.996,23.2L504.029,23.778L504.065,24.355L504.104,24.933L504.146,25.511L504.191,26.089L504.239,26.667L504.291,27.245L504.345,27.822L504.401,28.4L504.461,28.978L504.522,29.556L504.585,30.134L504.649,30.712L504.714,31.289L504.779,31.867L504.844,32.445L504.908,33.023L504.971,33.601L505.032,34.179L505.09,34.756L505.144,35.334L505.195,35.912L505.241,36.49L505.283,37.068L505.318,37.645L505.348,38.223L505.372,38.801L505.389,39.379L505.399,39.957L505.402,40.535L505.399,41.112L505.389,41.69L505.372,42.268L505.349,42.846L505.32,43.424L505.286,44.002L505.247,44.579L505.203,45.157L505.156,45.735L505.106,46.313L505.054,46.891L505.001,47.469L504.946,48.046L504.893,48.624L504.84,49.202L504.789,49.78L504.74,50.358L504.695,50.936L504.654,51.513L504.617,52.091L504.586,52.669L504.561,53.247L504.543,53.825L504.531,54.403L504.526,54.98L504.53,55.558L504.541,56.136L504.561,56.714L504.589,57.292L504.626,57.869L504.671,58.447L504.725,59.025L504.787,59.603L504.858,60.181L504.937,60.759L505.023,61.336L505.118,61.914L505.219,62.492L505.327,63.07L505.442,63.648L505.562,64.226L505.687,64.803L505.816,65.381L505.95,65.959L506.086,66.537L506.225,67.115L506.365,67.693L506.506,68.27L506.647,68.848L506.787,69.426L506.927,70.004L507.064,70.582L507.198,71.16L507.329,71.737L507.457,72.315L507.58,72.893L507.699,73.471L507.813,74.049L507.922,74.626L508.025,75.204L508.123,75.782L508.216,76.36L508.304,76.938L508.386,77.516L508.464,78.093L508.538,78.671L508.608,79.249L508.675,79.827L508.739,80.405L508.802,80.983L508.863,81.56L508.924,82.138L508.986,82.716L509.05,83.294L509.116,83.872L509.186,84.45L509.261,85.027L509.342,85.605L509.431,86.183L509.528,86.761L509.635,87.339L509.753,87.917L509.884,88.494L510.028,89.072L510.186,89.65L510.362,90.228L510.554,90.806L510.766,91.383L510.998,91.961L511.252,92.539L511.528,93.117L511.829,93.695L512.156,94.273L512.509,94.85L512.891,95.428L513.303,96.006L513.746,96.584L514.221,97.162L514.73,97.74L515.274,98.317L515.854,98.895L516.471,99.473L517.127,100.051L517.822,100.629L518.557,101.207L519.334,101.784L520.151,102.362L521.011,102.94L521.913,103.518L522.856,104.096L523.841,104.674L524.866,105.251L525.932,105.829L527.035,106.407L528.174,106.985L529.348,107.563L530.554,108.141L531.788,108.718L533.049,109.296L534.331,109.874L535.631,110.452L536.945,111.03L538.269,111.607L539.597,112.185L540.925,112.763L542.247,113.341L543.56,113.919L544.856,114.497L546.133,115.074L547.383,115.652L548.604,116.23L549.789,116.808L550.935,117.386L552.038,117.964L553.093,118.541L554.099,119.119L555.051,119.697L555.947,120.275L556.786,120.853L557.566,121.431L558.286,122.008L558.946,122.586L559.546,123.164L560.086,123.742L560.568,124.32L560.993,124.898L561.363,125.475L561.68,126.053L561.948,126.631L562.169,127.209L562.347,127.787L562.486,128.364L562.589,128.942L562.662,129.52L562.708,130.098L562.731,130.676L562.738,131.254L562.732,131.831L562.718,132.409L562.7,132.987L562.683,133.565L562.672,134.143L562.67,134.721L562.681,135.298L562.71,135.876L562.758,136.454L562.829,137.032L562.924,137.61L563.047,138.188L563.198,138.765L563.378,139.343L563.587,139.921L563.826,140.499L564.092,141.077L564.386,141.655L564.704,142.232L565.044,142.81L565.405,143.388L565.781,143.966L566.169,144.544L566.566,145.121L566.966,145.699L567.364,146.277L567.757,146.855L568.138,147.433L568.503,148.011L568.846,148.588L569.161,149.166L569.445,149.744L569.691,150.322L569.894,150.9L570.052,151.478L570.158,152.055L570.209,152.633L570.202,153.211L570.133,153.789L570,154.367L569.801,154.945L569.534,155.522L569.198,156.1L568.794,156.678L568.32,157.256L567.778,157.834L567.169,158.412L566.495,158.989L565.76,159.567L564.965,160.145L564.114,160.723L563.212,161.301L562.264,161.879L561.273,162.456L560.244,163.034L559.185,163.612L558.098,164.19L556.991,164.768L555.869,165.345L554.736,165.923L553.598,166.501L552.459,167.079L551.324,167.657L550.198,168.235L549.082,168.812L547.981,169.39L546.896,169.968L545.829,170.546L544.783,171.124L543.756,171.702L542.751,172.279L541.766,172.857L540.8,173.435L539.853,174.013L538.924,174.591L538.01,175.169L537.11,175.746L536.222,176.324L535.344,176.902L534.475,177.48L533.612,178.058L532.755,178.636L531.902,179.213L531.052,179.791L530.204,180.369L529.358,180.947L528.513,181.525L527.671,182.102L526.831,182.68L525.994,183.258L525.16,183.836L524.332,184.414L523.511,184.992L522.697,185.569L521.893,186.147L521.099,186.725L520.319,187.303L519.552,187.881L518.801,188.459L518.067,189.036L517.351,189.614L516.654,190.192L515.978,190.77L515.323,191.348L514.689,191.926L514.077,192.503L513.488,193.081L512.922,193.659L512.378,194.237L511.857,194.815L511.358,195.393L510.881,195.97L510.426,196.548L509.991,197.126L509.578,197.704L509.184,198.282L508.809,198.859L508.454,199.437L508.117,200.015L507.797,200.593L507.495,201.171L507.209,201.749L506.939,202.326L506.684,202.904L506.445,203.482L506.22,204.06L506.008,204.638L505.81,205.216L505.625,205.793L505.453,206.371L505.292,206.949L505.143,207.527L505.005,208.105L504.877,208.683L504.76,209.26L504.652,209.838L504.553,210.416L504.463,210.994L504.381,211.572L504.307,212.15L504.24,212.727L504.179,213.305L504.125,213.883L504.076,214.461L504.033,215.039L503.995,215.617L503.961,216.194L503.931,216.772L503.905,217.35L503.882,217.928L503.862,218.506L503.845,219.083L503.83,219.661L503.817,220.239L503.806,220.817L503.797,221.395L503.789,221.973L503.782,222.55L503.776,223.128L503.772,223.706L503.728,223.706L503.724,223.128L503.718,222.55L503.711,221.973L503.703,221.395L503.694,220.817L503.683,220.239L503.67,219.661L503.655,219.083L503.638,218.506L503.618,217.928L503.595,217.35L503.569,216.772L503.539,216.194L503.505,215.617L503.467,215.039L503.424,214.461L503.375,213.883L503.321,213.305L503.26,212.727L503.193,212.15L503.119,211.572L503.037,210.994L502.947,210.416L502.848,209.838L502.74,209.26L502.623,208.683L502.495,208.105L502.357,207.527L502.208,206.949L502.047,206.371L501.875,205.793L501.69,205.216L501.492,204.638L501.28,204.06L501.055,203.482L500.816,202.904L500.561,202.326L500.291,201.749L500.005,201.171L499.703,200.593L499.383,200.015L499.046,199.437L498.691,198.859L498.316,198.282L497.922,197.704L497.509,197.126L497.074,196.548L496.619,195.97L496.142,195.393L495.643,194.815L495.122,194.237L494.578,193.659L494.012,193.081L493.423,192.503L492.811,191.926L492.177,191.348L491.522,190.77L490.846,190.192L490.149,189.614L489.433,189.036L488.699,188.459L487.948,187.881L487.181,187.303L486.401,186.725L485.607,186.147L484.803,185.569L483.989,184.992L483.168,184.414L482.34,183.836L481.506,183.258L480.669,182.68L479.829,182.102L478.987,181.525L478.142,180.947L477.296,180.369L476.448,179.791L475.598,179.213L474.745,178.636L473.888,178.058L473.025,177.48L472.156,176.902L471.278,176.324L470.39,175.746L469.49,175.169L468.576,174.591L467.647,174.013L466.7,173.435L465.734,172.857L464.749,172.279L463.744,171.702L462.717,171.124L461.671,170.546L460.604,169.968L459.519,169.39L458.418,168.812L457.302,168.235L456.176,167.657L455.041,167.079L453.902,166.501L452.764,165.923L451.631,165.345L450.509,164.768L449.402,164.19L448.315,163.612L447.256,163.034L446.227,162.456L445.236,161.879L444.288,161.301L443.386,160.723L442.535,160.145L441.74,159.567L441.005,158.989L440.331,158.412L439.722,157.834L439.18,157.256L438.706,156.678L438.302,156.1L437.966,155.522L437.699,154.945L437.5,154.367L437.367,153.789L437.298,153.211L437.291,152.633L437.342,152.055L437.448,151.478L437.606,150.9L437.809,150.322L438.055,149.744L438.339,149.166L438.654,148.588L438.997,148.011L439.362,147.433L439.743,146.855L440.136,146.277L440.534,145.699L440.934,145.121L441.331,144.544L441.719,143.966L442.095,143.388L442.456,142.81L442.796,142.232L443.114,141.655L443.408,141.077L443.674,140.499L443.913,139.921L444.122,139.343L444.302,138.765L444.453,138.188L444.576,137.61L444.671,137.032L444.742,136.454L444.79,135.876L444.819,135.298L444.83,134.721L444.828,134.143L444.817,133.565L444.8,132.987L444.782,132.409L444.768,131.831L444.762,131.254L444.769,130.676L444.792,130.098L444.838,129.52L444.911,128.942L445.014,128.364L445.153,127.787L445.331,127.209L445.552,126.631L445.82,126.053L446.137,125.475L446.507,124.898L446.932,124.32L447.414,123.742L447.954,123.164L448.554,122.586L449.214,122.008L449.934,121.431L450.714,120.853L451.553,120.275L452.449,119.697L453.401,119.119L454.407,118.541L455.462,117.964L456.565,117.386L457.711,116.808L458.896,116.23L460.117,115.652L461.367,115.074L462.644,114.497L463.94,113.919L465.253,113.341L466.575,112.763L467.903,112.185L469.231,111.607L470.555,111.03L471.869,110.452L473.169,109.874L474.451,109.296L475.712,108.718L476.946,108.141L478.152,107.563L479.326,106.985L480.465,106.407L481.568,105.829L482.634,105.251L483.659,104.674L484.644,104.096L485.587,103.518L486.489,102.94L487.349,102.362L488.166,101.784L488.943,101.207L489.678,100.629L490.373,100.051L491.029,99.473L491.646,98.895L492.226,98.317L492.77,97.74L493.279,97.162L493.754,96.584L494.197,96.006L494.609,95.428L494.991,94.85L495.344,94.273L495.671,93.695L495.972,93.117L496.248,92.539L496.502,91.961L496.734,91.383L496.946,90.806L497.138,90.228L497.314,89.65L497.472,89.072L497.616,88.494L497.747,87.917L497.865,87.339L497.972,86.761L498.069,86.183L498.158,85.605L498.239,85.027L498.314,84.45L498.384,83.872L498.45,83.294L498.514,82.716L498.576,82.138L498.637,81.56L498.698,80.983L498.761,80.405L498.825,79.827L498.892,79.249L498.962,78.671L499.036,78.093L499.114,77.516L499.196,76.938L499.284,76.36L499.377,75.782L499.475,75.204L499.578,74.626L499.687,74.049L499.801,73.471L499.92,72.893L500.043,72.315L500.171,71.737L500.302,71.16L500.436,70.582L500.573,70.004L500.713,69.426L500.853,68.848L500.994,68.27L501.135,67.693L501.275,67.115L501.414,66.537L501.55,65.959L501.684,65.381L501.813,64.803L501.938,64.226L502.058,63.648L502.173,63.07L502.281,62.492L502.382,61.914L502.477,61.336L502.563,60.759L502.642,60.181L502.713,59.603L502.775,59.025L502.829,58.447L502.874,57.869L502.911,57.292L502.939,56.714L502.959,56.136L502.97,55.558L502.974,54.98L502.969,54.403L502.957,53.825L502.939,53.247L502.914,52.669L502.883,52.091L502.846,51.513L502.805,50.936L502.76,50.358L502.711,49.78L502.66,49.202L502.607,48.624L502.554,48.046L502.499,47.469L502.446,46.891L502.394,46.313L502.344,45.735L502.297,45.157L502.253,44.579L502.214,44.002L502.18,43.424L502.151,42.846L502.128,42.268L502.111,41.69L502.101,41.112L502.098,40.535L502.101,39.957L502.111,39.379L502.128,38.801L502.152,38.223L502.182,37.645L502.217,37.068L502.259,36.49L502.305,35.912L502.356,35.334L502.41,34.756L502.468,34.179L502.529,33.601L502.592,33.023L502.656,32.445L502.721,31.867L502.786,31.289L502.851,30.712L502.915,30.134L502.978,29.556L503.039,28.978L503.099,28.4L503.155,27.822L503.209,27.245L503.261,26.667L503.309,26.089L503.354,25.511L503.396,24.933L503.435,24.355L503.471,23.778L503.504,23.2L503.534,22.622L503.561,22.044L503.585,21.466L503.607,20.888L503.627,20.311L503.644,19.733L503.659,19.155L503.672,18.577L503.684,17.999L503.694,17.422L503.703,16.844L503.711,16.266L503.717,15.688L503.723,15.11L503.727,14.532L503.731,13.955" fill="#008856" fill-opacity="0.8" stroke="#008856" stroke-width="1.3333333333333333" stroke-dasharray=""/></g></g><path class="foreground" aria-hidden="true" d="" display="none"/></g></g><g class="mark-group role-legend" role="graphics-symbol" aria-roledescription="legend" aria-label="Symbol legend titled 'species' for fill color and stroke color with 3 values: Adelie, Chinstrap, Gentoo"><g transform="translate(638,0)"><path class="background" aria-hidden="true" d="M0,0h68v76h-68Z" pointer-events="none"/><g><g class="mark-group role-legend-entry"><g transform="translate(0,23)"><path class="background" aria-hidden="true" d="M0,0h0v0h0Z" pointer-events="none"/><g><g class="mark-group role-scope" role="graphics-object" aria-roledescription="group mark container"><g transform="translate(0,0)"><path class="background" aria-hidden="true" d="M0,0h67.357421875v12.5h-67.357421875Z" pointer-events="none" opacity="1"/><g><g class="mark-symbol role-legend-symbol" pointer-events="none"><path transform="translate(6,6)" d="M5,0A5,5,0,1,1,-5,0A5,5,0,1,1,5,0" fill="#0067A5" fill-opacity="1" stroke="#0067A5" stroke-width="1.5" opacity="1"/></g><g class="mark-text role-legend-label" pointer-events="none"><text text-anchor="start" transform="translate(16,10)" font-family="sans-serif" font-size="12px" fill="#4D4D4D" opacity="1">Adelie</text></g></g><path class="foreground" aria-hidden="true" d="" pointer-events="none" display="none"/></g><g transform="translate(0,20)"><path class="background" aria-hidden="true" d="M0,0h67.357421875v12.5h-67.357421875Z" pointer-events="none" opacity="1"/><g><g class="mark-symbol role-legend-symbol" pointer-events="none"><path transform="translate(6,6)" d="M5,0A5,5,0,1,1,-5,0A5,5,0,1,1,5,0" fill="#F38400" fill-opacity="1" stroke="#F38400" stroke-width="1.5" opacity="1"/></g><g class="mark-text role-legend-label" pointer-events="none"><text text-anchor="start" transform="translate(16,10)" font-family="sans-serif" font-size="12px" fill="#4D4D4D" opacity="1">Chinstrap</text></g></g><path class="foreground" aria-hidden="true" d="" pointer-events="none" display="none"/></g><g transform="translate(0,40)"><path class="background" aria-hidden="true" d="M0,0h67.357421875v12.5h-67.357421875Z" pointer-events="none" opacity="1"/><g><g class="mark-symbol role-legend-symbol" pointer-events="none"><path transform="translate(6,6)" d="M5,0A5,5,0,1,1,-5,0A5,5,0,1,1,5,0" fill="#008856" fill-opacity="1" stroke="#008856" stroke-width="1.5" opacity="1"/></g><g class="mark-text role-legend-label" pointer-events="none"><text text-anchor="start" transform="translate(16,10)" font-family="sans-serif" font-size="12px" fill="#4D4D4D" opacity="1">Gentoo</text></g></g><path class="foreground" aria-hidden="true" d="" pointer-events="none" display="none"/></g></g></g><path class="foreground" aria-hidden="true" d="" pointer-events="none" display="none"/></g></g><g class="mark-text role-legend-title" pointer-events="none"><text text-anchor="start" transform="translate(0,12)" font-family="sans-serif" font-size="15px" font-weight="normal" fill="#000000" opacity="1">species</text></g></g><path class="foreground" aria-hidden="true" d="" pointer-events="none" display="none"/></g></g></g><path class="foreground" aria-hidden="true" d="" display="none"/></g></g></g></svg>