<svg xmlns="http://www.w3.org/2000/svg" width="1344" height="960" viewBox="0 0 1344 960" font-family="sans-serif" font-size="23.467" xml:space="preserve" style="isolation:isolate;white-space:pre"><defs><clipPath id="p87953968-49d0-4216-82ad-756264fc3fd4-c0" clipPathUnits="userSpaceOnUse"><path d="M114.263 14.667L1121.543 14.667L1121.543 869.827L114.263 869.827Z"/></clipPath></defs><rect width="1344" height="960" fill="#ffffff"/><path d="M0 0L1344 0L1344 960L0 960Z" fill="#ffffff"/><path d="M114.263 14.667L1121.543 14.667L1121.543 869.827L114.263 869.827Z" fill="#ebebeb"/><g clip-path="url(#p87953968-49d0-4216-82ad-756264fc3fd4-c0)" style="isolation:isolate"><path d="M393.988 14.667L393.988 869.827" fill="none" stroke="#ffffff" stroke-width="0.667"/><path d="M728.189 14.667L728.189 869.827" fill="none" stroke="#ffffff" stroke-width="0.667"/><path d="M1062.39 14.667L1062.39 869.827" fill="none" stroke="#ffffff" stroke-width="0.667"/><path d="M226.888 14.667L226.888 869.827" fill="none" stroke="#ffffff" stroke-width="1.333"/><path d="M561.089 14.667L561.089 869.827" fill="none" stroke="#ffffff" stroke-width="1.333"/><path d="M895.289 14.667L895.289 869.827" fill="none" stroke="#ffffff" stroke-width="1.333"/><path d="M114.263 762.361L1121.543 762.361" fill="none" stroke="#ffffff" stroke-width="0.667"/><path d="M114.263 533.708L1121.543 533.708" fill="none" stroke="#ffffff" stroke-width="0.667"/><path d="M114.263 305.056L1121.543 305.056" fill="none" stroke="#ffffff" stroke-width="0.667"/><path d="M114.263 76.403L1121.543 76.403" fill="none" stroke="#ffffff" stroke-width="0.667"/><path d="M114.263 648.034L1121.543 648.034" fill="none" stroke="#ffffff" stroke-width="1.333"/><path d="M114.263 419.382L1121.543 419.382" fill="none" stroke="#ffffff" stroke-width="1.333"/><path d="M114.263 190.729L1121.543 190.729" fill="none" stroke="#ffffff" stroke-width="1.333"/></g><g clip-path="url(#p87953968-49d0-4216-82ad-756264fc3fd4-c0)" style="isolation:isolate"><path d="M1075.758 96.03L1075.758 102.506L1064.522 102.467L1058.758 96.07Z" fill="#000000"/><path d="M1059.586 95.324L1065.35 101.721L1031.756 423.306L1026.028 416.949Z" fill="#000000"/><path d="M1026.856 416.203L1032.584 422.56L1013.183 422.541L1016.521 416.223Z" fill="#000000"/><path d="M1017.693 416.843L1014.355 423.16L920.751 285.61L922.455 277.531Z" fill="#000000"/><path d="M923.514 277.755L921.81 285.834L849.79 329.881L845.939 326.752Z" fill="#000000"/><path d="M846.834 325.652L850.684 328.781L783.13 512.617L779.678 510.477Z" fill="#000000"/><path d="M780.452 509.229L783.903 511.369L695.445 604.104L693.06 601.591Z" fill="#000000"/><path d="M694.146 600.56L696.532 603.073L588.209 695.609L586.301 692.896Z" fill="#000000"/><path d="M587.523 692.037L589.43 694.75L507.967 741.196L505.963 738.538Z" fill="#000000"/><path d="M507.151 737.642L509.155 740.3L459.479 788.853L461.105 782.647Z" fill="#000000"/><path d="M461.852 782.843L460.226 789.049L445.723 739.434L448.778 738.118Z" fill="#000000"/><path d="M449.367 739.485L446.312 740.801L393.706 650.823L393.513 643.951Z" fill="#000000"/><path d="M394.233 643.931L394.427 650.803L346.946 743.269L346.772 737.058Z" fill="#000000"/><path d="M347.492 737.037L347.666 743.249L319.207 694.649L320.965 691.586Z" fill="#000000"/><path d="M322.093 692.233L320.336 695.297L226.138 695.178L226.138 692.352Z" fill="#000000"/><path d="M227.638 692.352L227.638 695.178L186.034 695.098L186.034 692.432Z" fill="#000000"/><path d="M187.534 692.432L187.534 695.098L172.666 695.098L172.666 692.432Z" fill="#000000"/><path d="M174.166 692.432L174.166 695.098L166.732 695.098L166.732 692.432Z" fill="#000000"/><path d="M472.291 190.836L476.102 190.622L509.552 786.71L505.765 785.24Z" fill="#000000"/><path d="M506.26 783.967L510.047 785.437L459.382 834.957L461.203 828.005Z" fill="#000000"/><path d="M461.95 828.201L460.128 835.152L445.724 785.734L449.197 784.718Z" fill="#000000"/><path d="M200.152 53.538L173.416 693.765L166.732 693.765" fill="none" stroke="#000000" stroke-width="2.746"/><path d="M166.507 469.833L153.589 460.392L197.033 400.945L190.788 436.607Z" fill="#deb887"/><path d="M190.135 436.493L196.38 400.831L261.364 623.132L259.674 674.376Z" fill="#deb887"/><path d="M259.206 674.361L260.896 623.117L287.681 550.97L300.291 560.768Z" fill="#deb887"/><path d="M299.414 561.896L286.804 552.098L357.118 504.472L365.257 516.367Z" fill="#deb887"/><path d="M364.019 517.214L355.88 505.319L423.219 459.728L432.836 469.65Z" fill="#deb887"/><path d="M431.775 470.679L422.157 460.757L456.414 415.227L466.128 422.326Z" fill="#deb887"/><path d="M465.243 423.537L455.529 416.438L490.863 369.097L498.519 376.995Z" fill="#deb887"/><path d="M497.458 378.024L489.802 370.126L557.843 324.295L565.572 330.7Z" fill="#deb887"/><path d="M564.652 331.81L556.923 325.405L581.174 270.345L581.71 292.662Z" fill="#deb887"/><path d="M581.075 292.677L580.539 270.36L696.856 505.76L693.35 517.269Z" fill="#deb887"/><path d="M692.364 516.969L695.871 505.46L772.216 462.046L779.041 467.436Z" fill="#deb887"/><path d="M778.179 468.528L771.354 463.137L853.167 184.177L857.625 195.842Z" fill="#deb887"/><path d="M856.777 196.166L852.32 184.5L928.505 232.519L930.188 241.192Z" fill="#deb887"/><path d="M929.108 241.402L927.426 232.729L959.987 188.173L965.157 192.075Z" fill="#deb887"/><path d="M964.253 193.272L959.084 189.37L1066.52 51.547L1071.628 55.528Z" fill="#deb887"/><path d="M162.022 375.094L158.074 372.209L194.865 321.867L192.957 332.764Z" fill="#deb887"/><path d="M192.304 332.649L194.212 321.753L262.865 556.607L258.172 557.979Z" fill="#deb887"/><path d="M260.308 556.573L257.962 557.259L262.722 556.961Z" fill="#deb887"/><path d="M262.603 557.702L257.776 556.926L332.509 94.6L335.394 102.456Z" fill="#deb887"/><path d="M334.705 102.709L331.82 94.853L388.953 143.897L386.796 147.076Z" fill="#deb887"/><path d="M385.563 146.239L387.719 143.06L475.086 189.04L473.308 192.418Z" fill="#deb887"/><path d="M161.413 328.918L158.683 326.923L192.236 281.011L195.585 282.159Z" fill="#deb887"/><path d="M195.121 283.514L191.772 282.366L198.78 53.497L201.525 53.578Z" fill="#deb887"/></g><path d="M393.988 869.827L393.988 873.494" fill="none" stroke="#333333" stroke-width="2.667"/><path d="M728.189 869.827L728.189 873.494" fill="none" stroke="#333333" stroke-width="2.667"/><path d="M1062.39 869.827L1062.39 873.494" fill="none" stroke="#333333" stroke-width="2.667"/><path d="M226.888 869.827L226.888 877.161" fill="none" stroke="#333333" stroke-width="2.667"/><path d="M561.089 869.827L561.089 877.161" fill="none" stroke="#333333" stroke-width="2.667"/><text fill="#4d4d4d" transform="translate(211.958 876.275)"><tspan x="0" y="22" textLength="29.86" lengthAdjust="spacingAndGlyphs">25</tspan></text><path d="M895.289 869.827L895.289 877.161" fill="none" stroke="#333333" stroke-width="2.667"/><text fill="#4d4d4d" transform="translate(546.159 876.275)"><tspan x="0" y="22" textLength="29.86" lengthAdjust="spacingAndGlyphs">30</tspan></text><path d="M114.263 762.361L110.596 762.361" fill="none" stroke="#333333" stroke-width="2.667"/><path d="M114.263 533.708L110.596 533.708" fill="none" stroke="#333333" stroke-width="2.667"/><path d="M114.263 305.056L110.596 305.056" fill="none" stroke="#333333" stroke-width="2.667"/><path d="M114.263 76.403L110.596 76.403" fill="none" stroke="#333333" stroke-width="2.667"/><path d="M114.263 648.034L106.929 648.034" fill="none" stroke="#333333" stroke-width="2.667"/><text fill="#4d4d4d" transform="translate(880.359 876.275)"><tspan x="0" y="22" textLength="29.86" lengthAdjust="spacingAndGlyphs">35</tspan></text><path d="M114.263 419.382L106.929 419.382" fill="none" stroke="#333333" stroke-width="2.667"/><text fill="#4d4d4d" transform="translate(48.813 633.658)"><tspan x="0" y="22" textLength="52.25" lengthAdjust="spacingAndGlyphs">54.5</tspan></text><path d="M114.263 190.729L106.929 190.729" fill="none" stroke="#333333" stroke-width="2.667"/><text fill="#4d4d4d" transform="translate(48.813 405.006)"><tspan x="0" y="22" textLength="52.25" lengthAdjust="spacingAndGlyphs">55.0</tspan></text><text fill="#4d4d4d" transform="translate(48.813 176.353)"><tspan x="0" y="22" textLength="52.25" lengthAdjust="spacingAndGlyphs">55.5</tspan></text><text font-size="29.333" fill="#000000" transform="translate(114.263 911.187)"><tspan x="471.987" y="27" textLength="63.307" lengthAdjust="spacingAndGlyphs">long</tspan></text><text font-size="29.333" fill="#000000" transform="matrix(0 -1 1 0 14.14 461.06)"><tspan x="0" y="27" textLength="37.626" lengthAdjust="spacingAndGlyphs">lat</tspan></text><path d="M1164.21 76.533L1206.45 76.533L1206.45 118.773L1164.21 118.773Z" fill="#ebebeb"/><path d="M1164.21 97.653L1206.45 97.653" fill="none" stroke="#deb887" stroke-width="2.667"/><text font-size="29.333" fill="#000000" transform="translate(1164.21 30.667)"><tspan x="0" y="27" textLength="128.548" lengthAdjust="spacingAndGlyphs">direction</tspan></text><path d="M1164.21 129.44L1206.45 129.44L1206.45 171.68L1164.21 171.68Z" fill="#ebebeb"/><path d="M1164.21 150.56L1206.45 150.56" fill="none" stroke="#000000" stroke-width="2.667"/><text fill="#4d4d4d" transform="translate(1212.317 83.277)"><tspan x="0" y="22" textLength="101.017" lengthAdjust="spacingAndGlyphs">Advance</tspan></text><text fill="#4d4d4d" transform="translate(1212.317 136.184)"><tspan x="0" y="22" textLength="86.041" lengthAdjust="spacingAndGlyphs">Retreat</tspan></text><path d="M1164.21 276.213L1206.45 276.213L1206.45 318.453L1164.21 318.453Z" fill="#ebebeb"/><path d="M1164.21 297.333L1206.45 297.333" fill="none" stroke="#404040" stroke-width="6.476"/><text font-size="29.333" fill="#000000" transform="translate(1164.21 230.347)"><tspan x="0" y="27" textLength="134.091" lengthAdjust="spacingAndGlyphs">survivors</tspan></text><path d="M1164.21 329.12L1206.45 329.12L1206.45 371.36L1164.21 371.36Z" fill="#ebebeb"/><path d="M1164.21 350.24L1206.45 350.24" fill="none" stroke="#404040" stroke-width="10.444"/><text fill="#4d4d4d" transform="translate(1212.317 282.957)"><tspan x="0" y="22" textLength="89.581" lengthAdjust="spacingAndGlyphs">100000</tspan></text><path d="M1164.21 382.027L1206.45 382.027L1206.45 424.267L1164.21 424.267Z" fill="#ebebeb"/><path d="M1164.21 403.147L1206.45 403.147" fill="none" stroke="#404040" stroke-width="14.413"/><text fill="#4d4d4d" transform="translate(1212.317 335.864)"><tspan x="0" y="22" textLength="89.581" lengthAdjust="spacingAndGlyphs">200000</tspan></text><text fill="#4d4d4d" transform="translate(1212.317 388.77)"><tspan x="0" y="22" textLength="89.581" lengthAdjust="spacingAndGlyphs">300000</tspan></text></svg>