<svg xmlns="http://www.w3.org/2000/svg" width="1344" height="960" viewBox="0 0 1344 960" font-family="sans-serif" font-size="23.467" xml:space="preserve" style="isolation:isolate;white-space:pre"><defs><clipPath id="p1f522a38-1ec9-4ac0-8e8c-9025de717341-c0" clipPathUnits="userSpaceOnUse"><path d="M91.873 14.667L1329.333 14.667L1329.333 869.827L91.873 869.827Z"/></clipPath></defs><rect width="1344" height="960" fill="#ffffff"/><path d="M0 0L1344 0L1344 960L0 960Z" fill="#ffffff"/><path d="M91.873 14.667L1329.333 14.667L1329.333 869.827L91.873 869.827Z" fill="#ebebeb"/><g clip-path="url(#p1f522a38-1ec9-4ac0-8e8c-9025de717341-c0)" style="isolation:isolate"><path d="M106.456 14.667L106.456 869.827" fill="none" stroke="#ffffff" stroke-width="0.667"/><path d="M408.529 14.667L408.529 869.827" fill="none" stroke="#ffffff" stroke-width="0.667"/><path d="M710.603 14.667L710.603 869.827" fill="none" stroke="#ffffff" stroke-width="0.667"/><path d="M1012.677 14.667L1012.677 869.827" fill="none" stroke="#ffffff" stroke-width="0.667"/><path d="M1314.75 14.667L1314.75 869.827" fill="none" stroke="#ffffff" stroke-width="0.667"/><path d="M257.493 14.667L257.493 869.827" fill="none" stroke="#ffffff" stroke-width="1.333"/><path d="M559.566 14.667L559.566 869.827" fill="none" stroke="#ffffff" stroke-width="1.333"/><path d="M861.64 14.667L861.64 869.827" fill="none" stroke="#ffffff" stroke-width="1.333"/><path d="M1163.714 14.667L1163.714 869.827" fill="none" stroke="#ffffff" stroke-width="1.333"/><path d="M91.873 692.132L1329.333 692.132" fill="none" stroke="#ffffff" stroke-width="0.667"/><path d="M91.873 414.482L1329.333 414.482" fill="none" stroke="#ffffff" stroke-width="0.667"/><path d="M91.873 136.832L1329.333 136.832" fill="none" stroke="#ffffff" stroke-width="0.667"/><path d="M91.873 830.957L1329.333 830.957" fill="none" stroke="#ffffff" stroke-width="1.333"/><path d="M91.873 553.307L1329.333 553.307" fill="none" stroke="#ffffff" stroke-width="1.333"/><path d="M91.873 275.657L1329.333 275.657" fill="none" stroke="#ffffff" stroke-width="1.333"/></g><g clip-path="url(#p1f522a38-1ec9-4ac0-8e8c-9025de717341-c0)" style="isolation:isolate"><path d="M148.121 747.662L185.62 747.662L185.62 830.957L148.121 830.957Z" fill="#000000" fill-opacity="0.8" stroke="#000000" stroke-width="2.667"/><path d="M185.62 775.427L223.119 775.427L223.119 830.957L185.62 830.957Z" fill="#000000" fill-opacity="0.8" stroke="#000000" stroke-width="2.667"/><path d="M223.119 608.837L260.618 608.837L260.618 830.957L223.119 830.957Z" fill="#000000" fill-opacity="0.8" stroke="#000000" stroke-width="2.667"/><path d="M260.618 664.367L298.116 664.367L298.116 830.957L260.618 830.957Z" fill="#000000" fill-opacity="0.8" stroke="#000000" stroke-width="2.667"/><path d="M298.116 386.717L335.615 386.717L335.615 830.957L298.116 830.957Z" fill="#000000" fill-opacity="0.8" stroke="#000000" stroke-width="2.667"/><path d="M335.615 358.952L373.114 358.952L373.114 830.957L335.615 830.957Z" fill="#000000" fill-opacity="0.8" stroke="#000000" stroke-width="2.667"/><path d="M373.114 53.538L410.613 53.538L410.613 830.957L373.114 830.957Z" fill="#000000" fill-opacity="0.8" stroke="#000000" stroke-width="2.667"/><path d="M410.613 275.657L448.112 275.657L448.112 830.957L410.613 830.957Z" fill="#000000" fill-opacity="0.8" stroke="#000000" stroke-width="2.667"/><path d="M448.112 81.303L485.61 81.303L485.61 830.957L448.112 830.957Z" fill="#000000" fill-opacity="0.8" stroke="#000000" stroke-width="2.667"/><path d="M485.61 303.422L523.109 303.422L523.109 830.957L485.61 830.957Z" fill="#000000" fill-opacity="0.8" stroke="#000000" stroke-width="2.667"/><path d="M523.109 109.068L560.608 109.068L560.608 830.957L523.109 830.957Z" fill="#000000" fill-opacity="0.8" stroke="#000000" stroke-width="2.667"/><path d="M560.608 497.777L598.107 497.777L598.107 830.957L560.608 830.957Z" fill="#000000" fill-opacity="0.8" stroke="#000000" stroke-width="2.667"/><path d="M598.107 386.717L635.606 386.717L635.606 830.957L598.107 830.957Z" fill="#000000" fill-opacity="0.8" stroke="#000000" stroke-width="2.667"/><path d="M635.606 497.777L673.104 497.777L673.104 830.957L635.606 830.957Z" fill="#000000" fill-opacity="0.8" stroke="#000000" stroke-width="2.667"/><path d="M673.104 358.952L710.603 358.952L710.603 830.957L673.104 830.957Z" fill="#000000" fill-opacity="0.8" stroke="#000000" stroke-width="2.667"/><path d="M710.603 608.837L748.102 608.837L748.102 830.957L710.603 830.957Z" fill="#000000" fill-opacity="0.8" stroke="#000000" stroke-width="2.667"/><path d="M748.102 358.952L785.601 358.952L785.601 830.957L748.102 830.957Z" fill="#000000" fill-opacity="0.8" stroke="#000000" stroke-width="2.667"/><path d="M785.601 470.012L823.1 470.012L823.1 830.957L785.601 830.957Z" fill="#000000" fill-opacity="0.8" stroke="#000000" stroke-width="2.667"/><path d="M823.1 553.307L860.598 553.307L860.598 830.957L823.1 830.957Z" fill="#000000" fill-opacity="0.8" stroke="#000000" stroke-width="2.667"/><path d="M860.598 497.777L898.097 497.777L898.097 830.957L860.598 830.957Z" fill="#000000" fill-opacity="0.8" stroke="#000000" stroke-width="2.667"/><path d="M898.097 664.367L935.596 664.367L935.596 830.957L898.097 830.957Z" fill="#000000" fill-opacity="0.8" stroke="#000000" stroke-width="2.667"/><path d="M935.596 553.307L973.095 553.307L973.095 830.957L935.596 830.957Z" fill="#000000" fill-opacity="0.8" stroke="#000000" stroke-width="2.667"/><path d="M973.095 664.367L1010.594 664.367L1010.594 830.957L973.095 830.957Z" fill="#000000" fill-opacity="0.8" stroke="#000000" stroke-width="2.667"/><path d="M1010.594 470.012L1048.092 470.012L1048.092 830.957L1010.594 830.957Z" fill="#000000" fill-opacity="0.8" stroke="#000000" stroke-width="2.667"/><path d="M1048.092 608.837L1085.591 608.837L1085.591 830.957L1048.092 830.957Z" fill="#000000" fill-opacity="0.8" stroke="#000000" stroke-width="2.667"/><path d="M1085.591 664.367L1123.09 664.367L1123.09 830.957L1085.591 830.957Z" fill="#000000" fill-opacity="0.8" stroke="#000000" stroke-width="2.667"/><path d="M1123.09 775.427L1160.589 775.427L1160.589 830.957L1123.09 830.957Z" fill="#000000" fill-opacity="0.8" stroke="#000000" stroke-width="2.667"/><path d="M1160.589 747.662L1198.088 747.662L1198.088 830.957L1160.589 830.957Z" fill="#000000" fill-opacity="0.8" stroke="#000000" stroke-width="2.667"/><path d="M1235.586 803.192L1273.085 803.192L1273.085 830.957L1235.586 830.957Z" fill="#000000" fill-opacity="0.8" stroke="#000000" stroke-width="2.667"/></g><path d="M106.456 869.827L106.456 873.494" fill="none" stroke="#333333" stroke-width="2.667"/><path d="M408.529 869.827L408.529 873.494" fill="none" stroke="#333333" stroke-width="2.667"/><path d="M710.603 869.827L710.603 873.494" fill="none" stroke="#333333" stroke-width="2.667"/><path d="M1012.677 869.827L1012.677 873.494" fill="none" stroke="#333333" stroke-width="2.667"/><path d="M1314.75 869.827L1314.75 873.494" fill="none" stroke="#333333" stroke-width="2.667"/><path d="M257.493 869.827L257.493 877.161" fill="none" stroke="#333333" stroke-width="2.667"/><path d="M559.566 869.827L559.566 877.161" fill="none" stroke="#333333" stroke-width="2.667"/><text fill="#4d4d4d" transform="translate(227.632 876.275)"><tspan x="0" y="22" textLength="59.721" lengthAdjust="spacingAndGlyphs">3000</tspan></text><path d="M861.64 869.827L861.64 877.161" fill="none" stroke="#333333" stroke-width="2.667"/><text fill="#4d4d4d" transform="translate(529.706 876.275)"><tspan x="0" y="22" textLength="59.721" lengthAdjust="spacingAndGlyphs">4000</tspan></text><path d="M1163.714 869.827L1163.714 877.161" fill="none" stroke="#333333" stroke-width="2.667"/><text fill="#4d4d4d" transform="translate(831.78 876.275)"><tspan x="0" y="22" textLength="59.721" lengthAdjust="spacingAndGlyphs">5000</tspan></text><path d="M91.873 692.132L88.206 692.132" fill="none" stroke="#333333" stroke-width="2.667"/><path d="M91.873 414.482L88.206 414.482" fill="none" stroke="#333333" stroke-width="2.667"/><path d="M91.873 136.832L88.206 136.832" fill="none" stroke="#333333" stroke-width="2.667"/><path d="M91.873 830.957L84.54 830.957" fill="none" stroke="#333333" stroke-width="2.667"/><text fill="#4d4d4d" transform="translate(1133.853 876.275)"><tspan x="0" y="22" textLength="59.721" lengthAdjust="spacingAndGlyphs">6000</tspan></text><path d="M91.873 553.307L84.54 553.307" fill="none" stroke="#333333" stroke-width="2.667"/><text fill="#4d4d4d" transform="translate(63.743 816.58)"><tspan x="0" y="22" textLength="14.93" lengthAdjust="spacingAndGlyphs">0</tspan></text><path d="M91.873 275.657L84.54 275.657" fill="none" stroke="#333333" stroke-width="2.667"/><text fill="#4d4d4d" transform="translate(48.813 538.931)"><tspan x="0" y="22" textLength="29.86" lengthAdjust="spacingAndGlyphs">10</tspan></text><text fill="#4d4d4d" transform="translate(48.813 261.281)"><tspan x="0" y="22" textLength="29.86" lengthAdjust="spacingAndGlyphs">20</tspan></text><text font-size="29.333" fill="#000000" transform="translate(91.873 911.187)"><tspan x="536.567" y="27" textLength="164.327" lengthAdjust="spacingAndGlyphs">body_mass</tspan></text><text font-size="29.333" fill="#000000" transform="matrix(0 -1 1 0 14.14 483.626)"><tspan x="0" y="27" textLength="82.758" lengthAdjust="spacingAndGlyphs">count</tspan></text></svg>