<svg xmlns="http://www.w3.org/2000/svg" width="1344" height="960" viewBox="0 0 1344 960" font-family="sans-serif" font-size="23.467" xml:space="preserve" style="isolation:isolate;white-space:pre"><defs><clipPath id="p5118c036-bfe5-4a65-9a36-bf71c9f940eb-c0" clipPathUnits="userSpaceOnUse"><path d="M106.803 14.667L1329.333 14.667L1329.333 869.827L106.803 869.827Z"/></clipPath></defs><rect width="1344" height="960" fill="#ffffff"/><path d="M0 0L1344 0L1344 960L0 960Z" fill="#ffffff"/><path d="M106.803 14.667L1329.333 14.667L1329.333 869.827L106.803 869.827Z" fill="#ebebeb"/><g clip-path="url(#p5118c036-bfe5-4a65-9a36-bf71c9f940eb-c0)" style="isolation:isolate"><path d="M162.373 14.667L162.373 869.827" fill="none" stroke="#ffffff" stroke-width="1.333"/><path d="M384.651 14.667L384.651 869.827" fill="none" stroke="#ffffff" stroke-width="1.333"/><path d="M606.929 14.667L606.929 869.827" fill="none" stroke="#ffffff" stroke-width="1.333"/><path d="M829.207 14.667L829.207 869.827" fill="none" stroke="#ffffff" stroke-width="1.333"/><path d="M1051.486 14.667L1051.486 869.827" fill="none" stroke="#ffffff" stroke-width="1.333"/><path d="M1273.764 14.667L1273.764 869.827" fill="none" stroke="#ffffff" stroke-width="1.333"/><path d="M106.803 706.37L1329.333 706.37" fill="none" stroke="#ffffff" stroke-width="0.667"/><path d="M106.803 457.197L1329.333 457.197" fill="none" stroke="#ffffff" stroke-width="0.667"/><path d="M106.803 208.025L1329.333 208.025" fill="none" stroke="#ffffff" stroke-width="0.667"/><path d="M106.803 830.957L1329.333 830.957" fill="none" stroke="#ffffff" stroke-width="1.333"/><path d="M106.803 581.784L1329.333 581.784" fill="none" stroke="#ffffff" stroke-width="1.333"/><path d="M106.803 332.611L1329.333 332.611" fill="none" stroke="#ffffff" stroke-width="1.333"/><path d="M106.803 83.438L1329.333 83.438" fill="none" stroke="#ffffff" stroke-width="1.333"/></g><g clip-path="url(#p5118c036-bfe5-4a65-9a36-bf71c9f940eb-c0)" style="isolation:isolate"><path d="M173.487 786.105L373.537 786.105L373.537 830.957L173.487 830.957Z" fill="#000000" fill-opacity="0.8" stroke="#000000" stroke-width="2.667"/><path d="M395.765 53.538L595.815 53.538L595.815 830.957L395.765 830.957Z" fill="#000000" fill-opacity="0.8" stroke="#000000" stroke-width="2.667"/><path d="M618.043 282.777L818.093 282.777L818.093 830.957L618.043 830.957Z" fill="#000000" fill-opacity="0.8" stroke="#000000" stroke-width="2.667"/><path d="M840.321 516.999L1040.372 516.999L1040.372 830.957L840.321 830.957Z" fill="#000000" fill-opacity="0.8" stroke="#000000" stroke-width="2.667"/><path d="M1062.599 811.023L1262.65 811.023L1262.65 830.957L1062.599 830.957Z" fill="#000000" fill-opacity="0.8" stroke="#000000" stroke-width="2.667"/></g><path d="M162.373 869.827L162.373 877.161" fill="none" stroke="#333333" stroke-width="2.667"/><path d="M384.651 869.827L384.651 877.161" fill="none" stroke="#333333" stroke-width="2.667"/><text fill="#4d4d4d" transform="translate(132.512 876.275)"><tspan x="0" y="22" textLength="59.721" lengthAdjust="spacingAndGlyphs">2000</tspan></text><path d="M606.929 869.827L606.929 877.161" fill="none" stroke="#333333" stroke-width="2.667"/><text fill="#4d4d4d" transform="translate(354.79 876.275)"><tspan x="0" y="22" textLength="59.721" lengthAdjust="spacingAndGlyphs">3000</tspan></text><path d="M829.207 869.827L829.207 877.161" fill="none" stroke="#333333" stroke-width="2.667"/><text fill="#4d4d4d" transform="translate(577.069 876.275)"><tspan x="0" y="22" textLength="59.721" lengthAdjust="spacingAndGlyphs">4000</tspan></text><path d="M1051.486 869.827L1051.486 877.161" fill="none" stroke="#333333" stroke-width="2.667"/><text fill="#4d4d4d" transform="translate(799.347 876.275)"><tspan x="0" y="22" textLength="59.721" lengthAdjust="spacingAndGlyphs">5000</tspan></text><path d="M1273.764 869.827L1273.764 877.161" fill="none" stroke="#333333" stroke-width="2.667"/><text fill="#4d4d4d" transform="translate(1021.625 876.275)"><tspan x="0" y="22" textLength="59.721" lengthAdjust="spacingAndGlyphs">6000</tspan></text><path d="M106.803 706.37L103.136 706.37" fill="none" stroke="#333333" stroke-width="2.667"/><path d="M106.803 457.197L103.136 457.197" fill="none" stroke="#333333" stroke-width="2.667"/><path d="M106.803 208.025L103.136 208.025" fill="none" stroke="#333333" stroke-width="2.667"/><path d="M106.803 830.957L99.47 830.957" fill="none" stroke="#333333" stroke-width="2.667"/><text fill="#4d4d4d" transform="translate(1243.903 876.275)"><tspan x="0" y="22" textLength="59.721" lengthAdjust="spacingAndGlyphs">7000</tspan></text><path d="M106.803 581.784L99.47 581.784" fill="none" stroke="#333333" stroke-width="2.667"/><text fill="#4d4d4d" transform="translate(78.673 816.58)"><tspan x="0" y="22" textLength="14.93" lengthAdjust="spacingAndGlyphs">0</tspan></text><path d="M106.803 332.611L99.47 332.611" fill="none" stroke="#333333" stroke-width="2.667"/><text fill="#4d4d4d" transform="translate(63.743 567.408)"><tspan x="0" y="22" textLength="29.86" lengthAdjust="spacingAndGlyphs">50</tspan></text><path d="M106.803 83.438L99.47 83.438" fill="none" stroke="#333333" stroke-width="2.667"/><text fill="#4d4d4d" transform="translate(48.813 318.235)"><tspan x="0" y="22" textLength="44.791" lengthAdjust="spacingAndGlyphs">100</tspan></text><text fill="#4d4d4d" transform="translate(48.813 69.062)"><tspan x="0" y="22" textLength="44.791" lengthAdjust="spacingAndGlyphs">150</tspan></text><text font-size="29.333" fill="#000000" transform="translate(106.803 911.187)"><tspan x="529.102" y="27" textLength="164.327" lengthAdjust="spacingAndGlyphs">body_mass</tspan></text><text font-size="29.333" fill="#000000" transform="matrix(0 -1 1 0 14.14 483.626)"><tspan x="0" y="27" textLength="82.758" lengthAdjust="spacingAndGlyphs">count</tspan></text></svg>