<svg xmlns="http://www.w3.org/2000/svg" width="838" height="60">
  <rect x="0" y="0" width="40" height="60" fill="#F3C300" rx="3" ry="3"/>
  <rect x="42" y="0" width="40" height="60" fill="#875692" rx="3" ry="3"/>
  <rect x="84" y="0" width="40" height="60" fill="#F38400" rx="3" ry="3"/>
  <rect x="126" y="0" width="40" height="60" fill="#A1CAF1" rx="3" ry="3"/>
  <rect x="168" y="0" width="40" height="60" fill="#BE0032" rx="3" ry="3"/>
  <rect x="210" y="0" width="40" height="60" fill="#C2B280" rx="3" ry="3"/>
  <rect x="252" y="0" width="40" height="60" fill="#848482" rx="3" ry="3"/>
  <rect x="294" y="0" width="40" height="60" fill="#008856" rx="3" ry="3"/>
  <rect x="336" y="0" width="40" height="60" fill="#E68FAC" rx="3" ry="3"/>
  <rect x="378" y="0" width="40" height="60" fill="#0067A5" rx="3" ry="3"/>
  <rect x="420" y="0" width="40" height="60" fill="#F99379" rx="3" ry="3"/>
  <rect x="462" y="0" width="40" height="60" fill="#604E97" rx="3" ry="3"/>
  <rect x="504" y="0" width="40" height="60" fill="#F6A600" rx="3" ry="3"/>
  <rect x="546" y="0" width="40" height="60" fill="#B3446C" rx="3" ry="3"/>
  <rect x="588" y="0" width="40" height="60" fill="#DCD300" rx="3" ry="3"/>
  <rect x="630" y="0" width="40" height="60" fill="#882D17" rx="3" ry="3"/>
  <rect x="672" y="0" width="40" height="60" fill="#8DB600" rx="3" ry="3"/>
  <rect x="714" y="0" width="40" height="60" fill="#654522" rx="3" ry="3"/>
  <rect x="756" y="0" width="40" height="60" fill="#E25822" rx="3" ry="3"/>
  <rect x="798" y="0" width="40" height="60" fill="#2B3D26" rx="3" ry="3"/>
</svg>
