<svg xmlns="http://www.w3.org/2000/svg" xmlns:xlink="http://www.w3.org/1999/xlink" version="1.1" class="marks" width="761" height="400" viewBox="0 0 761 400"><rect width="761" height="400" fill="white"/><g fill="none" stroke-miterlimit="10" transform="translate(60,5)"><g class="mark-group role-frame root" role="graphics-object" aria-roledescription="group mark container"><g transform="translate(0,0)"><path class="background" aria-hidden="true" d="M0,0h610v348h-610Z" fill="#EBEBEB"/><g><g class="mark-group role-axis" aria-hidden="true"><g transform="translate(0.5,348.5)"><path class="background" aria-hidden="true" d="M0,0h0v0h0Z" pointer-events="none"/><g><g class="mark-rule role-axis-grid" pointer-events="none"><line transform="translate(55,-348)" x2="0" y2="348" stroke="#FFFFFF" stroke-width="1" opacity="1"/><line transform="translate(213,-348)" x2="0" y2="348" stroke="#FFFFFF" stroke-width="1" opacity="1"/><line transform="translate(370,-348)" x2="0" y2="348" stroke="#FFFFFF" stroke-width="1" opacity="1"/><line transform="translate(528,-348)" x2="0" y2="348" stroke="#FFFFFF" stroke-width="1" opacity="1"/></g></g><path class="foreground" aria-hidden="true" d="" pointer-events="none" display="none"/></g></g><g class="mark-group role-axis" aria-hidden="true"><g transform="translate(0.5,0.5)"><path class="background" aria-hidden="true" d="M0,0h0v0h0Z" pointer-events="none"/><g><g class="mark-rule role-axis-grid" pointer-events="none"><line transform="translate(0,332)" x2="610" y2="0" stroke="#FFFFFF" stroke-width="1" opacity="1"/><line transform="translate(0,211)" x2="610" y2="0" stroke="#FFFFFF" stroke-width="1" opacity="1"/><line transform="translate(0,89)" x2="610" y2="0" stroke="#FFFFFF" stroke-width="1" opacity="1"/></g></g><path class="foreground" aria-hidden="true" d="" pointer-events="none" display="none"/></g></g><g class="mark-group role-axis" role="graphics-symbol" aria-roledescription="axis" aria-label="X-axis titled 'bill_len' for a linear scale with values from 26 to 65"><g transform="translate(0.5,348.5)"><path class="background" aria-hidden="true" d="M0,0h0v0h0Z" pointer-events="none"/><g><g class="mark-rule role-axis-tick" pointer-events="none"><line transform="translate(55,0)" x2="0" y2="4" stroke="#333333" stroke-width="1" opacity="1"/><line transform="translate(213,0)" x2="0" y2="4" stroke="#333333" stroke-width="1" opacity="1"/><line transform="translate(370,0)" x2="0" y2="4" stroke="#333333" stroke-width="1" opacity="1"/><line transform="translate(528,0)" x2="0" y2="4" stroke="#333333" stroke-width="1" opacity="1"/></g><g class="mark-text role-axis-label" pointer-events="none"><text text-anchor="middle" transform="translate(55.27611529917705,15)" font-family="sans-serif" font-size="12px" fill="#4D4D4D" opacity="1">30</text><text text-anchor="middle" transform="translate(212.83061668770887,15)" font-family="sans-serif" font-size="12px" fill="#4D4D4D" opacity="1">40</text><text text-anchor="middle" transform="translate(370.3851180762407,15)" font-family="sans-serif" font-size="12px" fill="#4D4D4D" opacity="1">50</text><text text-anchor="middle" transform="translate(527.9396194647725,15)" font-family="sans-serif" font-size="12px" fill="#4D4D4D" opacity="1">60</text></g><g class="mark-text role-axis-title" pointer-events="none"><text text-anchor="middle" transform="translate(305,39)" font-family="sans-serif" font-size="15px" font-weight="normal" fill="#000000" opacity="1">bill_len</text></g></g><path class="foreground" aria-hidden="true" d="" pointer-events="none" display="none"/></g></g><g class="mark-group role-axis" role="graphics-symbol" aria-roledescription="axis" aria-label="Y-axis titled 'density' for a linear scale with values from −0.01 to 0.14"><g transform="translate(0.5,0.5)"><path class="background" aria-hidden="true" d="M0,0h0v0h0Z" pointer-events="none"/><g><g class="mark-rule role-axis-tick" pointer-events="none"><line transform="translate(0,332)" x2="-4" y2="0" stroke="#333333" stroke-width="1" opacity="1"/><line transform="translate(0,211)" x2="-4" y2="0" stroke="#333333" stroke-width="1" opacity="1"/><line transform="translate(0,89)" x2="-4" y2="0" stroke="#333333" stroke-width="1" opacity="1"/></g><g class="mark-text role-axis-label" pointer-events="none"><text text-anchor="end" transform="translate(-6,336.1818181818182)" font-family="sans-serif" font-size="12px" fill="#4D4D4D" opacity="1">0.00</text><text text-anchor="end" transform="translate(-6,214.55985449290557)" font-family="sans-serif" font-size="12px" fill="#4D4D4D" opacity="1">0.05</text><text text-anchor="end" transform="translate(-6,92.93789080399296)" font-family="sans-serif" font-size="12px" fill="#4D4D4D" opacity="1">0.10</text></g><g class="mark-text role-axis-title" pointer-events="none"><text text-anchor="middle" transform="translate(-39.35546875,174) rotate(-90) translate(0,-3)" font-family="sans-serif" font-size="15px" font-weight="normal" fill="#000000" opacity="1">density</text></g></g><path class="foreground" aria-hidden="true" d="" pointer-events="none" display="none"/></g></g><g class="mark-group role-scope layer_0_pathgroup" role="graphics-object" aria-roledescription="group mark container"><g transform="translate(0,0)"><path class="background" aria-hidden="true" d="M0,0h610v348h-610Z"/><g><g class="mark-area role-mark layer_0_marks" clip-path="url(#clip1)" role="graphics-object" aria-roledescription="area mark container"><path aria-label="bill_len: 28.2514721998; density: 1.94411034167e-7; species: Adelie" role="graphics-symbol" aria-roledescription="area mark" d="M27.727,332.181L28.812,332.181L29.898,332.181L30.983,332.181L32.068,332.18L33.153,332.179L34.239,332.178L35.324,332.177L36.409,332.176L37.494,332.174L38.579,332.171L39.665,332.167L40.75,332.163L41.835,332.157L42.92,332.149L44.006,332.139L45.091,332.127L46.176,332.112L47.261,332.093L48.346,332.07L49.432,332.041L50.517,332.007L51.602,331.964L52.687,331.914L53.772,331.853L54.858,331.782L55.943,331.697L57.028,331.598L58.113,331.483L59.199,331.35L60.284,331.197L61.369,331.022L62.454,330.824L63.539,330.601L64.625,330.351L65.71,330.073L66.795,329.765L67.88,329.427L68.965,329.057L70.051,328.655L71.136,328.22L72.221,327.752L73.306,327.251L74.392,326.718L75.477,326.152L76.562,325.553L77.647,324.924L78.732,324.263L79.818,323.57L80.903,322.847L81.988,322.092L83.073,321.306L84.159,320.486L85.244,319.631L86.329,318.739L87.414,317.808L88.499,316.833L89.585,315.811L90.67,314.737L91.755,313.606L92.84,312.412L93.925,311.15L95.011,309.813L96.096,308.393L97.181,306.885L98.266,305.281L99.352,303.575L100.437,301.758L101.522,299.826L102.607,297.771L103.692,295.587L104.778,293.27L105.863,290.812L106.948,288.211L108.033,285.462L109.118,282.561L110.204,279.504L111.289,276.291L112.374,272.917L113.459,269.382L114.545,265.685L115.63,261.824L116.715,257.8L117.8,253.611L118.885,249.26L119.971,244.747L121.056,240.074L122.141,235.242L123.226,230.256L124.312,225.119L125.397,219.836L126.482,214.412L127.567,208.857L128.652,203.178L129.738,197.387L130.823,191.494L131.908,185.515L132.993,179.465L134.078,173.361L135.164,167.222L136.249,161.068L137.334,154.922L138.419,148.804L139.505,142.739L140.59,136.747L141.675,130.852L142.76,125.073L143.845,119.431L144.931,113.944L146.016,108.625L147.101,103.487L148.186,98.54L149.271,93.788L150.357,89.235L151.442,84.88L152.527,80.719L153.612,76.745L154.698,72.95L155.783,69.322L156.868,65.85L157.953,62.521L159.038,59.323L160.124,56.245L161.209,53.274L162.294,50.404L163.379,47.627L164.465,44.938L165.55,42.337L166.635,39.824L167.72,37.402L168.805,35.077L169.891,32.855L170.976,30.744L172.061,28.753L173.146,26.891L174.231,25.166L175.317,23.584L176.402,22.152L177.487,20.873L178.572,19.748L179.658,18.778L180.743,17.958L181.828,17.285L182.913,16.75L183.998,16.346L185.084,16.063L186.169,15.891L187.254,15.818L188.339,15.835L189.424,15.931L190.51,16.096L191.595,16.324L192.68,16.606L193.765,16.936L194.851,17.311L195.936,17.726L197.021,18.178L198.106,18.665L199.191,19.185L200.277,19.737L201.362,20.319L202.447,20.93L203.532,21.568L204.618,22.233L205.703,22.922L206.788,23.636L207.873,24.375L208.958,25.14L210.044,25.934L211.129,26.763L212.214,27.633L213.299,28.555L214.384,29.541L215.47,30.605L216.555,31.768L217.64,33.047L218.725,34.467L219.811,36.051L220.896,37.823L221.981,39.809L223.066,42.034L224.151,44.519L225.237,47.287L226.322,50.352L227.407,53.731L228.492,57.431L229.577,61.457L230.663,65.807L231.748,70.477L232.833,75.453L233.918,80.722L235.004,86.26L236.089,92.045L237.174,98.047L238.259,104.237L239.344,110.584L240.43,117.053L241.515,123.612L242.6,130.23L243.685,136.876L244.771,143.52L245.856,150.138L246.941,156.705L248.026,163.202L249.111,169.61L250.197,175.917L251.282,182.109L252.367,188.179L253.452,194.12L254.537,199.927L255.623,205.597L256.708,211.128L257.793,216.519L258.878,221.77L259.964,226.881L261.049,231.85L262.134,236.676L263.219,241.36L264.304,245.899L265.39,250.291L266.475,254.533L267.56,258.623L268.645,262.556L269.73,266.329L270.816,269.938L271.901,273.38L272.986,276.649L274.071,279.743L275.157,282.658L276.242,285.391L277.327,287.94L278.412,290.304L279.497,292.482L280.583,294.474L281.668,296.282L282.753,297.909L283.838,299.359L284.924,300.636L286.009,301.749L287.094,302.706L288.179,303.516L289.264,304.192L290.35,304.746L291.435,305.193L292.52,305.547L293.605,305.826L294.69,306.047L295.776,306.226L296.861,306.381L297.946,306.529L299.031,306.687L300.117,306.869L301.202,307.089L302.287,307.36L303.372,307.691L304.457,308.091L305.543,308.565L306.628,309.117L307.713,309.748L308.798,310.455L309.883,311.236L310.969,312.084L312.054,312.994L313.139,313.955L314.224,314.957L315.31,315.991L316.395,317.046L317.48,318.109L318.565,319.17L319.65,320.219L320.736,321.245L321.821,322.24L322.906,323.197L323.991,324.109L325.076,324.97L326.162,325.777L327.247,326.527L328.332,327.218L329.417,327.851L330.503,328.425L331.588,328.942L332.673,329.405L333.758,329.816L334.843,330.178L335.929,330.494L337.014,330.769L338.099,331.007L339.184,331.21L340.27,331.383L341.355,331.529L342.44,331.651L343.525,331.754L344.61,331.838L345.696,331.908L346.781,331.964L347.866,332.01L348.951,332.047L350.036,332.077L351.122,332.101L352.207,332.119L353.292,332.134L354.377,332.146L355.463,332.154L356.548,332.161L357.633,332.166L358.718,332.17L359.803,332.173L360.889,332.176L361.974,332.177L363.059,332.179L364.144,332.179L365.229,332.18L366.315,332.181L367.4,332.181L368.485,332.181L369.57,332.181L370.656,332.182L371.741,332.182L372.826,332.182L373.911,332.182L374.996,332.182L376.082,332.182L377.167,332.182L378.252,332.182L379.337,332.182L380.423,332.182L381.508,332.182L382.593,332.182L383.678,332.182L384.763,332.182L385.849,332.182L386.934,332.182L388.019,332.182L389.104,332.182L390.189,332.182L391.275,332.182L392.36,332.182L393.445,332.182L394.53,332.182L395.616,332.182L396.701,332.182L397.786,332.182L398.871,332.182L399.956,332.182L401.042,332.182L402.127,332.182L403.212,332.182L404.297,332.182L405.382,332.182L406.468,332.182L407.553,332.182L408.638,332.182L409.723,332.182L410.809,332.182L411.894,332.182L412.979,332.182L414.064,332.182L415.149,332.182L416.235,332.182L417.32,332.182L418.405,332.182L419.49,332.182L420.576,332.182L421.661,332.182L422.746,332.182L423.831,332.182L424.916,332.182L426.002,332.182L427.087,332.182L428.172,332.182L429.257,332.182L430.342,332.182L431.428,332.182L432.513,332.182L433.598,332.182L434.683,332.182L435.769,332.182L436.854,332.182L437.939,332.182L439.024,332.182L440.109,332.182L441.195,332.182L442.28,332.182L443.365,332.182L444.45,332.182L445.535,332.182L446.621,332.182L447.706,332.182L448.791,332.182L449.876,332.182L450.962,332.182L452.047,332.182L453.132,332.182L454.217,332.182L455.302,332.182L456.388,332.182L457.473,332.182L458.558,332.182L459.643,332.182L460.729,332.182L461.814,332.182L462.899,332.182L463.984,332.182L465.069,332.182L466.155,332.182L467.24,332.182L468.325,332.182L469.41,332.182L470.495,332.182L471.581,332.182L472.666,332.182L473.751,332.182L474.836,332.182L475.922,332.182L477.007,332.182L478.092,332.182L479.177,332.182L480.262,332.182L481.348,332.182L482.433,332.182L483.518,332.182L484.603,332.182L485.688,332.182L486.774,332.182L487.859,332.182L488.944,332.182L490.029,332.182L491.115,332.182L492.2,332.182L493.285,332.182L494.37,332.182L495.455,332.182L496.541,332.182L497.626,332.182L498.711,332.182L499.796,332.182L500.882,332.182L501.967,332.182L503.052,332.182L504.137,332.182L505.222,332.182L506.308,332.182L507.393,332.182L508.478,332.182L509.563,332.182L510.648,332.182L511.734,332.182L512.819,332.182L513.904,332.182L514.989,332.182L516.075,332.182L517.16,332.182L518.245,332.182L519.33,332.182L520.415,332.182L521.501,332.182L522.586,332.182L523.671,332.182L524.756,332.182L525.841,332.182L526.927,332.182L528.012,332.182L529.097,332.182L530.182,332.182L531.268,332.182L532.353,332.182L533.438,332.182L534.523,332.182L535.608,332.182L536.694,332.182L537.779,332.182L538.864,332.182L539.949,332.182L541.035,332.182L542.12,332.182L543.205,332.182L544.29,332.182L545.375,332.182L546.461,332.182L547.546,332.182L548.631,332.182L549.716,332.182L550.801,332.182L551.887,332.182L552.972,332.182L554.057,332.182L555.142,332.182L556.228,332.182L557.313,332.182L558.398,332.182L559.483,332.182L560.568,332.182L561.654,332.182L562.739,332.182L563.824,332.182L564.909,332.182L565.994,332.182L567.08,332.182L568.165,332.182L569.25,332.182L570.335,332.182L571.421,332.182L572.506,332.182L573.591,332.182L574.676,332.182L575.761,332.182L576.847,332.182L577.932,332.182L579.017,332.182L580.102,332.182L581.188,332.182L582.273,332.182L582.273,332.182L581.188,332.182L580.102,332.182L579.017,332.182L577.932,332.182L576.847,332.182L575.761,332.182L574.676,332.182L573.591,332.182L572.506,332.182L571.421,332.182L570.335,332.182L569.25,332.182L568.165,332.182L567.08,332.182L565.994,332.182L564.909,332.182L563.824,332.182L562.739,332.182L561.654,332.182L560.568,332.182L559.483,332.182L558.398,332.182L557.313,332.182L556.228,332.182L555.142,332.182L554.057,332.182L552.972,332.182L551.887,332.182L550.801,332.182L549.716,332.182L548.631,332.182L547.546,332.182L546.461,332.182L545.375,332.182L544.29,332.182L543.205,332.182L542.12,332.182L541.035,332.182L539.949,332.182L538.864,332.182L537.779,332.182L536.694,332.182L535.608,332.182L534.523,332.182L533.438,332.182L532.353,332.182L531.268,332.182L530.182,332.182L529.097,332.182L528.012,332.182L526.927,332.182L525.841,332.182L524.756,332.182L523.671,332.182L522.586,332.182L521.501,332.182L520.415,332.182L519.33,332.182L518.245,332.182L517.16,332.182L516.075,332.182L514.989,332.182L513.904,332.182L512.819,332.182L511.734,332.182L510.648,332.182L509.563,332.182L508.478,332.182L507.393,332.182L506.308,332.182L505.222,332.182L504.137,332.182L503.052,332.182L501.967,332.182L500.882,332.182L499.796,332.182L498.711,332.182L497.626,332.182L496.541,332.182L495.455,332.182L494.37,332.182L493.285,332.182L492.2,332.182L491.115,332.182L490.029,332.182L488.944,332.182L487.859,332.182L486.774,332.182L485.688,332.182L484.603,332.182L483.518,332.182L482.433,332.182L481.348,332.182L480.262,332.182L479.177,332.182L478.092,332.182L477.007,332.182L475.922,332.182L474.836,332.182L473.751,332.182L472.666,332.182L471.581,332.182L470.495,332.182L469.41,332.182L468.325,332.182L467.24,332.182L466.155,332.182L465.069,332.182L463.984,332.182L462.899,332.182L461.814,332.182L460.729,332.182L459.643,332.182L458.558,332.182L457.473,332.182L456.388,332.182L455.302,332.182L454.217,332.182L453.132,332.182L452.047,332.182L450.962,332.182L449.876,332.182L448.791,332.182L447.706,332.182L446.621,332.182L445.535,332.182L444.45,332.182L443.365,332.182L442.28,332.182L441.195,332.182L440.109,332.182L439.024,332.182L437.939,332.182L436.854,332.182L435.769,332.182L434.683,332.182L433.598,332.182L432.513,332.182L431.428,332.182L430.342,332.182L429.257,332.182L428.172,332.182L427.087,332.182L426.002,332.182L424.916,332.182L423.831,332.182L422.746,332.182L421.661,332.182L420.576,332.182L419.49,332.182L418.405,332.182L417.32,332.182L416.235,332.182L415.149,332.182L414.064,332.182L412.979,332.182L411.894,332.182L410.809,332.182L409.723,332.182L408.638,332.182L407.553,332.182L406.468,332.182L405.382,332.182L404.297,332.182L403.212,332.182L402.127,332.182L401.042,332.182L399.956,332.182L398.871,332.182L397.786,332.182L396.701,332.182L395.616,332.182L394.53,332.182L393.445,332.182L392.36,332.182L391.275,332.182L390.189,332.182L389.104,332.182L388.019,332.182L386.934,332.182L385.849,332.182L384.763,332.182L383.678,332.182L382.593,332.182L381.508,332.182L380.423,332.182L379.337,332.182L378.252,332.182L377.167,332.182L376.082,332.182L374.996,332.182L373.911,332.182L372.826,332.182L371.741,332.182L370.656,332.182L369.57,332.182L368.485,332.182L367.4,332.182L366.315,332.182L365.229,332.182L364.144,332.182L363.059,332.182L361.974,332.182L360.889,332.182L359.803,332.182L358.718,332.182L357.633,332.182L356.548,332.182L355.463,332.182L354.377,332.182L353.292,332.182L352.207,332.182L351.122,332.182L350.036,332.182L348.951,332.182L347.866,332.182L346.781,332.182L345.696,332.182L344.61,332.182L343.525,332.182L342.44,332.182L341.355,332.182L340.27,332.182L339.184,332.182L338.099,332.182L337.014,332.182L335.929,332.182L334.843,332.182L333.758,332.182L332.673,332.182L331.588,332.182L330.503,332.182L329.417,332.182L328.332,332.182L327.247,332.182L326.162,332.182L325.076,332.182L323.991,332.182L322.906,332.182L321.821,332.182L320.736,332.182L319.65,332.182L318.565,332.182L317.48,332.182L316.395,332.182L315.31,332.182L314.224,332.182L313.139,332.182L312.054,332.182L310.969,332.182L309.883,332.182L308.798,332.182L307.713,332.182L306.628,332.182L305.543,332.182L304.457,332.182L303.372,332.182L302.287,332.182L301.202,332.182L300.117,332.182L299.031,332.182L297.946,332.182L296.861,332.182L295.776,332.182L294.69,332.182L293.605,332.182L292.52,332.182L291.435,332.182L290.35,332.182L289.264,332.182L288.179,332.182L287.094,332.182L286.009,332.182L284.924,332.182L283.838,332.182L282.753,332.182L281.668,332.182L280.583,332.182L279.497,332.182L278.412,332.182L277.327,332.182L276.242,332.182L275.157,332.182L274.071,332.182L272.986,332.182L271.901,332.182L270.816,332.182L269.73,332.182L268.645,332.182L267.56,332.182L266.475,332.182L265.39,332.182L264.304,332.182L263.219,332.182L262.134,332.182L261.049,332.182L259.964,332.182L258.878,332.182L257.793,332.182L256.708,332.182L255.623,332.182L254.537,332.182L253.452,332.182L252.367,332.182L251.282,332.182L250.197,332.182L249.111,332.182L248.026,332.182L246.941,332.182L245.856,332.182L244.771,332.182L243.685,332.182L242.6,332.182L241.515,332.182L240.43,332.182L239.344,332.182L238.259,332.182L237.174,332.182L236.089,332.182L235.004,332.182L233.918,332.182L232.833,332.182L231.748,332.182L230.663,332.182L229.577,332.182L228.492,332.182L227.407,332.182L226.322,332.182L225.237,332.182L224.151,332.182L223.066,332.182L221.981,332.182L220.896,332.182L219.811,332.182L218.725,332.182L217.64,332.182L216.555,332.182L215.47,332.182L214.384,332.182L213.299,332.182L212.214,332.182L211.129,332.182L210.044,332.182L208.958,332.182L207.873,332.182L206.788,332.182L205.703,332.182L204.618,332.182L203.532,332.182L202.447,332.182L201.362,332.182L200.277,332.182L199.191,332.182L198.106,332.182L197.021,332.182L195.936,332.182L194.851,332.182L193.765,332.182L192.68,332.182L191.595,332.182L190.51,332.182L189.424,332.182L188.339,332.182L187.254,332.182L186.169,332.182L185.084,332.182L183.998,332.182L182.913,332.182L181.828,332.182L180.743,332.182L179.658,332.182L178.572,332.182L177.487,332.182L176.402,332.182L175.317,332.182L174.231,332.182L173.146,332.182L172.061,332.182L170.976,332.182L169.891,332.182L168.805,332.182L167.72,332.182L166.635,332.182L165.55,332.182L164.465,332.182L163.379,332.182L162.294,332.182L161.209,332.182L160.124,332.182L159.038,332.182L157.953,332.182L156.868,332.182L155.783,332.182L154.698,332.182L153.612,332.182L152.527,332.182L151.442,332.182L150.357,332.182L149.271,332.182L148.186,332.182L147.101,332.182L146.016,332.182L144.931,332.182L143.845,332.182L142.76,332.182L141.675,332.182L140.59,332.182L139.505,332.182L138.419,332.182L137.334,332.182L136.249,332.182L135.164,332.182L134.078,332.182L132.993,332.182L131.908,332.182L130.823,332.182L129.738,332.182L128.652,332.182L127.567,332.182L126.482,332.182L125.397,332.182L124.312,332.182L123.226,332.182L122.141,332.182L121.056,332.182L119.971,332.182L118.885,332.182L117.8,332.182L116.715,332.182L115.63,332.182L114.545,332.182L113.459,332.182L112.374,332.182L111.289,332.182L110.204,332.182L109.118,332.182L108.033,332.182L106.948,332.182L105.863,332.182L104.778,332.182L103.692,332.182L102.607,332.182L101.522,332.182L100.437,332.182L99.352,332.182L98.266,332.182L97.181,332.182L96.096,332.182L95.011,332.182L93.925,332.182L92.84,332.182L91.755,332.182L90.67,332.182L89.585,332.182L88.499,332.182L87.414,332.182L86.329,332.182L85.244,332.182L84.159,332.182L83.073,332.182L81.988,332.182L80.903,332.182L79.818,332.182L78.732,332.182L77.647,332.182L76.562,332.182L75.477,332.182L74.392,332.182L73.306,332.182L72.221,332.182L71.136,332.182L70.051,332.182L68.965,332.182L67.88,332.182L66.795,332.182L65.71,332.182L64.625,332.182L63.539,332.182L62.454,332.182L61.369,332.182L60.284,332.182L59.199,332.182L58.113,332.182L57.028,332.182L55.943,332.182L54.858,332.182L53.772,332.182L52.687,332.182L51.602,332.182L50.517,332.182L49.432,332.182L48.346,332.182L47.261,332.182L46.176,332.182L45.091,332.182L44.006,332.182L42.92,332.182L41.835,332.182L40.75,332.182L39.665,332.182L38.579,332.182L37.494,332.182L36.409,332.182L35.324,332.182L34.239,332.182L33.153,332.182L32.068,332.182L30.983,332.182L29.898,332.182L28.812,332.182L27.727,332.182Z" fill="#0067A5" fill-opacity="0.8" stroke="#0067A5" stroke-width="1.3333333333333333"/></g></g><path class="foreground" aria-hidden="true" d="" display="none"/></g><g transform="translate(0,0)"><path class="background" aria-hidden="true" d="M0,0h610v348h-610Z"/><g><g class="mark-area role-mark layer_0_marks" clip-path="url(#clip2)" role="graphics-object" aria-roledescription="area mark container"><path aria-label="bill_len: 28.2514721998; density: 3.55030803022e-24; species: Chinstrap" role="graphics-symbol" aria-roledescription="area mark" d="M27.727,332.182L28.812,332.182L29.898,332.182L30.983,332.182L32.068,332.182L33.153,332.182L34.239,332.182L35.324,332.182L36.409,332.182L37.494,332.182L38.579,332.182L39.665,332.182L40.75,332.182L41.835,332.182L42.92,332.182L44.006,332.182L45.091,332.182L46.176,332.182L47.261,332.182L48.346,332.182L49.432,332.182L50.517,332.182L51.602,332.182L52.687,332.182L53.772,332.182L54.858,332.182L55.943,332.182L57.028,332.182L58.113,332.182L59.199,332.182L60.284,332.182L61.369,332.182L62.454,332.182L63.539,332.182L64.625,332.182L65.71,332.182L66.795,332.182L67.88,332.182L68.965,332.182L70.051,332.182L71.136,332.182L72.221,332.182L73.306,332.182L74.392,332.182L75.477,332.182L76.562,332.182L77.647,332.182L78.732,332.182L79.818,332.182L80.903,332.182L81.988,332.182L83.073,332.182L84.159,332.182L85.244,332.182L86.329,332.182L87.414,332.182L88.499,332.182L89.585,332.182L90.67,332.182L91.755,332.182L92.84,332.182L93.925,332.182L95.011,332.182L96.096,332.182L97.181,332.182L98.266,332.182L99.352,332.182L100.437,332.182L101.522,332.182L102.607,332.182L103.692,332.182L104.778,332.182L105.863,332.182L106.948,332.182L108.033,332.182L109.118,332.182L110.204,332.182L111.289,332.182L112.374,332.182L113.459,332.182L114.545,332.182L115.63,332.182L116.715,332.182L117.8,332.182L118.885,332.182L119.971,332.182L121.056,332.182L122.141,332.182L123.226,332.182L124.312,332.182L125.397,332.182L126.482,332.182L127.567,332.182L128.652,332.182L129.738,332.182L130.823,332.182L131.908,332.182L132.993,332.182L134.078,332.182L135.164,332.181L136.249,332.181L137.334,332.181L138.419,332.181L139.505,332.181L140.59,332.181L141.675,332.18L142.76,332.18L143.845,332.179L144.931,332.179L146.016,332.178L147.101,332.177L148.186,332.176L149.271,332.175L150.357,332.173L151.442,332.171L152.527,332.169L153.612,332.166L154.698,332.163L155.783,332.159L156.868,332.154L157.953,332.149L159.038,332.142L160.124,332.134L161.209,332.125L162.294,332.114L163.379,332.101L164.465,332.086L165.55,332.069L166.635,332.048L167.72,332.025L168.805,331.998L169.891,331.967L170.976,331.931L172.061,331.891L173.146,331.844L174.231,331.791L175.317,331.731L176.402,331.664L177.487,331.587L178.572,331.501L179.658,331.405L180.743,331.297L181.828,331.177L182.913,331.044L183.998,330.896L185.084,330.732L186.169,330.551L187.254,330.353L188.339,330.135L189.424,329.896L190.51,329.636L191.595,329.352L192.68,329.044L193.765,328.711L194.851,328.35L195.936,327.961L197.021,327.542L198.106,327.093L199.191,326.612L200.277,326.098L201.362,325.549L202.447,324.966L203.532,324.346L204.618,323.689L205.703,322.994L206.788,322.261L207.873,321.488L208.958,320.675L210.044,319.822L211.129,318.928L212.214,317.993L213.299,317.017L214.384,316L215.47,314.942L216.555,313.844L217.64,312.706L218.725,311.528L219.811,310.313L220.896,309.06L221.981,307.772L223.066,306.449L224.151,305.095L225.237,303.71L226.322,302.298L227.407,300.861L228.492,299.402L229.577,297.923L230.663,296.43L231.748,294.924L232.833,293.41L233.918,291.892L235.004,290.373L236.089,288.858L237.174,287.351L238.259,285.855L239.344,284.375L240.43,282.914L241.515,281.475L242.6,280.061L243.685,278.674L244.771,277.317L245.856,275.991L246.941,274.696L248.026,273.432L249.111,272.199L250.197,270.993L251.282,269.812L252.367,268.652L253.452,267.508L254.537,266.374L255.623,265.242L256.708,264.106L257.793,262.956L258.878,261.782L259.964,260.573L261.049,259.318L262.134,258.006L263.219,256.624L264.304,255.158L265.39,253.598L266.475,251.93L267.56,250.142L268.645,248.222L269.73,246.159L270.816,243.943L271.901,241.566L272.986,239.018L274.071,236.295L275.157,233.392L276.242,230.305L277.327,227.035L278.412,223.582L279.497,219.951L280.583,216.146L281.668,212.176L282.753,208.052L283.838,203.785L284.924,199.391L286.009,194.886L287.094,190.29L288.179,185.622L289.264,180.905L290.35,176.162L291.435,171.418L292.52,166.698L293.605,162.029L294.69,157.437L295.776,152.948L296.861,148.589L297.946,144.384L299.031,140.359L300.117,136.536L301.202,132.937L302.287,129.582L303.372,126.488L304.457,123.672L305.543,121.146L306.628,118.92L307.713,117.001L308.798,115.395L309.883,114.102L310.969,113.12L312.054,112.445L313.139,112.07L314.224,111.983L315.31,112.17L316.395,112.616L317.48,113.301L318.565,114.204L319.65,115.301L320.736,116.567L321.821,117.976L322.906,119.499L323.991,121.106L325.076,122.768L326.162,124.453L327.247,126.132L328.332,127.774L329.417,129.349L330.503,130.828L331.588,132.182L332.673,133.386L333.758,134.415L334.843,135.244L335.929,135.853L337.014,136.223L338.099,136.337L339.184,136.182L340.27,135.746L341.355,135.02L342.44,133.999L343.525,132.68L344.61,131.062L345.696,129.149L346.781,126.945L347.866,124.459L348.951,121.701L350.036,118.684L351.122,115.425L352.207,111.941L353.292,108.251L354.377,104.378L355.463,100.345L356.548,96.177L357.633,91.9L358.718,87.542L359.803,83.131L360.889,78.695L361.974,74.265L363.059,69.87L364.144,65.539L365.229,61.303L366.315,57.19L367.4,53.228L368.485,49.447L369.57,45.873L370.656,42.53L371.741,39.445L372.826,36.639L373.911,34.134L374.996,31.95L376.082,30.105L377.167,28.614L378.252,27.491L379.337,26.748L380.423,26.394L381.508,26.436L382.593,26.88L383.678,27.728L384.763,28.981L385.849,30.637L386.934,32.692L388.019,35.141L389.104,37.974L390.189,41.182L391.275,44.752L392.36,48.672L393.445,52.925L394.53,57.495L395.616,62.363L396.701,67.51L397.786,72.915L398.871,78.556L399.956,84.411L401.042,90.457L402.127,96.671L403.212,103.029L404.297,109.508L405.382,116.084L406.468,122.734L407.553,129.434L408.638,136.163L409.723,142.899L410.809,149.62L411.894,156.307L412.979,162.941L414.064,169.504L415.149,175.979L416.235,182.35L417.32,188.604L418.405,194.726L419.49,200.707L420.576,206.534L421.661,212.199L422.746,217.695L423.831,223.015L424.916,228.153L426.002,233.106L427.087,237.87L428.172,242.444L429.257,246.828L430.342,251.021L431.428,255.025L432.513,258.84L433.598,262.471L434.683,265.921L435.769,269.192L436.854,272.29L437.939,275.22L439.024,277.986L440.109,280.595L441.195,283.052L442.28,285.364L443.365,287.536L444.45,289.574L445.535,291.485L446.621,293.276L447.706,294.952L448.791,296.52L449.876,297.985L450.962,299.353L452.047,300.631L453.132,301.823L454.217,302.935L455.302,303.971L456.388,304.938L457.473,305.838L458.558,306.677L459.643,307.458L460.729,308.186L461.814,308.863L462.899,309.494L463.984,310.081L465.069,310.627L466.155,311.135L467.24,311.607L468.325,312.046L469.41,312.455L470.495,312.834L471.581,313.187L472.666,313.515L473.751,313.821L474.836,314.106L475.922,314.372L477.007,314.621L478.092,314.855L479.177,315.076L480.262,315.286L481.348,315.486L482.433,315.68L483.518,315.867L484.603,316.052L485.688,316.235L486.774,316.418L487.859,316.604L488.944,316.793L490.029,316.989L491.115,317.191L492.2,317.403L493.285,317.624L494.37,317.857L495.455,318.102L496.541,318.36L497.626,318.631L498.711,318.917L499.796,319.217L500.882,319.531L501.967,319.858L503.052,320.2L504.137,320.553L505.222,320.919L506.308,321.296L507.393,321.682L508.478,322.076L509.563,322.477L510.648,322.884L511.734,323.294L512.819,323.707L513.904,324.119L514.989,324.531L516.075,324.939L517.16,325.343L518.245,325.741L519.33,326.132L520.415,326.513L521.501,326.885L522.586,327.245L523.671,327.593L524.756,327.928L525.841,328.25L526.927,328.556L528.012,328.848L529.097,329.125L530.182,329.387L531.268,329.633L532.353,329.864L533.438,330.08L534.523,330.281L535.608,330.468L536.694,330.641L537.779,330.8L538.864,330.946L539.949,331.08L541.035,331.203L542.12,331.314L543.205,331.414L544.29,331.505L545.375,331.587L546.461,331.66L547.546,331.726L548.631,331.785L549.716,331.837L550.801,331.883L551.887,331.923L552.972,331.959L554.057,331.991L555.142,332.018L556.228,332.042L557.313,332.063L558.398,332.081L559.483,332.096L560.568,332.109L561.654,332.121L562.739,332.131L563.824,332.139L564.909,332.146L565.994,332.152L567.08,332.157L568.165,332.161L569.25,332.165L570.335,332.168L571.421,332.17L572.506,332.172L573.591,332.174L574.676,332.176L575.761,332.177L576.847,332.178L577.932,332.179L579.017,332.179L580.102,332.18L581.188,332.18L582.273,332.18L582.273,332.182L581.188,332.182L580.102,332.182L579.017,332.182L577.932,332.182L576.847,332.182L575.761,332.182L574.676,332.182L573.591,332.182L572.506,332.182L571.421,332.182L570.335,332.182L569.25,332.182L568.165,332.182L567.08,332.182L565.994,332.182L564.909,332.182L563.824,332.182L562.739,332.182L561.654,332.182L560.568,332.182L559.483,332.182L558.398,332.182L557.313,332.182L556.228,332.182L555.142,332.182L554.057,332.182L552.972,332.182L551.887,332.182L550.801,332.182L549.716,332.182L548.631,332.182L547.546,332.182L546.461,332.182L545.375,332.182L544.29,332.182L543.205,332.182L542.12,332.182L541.035,332.182L539.949,332.182L538.864,332.182L537.779,332.182L536.694,332.182L535.608,332.182L534.523,332.182L533.438,332.182L532.353,332.182L531.268,332.182L530.182,332.182L529.097,332.182L528.012,332.182L526.927,332.182L525.841,332.182L524.756,332.182L523.671,332.182L522.586,332.182L521.501,332.182L520.415,332.182L519.33,332.182L518.245,332.182L517.16,332.182L516.075,332.182L514.989,332.182L513.904,332.182L512.819,332.182L511.734,332.182L510.648,332.182L509.563,332.182L508.478,332.182L507.393,332.182L506.308,332.182L505.222,332.182L504.137,332.182L503.052,332.182L501.967,332.182L500.882,332.182L499.796,332.182L498.711,332.182L497.626,332.182L496.541,332.182L495.455,332.182L494.37,332.182L493.285,332.182L492.2,332.182L491.115,332.182L490.029,332.182L488.944,332.182L487.859,332.182L486.774,332.182L485.688,332.182L484.603,332.182L483.518,332.182L482.433,332.182L481.348,332.182L480.262,332.182L479.177,332.182L478.092,332.182L477.007,332.182L475.922,332.182L474.836,332.182L473.751,332.182L472.666,332.182L471.581,332.182L470.495,332.182L469.41,332.182L468.325,332.182L467.24,332.182L466.155,332.182L465.069,332.182L463.984,332.182L462.899,332.182L461.814,332.182L460.729,332.182L459.643,332.182L458.558,332.182L457.473,332.182L456.388,332.182L455.302,332.182L454.217,332.182L453.132,332.182L452.047,332.182L450.962,332.182L449.876,332.182L448.791,332.182L447.706,332.182L446.621,332.182L445.535,332.182L444.45,332.182L443.365,332.182L442.28,332.182L441.195,332.182L440.109,332.182L439.024,332.182L437.939,332.182L436.854,332.182L435.769,332.182L434.683,332.182L433.598,332.182L432.513,332.182L431.428,332.182L430.342,332.182L429.257,332.182L428.172,332.182L427.087,332.182L426.002,332.182L424.916,332.182L423.831,332.182L422.746,332.182L421.661,332.182L420.576,332.182L419.49,332.182L418.405,332.182L417.32,332.182L416.235,332.182L415.149,332.182L414.064,332.182L412.979,332.182L411.894,332.182L410.809,332.182L409.723,332.182L408.638,332.182L407.553,332.182L406.468,332.182L405.382,332.182L404.297,332.182L403.212,332.182L402.127,332.182L401.042,332.182L399.956,332.182L398.871,332.182L397.786,332.182L396.701,332.182L395.616,332.182L394.53,332.182L393.445,332.182L392.36,332.182L391.275,332.182L390.189,332.182L389.104,332.182L388.019,332.182L386.934,332.182L385.849,332.182L384.763,332.182L383.678,332.182L382.593,332.182L381.508,332.182L380.423,332.182L379.337,332.182L378.252,332.182L377.167,332.182L376.082,332.182L374.996,332.182L373.911,332.182L372.826,332.182L371.741,332.182L370.656,332.182L369.57,332.182L368.485,332.182L367.4,332.182L366.315,332.182L365.229,332.182L364.144,332.182L363.059,332.182L361.974,332.182L360.889,332.182L359.803,332.182L358.718,332.182L357.633,332.182L356.548,332.182L355.463,332.182L354.377,332.182L353.292,332.182L352.207,332.182L351.122,332.182L350.036,332.182L348.951,332.182L347.866,332.182L346.781,332.182L345.696,332.182L344.61,332.182L343.525,332.182L342.44,332.182L341.355,332.182L340.27,332.182L339.184,332.182L338.099,332.182L337.014,332.182L335.929,332.182L334.843,332.182L333.758,332.182L332.673,332.182L331.588,332.182L330.503,332.182L329.417,332.182L328.332,332.182L327.247,332.182L326.162,332.182L325.076,332.182L323.991,332.182L322.906,332.182L321.821,332.182L320.736,332.182L319.65,332.182L318.565,332.182L317.48,332.182L316.395,332.182L315.31,332.182L314.224,332.182L313.139,332.182L312.054,332.182L310.969,332.182L309.883,332.182L308.798,332.182L307.713,332.182L306.628,332.182L305.543,332.182L304.457,332.182L303.372,332.182L302.287,332.182L301.202,332.182L300.117,332.182L299.031,332.182L297.946,332.182L296.861,332.182L295.776,332.182L294.69,332.182L293.605,332.182L292.52,332.182L291.435,332.182L290.35,332.182L289.264,332.182L288.179,332.182L287.094,332.182L286.009,332.182L284.924,332.182L283.838,332.182L282.753,332.182L281.668,332.182L280.583,332.182L279.497,332.182L278.412,332.182L277.327,332.182L276.242,332.182L275.157,332.182L274.071,332.182L272.986,332.182L271.901,332.182L270.816,332.182L269.73,332.182L268.645,332.182L267.56,332.182L266.475,332.182L265.39,332.182L264.304,332.182L263.219,332.182L262.134,332.182L261.049,332.182L259.964,332.182L258.878,332.182L257.793,332.182L256.708,332.182L255.623,332.182L254.537,332.182L253.452,332.182L252.367,332.182L251.282,332.182L250.197,332.182L249.111,332.182L248.026,332.182L246.941,332.182L245.856,332.182L244.771,332.182L243.685,332.182L242.6,332.182L241.515,332.182L240.43,332.182L239.344,332.182L238.259,332.182L237.174,332.182L236.089,332.182L235.004,332.182L233.918,332.182L232.833,332.182L231.748,332.182L230.663,332.182L229.577,332.182L228.492,332.182L227.407,332.182L226.322,332.182L225.237,332.182L224.151,332.182L223.066,332.182L221.981,332.182L220.896,332.182L219.811,332.182L218.725,332.182L217.64,332.182L216.555,332.182L215.47,332.182L214.384,332.182L213.299,332.182L212.214,332.182L211.129,332.182L210.044,332.182L208.958,332.182L207.873,332.182L206.788,332.182L205.703,332.182L204.618,332.182L203.532,332.182L202.447,332.182L201.362,332.182L200.277,332.182L199.191,332.182L198.106,332.182L197.021,332.182L195.936,332.182L194.851,332.182L193.765,332.182L192.68,332.182L191.595,332.182L190.51,332.182L189.424,332.182L188.339,332.182L187.254,332.182L186.169,332.182L185.084,332.182L183.998,332.182L182.913,332.182L181.828,332.182L180.743,332.182L179.658,332.182L178.572,332.182L177.487,332.182L176.402,332.182L175.317,332.182L174.231,332.182L173.146,332.182L172.061,332.182L170.976,332.182L169.891,332.182L168.805,332.182L167.72,332.182L166.635,332.182L165.55,332.182L164.465,332.182L163.379,332.182L162.294,332.182L161.209,332.182L160.124,332.182L159.038,332.182L157.953,332.182L156.868,332.182L155.783,332.182L154.698,332.182L153.612,332.182L152.527,332.182L151.442,332.182L150.357,332.182L149.271,332.182L148.186,332.182L147.101,332.182L146.016,332.182L144.931,332.182L143.845,332.182L142.76,332.182L141.675,332.182L140.59,332.182L139.505,332.182L138.419,332.182L137.334,332.182L136.249,332.182L135.164,332.182L134.078,332.182L132.993,332.182L131.908,332.182L130.823,332.182L129.738,332.182L128.652,332.182L127.567,332.182L126.482,332.182L125.397,332.182L124.312,332.182L123.226,332.182L122.141,332.182L121.056,332.182L119.971,332.182L118.885,332.182L117.8,332.182L116.715,332.182L115.63,332.182L114.545,332.182L113.459,332.182L112.374,332.182L111.289,332.182L110.204,332.182L109.118,332.182L108.033,332.182L106.948,332.182L105.863,332.182L104.778,332.182L103.692,332.182L102.607,332.182L101.522,332.182L100.437,332.182L99.352,332.182L98.266,332.182L97.181,332.182L96.096,332.182L95.011,332.182L93.925,332.182L92.84,332.182L91.755,332.182L90.67,332.182L89.585,332.182L88.499,332.182L87.414,332.182L86.329,332.182L85.244,332.182L84.159,332.182L83.073,332.182L81.988,332.182L80.903,332.182L79.818,332.182L78.732,332.182L77.647,332.182L76.562,332.182L75.477,332.182L74.392,332.182L73.306,332.182L72.221,332.182L71.136,332.182L70.051,332.182L68.965,332.182L67.88,332.182L66.795,332.182L65.71,332.182L64.625,332.182L63.539,332.182L62.454,332.182L61.369,332.182L60.284,332.182L59.199,332.182L58.113,332.182L57.028,332.182L55.943,332.182L54.858,332.182L53.772,332.182L52.687,332.182L51.602,332.182L50.517,332.182L49.432,332.182L48.346,332.182L47.261,332.182L46.176,332.182L45.091,332.182L44.006,332.182L42.92,332.182L41.835,332.182L40.75,332.182L39.665,332.182L38.579,332.182L37.494,332.182L36.409,332.182L35.324,332.182L34.239,332.182L33.153,332.182L32.068,332.182L30.983,332.182L29.898,332.182L28.812,332.182L27.727,332.182Z" fill="#F38400" fill-opacity="0.8" stroke="#F38400" stroke-width="1.3333333333333333"/></g></g><path class="foreground" aria-hidden="true" d="" display="none"/></g><g transform="translate(0,0)"><path class="background" aria-hidden="true" d="M0,0h610v348h-610Z"/><g><g class="mark-area role-mark layer_0_marks" clip-path="url(#clip3)" role="graphics-object" aria-roledescription="area mark container"><path aria-label="bill_len: 28.2514721998; density: 1.91520433843e-34; species: Gentoo" role="graphics-symbol" aria-roledescription="area mark" d="M27.727,332.182L28.812,332.182L29.898,332.182L30.983,332.182L32.068,332.182L33.153,332.182L34.239,332.182L35.324,332.182L36.409,332.182L37.494,332.182L38.579,332.182L39.665,332.182L40.75,332.182L41.835,332.182L42.92,332.182L44.006,332.182L45.091,332.182L46.176,332.182L47.261,332.182L48.346,332.182L49.432,332.182L50.517,332.182L51.602,332.182L52.687,332.182L53.772,332.182L54.858,332.182L55.943,332.182L57.028,332.182L58.113,332.182L59.199,332.182L60.284,332.182L61.369,332.182L62.454,332.182L63.539,332.182L64.625,332.182L65.71,332.182L66.795,332.182L67.88,332.182L68.965,332.182L70.051,332.182L71.136,332.182L72.221,332.182L73.306,332.182L74.392,332.182L75.477,332.182L76.562,332.182L77.647,332.182L78.732,332.182L79.818,332.182L80.903,332.182L81.988,332.182L83.073,332.182L84.159,332.182L85.244,332.182L86.329,332.182L87.414,332.182L88.499,332.182L89.585,332.182L90.67,332.182L91.755,332.182L92.84,332.182L93.925,332.182L95.011,332.182L96.096,332.182L97.181,332.182L98.266,332.182L99.352,332.182L100.437,332.182L101.522,332.182L102.607,332.182L103.692,332.182L104.778,332.182L105.863,332.182L106.948,332.182L108.033,332.182L109.118,332.182L110.204,332.182L111.289,332.182L112.374,332.182L113.459,332.182L114.545,332.182L115.63,332.182L116.715,332.182L117.8,332.182L118.885,332.182L119.971,332.182L121.056,332.182L122.141,332.182L123.226,332.182L124.312,332.182L125.397,332.182L126.482,332.182L127.567,332.182L128.652,332.182L129.738,332.182L130.823,332.182L131.908,332.182L132.993,332.182L134.078,332.182L135.164,332.182L136.249,332.182L137.334,332.182L138.419,332.182L139.505,332.182L140.59,332.182L141.675,332.182L142.76,332.182L143.845,332.182L144.931,332.182L146.016,332.182L147.101,332.182L148.186,332.182L149.271,332.182L150.357,332.182L151.442,332.182L152.527,332.181L153.612,332.181L154.698,332.181L155.783,332.181L156.868,332.181L157.953,332.18L159.038,332.18L160.124,332.179L161.209,332.179L162.294,332.178L163.379,332.177L164.465,332.175L165.55,332.173L166.635,332.171L167.72,332.168L168.805,332.164L169.891,332.16L170.976,332.154L172.061,332.147L173.146,332.139L174.231,332.129L175.317,332.117L176.402,332.102L177.487,332.084L178.572,332.062L179.658,332.036L180.743,332.006L181.828,331.97L182.913,331.928L183.998,331.878L185.084,331.82L186.169,331.752L187.254,331.674L188.339,331.583L189.424,331.479L190.51,331.361L191.595,331.225L192.68,331.071L193.765,330.897L194.851,330.701L195.936,330.481L197.021,330.235L198.106,329.96L199.191,329.656L200.277,329.319L201.362,328.947L202.447,328.538L203.532,328.09L204.618,327.601L205.703,327.068L206.788,326.49L207.873,325.864L208.958,325.187L210.044,324.459L211.129,323.676L212.214,322.837L213.299,321.939L214.384,320.98L215.47,319.959L216.555,318.872L217.64,317.717L218.725,316.493L219.811,315.196L220.896,313.825L221.981,312.375L223.066,310.846L224.151,309.234L225.237,307.536L226.322,305.75L227.407,303.873L228.492,301.903L229.577,299.838L230.663,297.674L231.748,295.411L232.833,293.047L233.918,290.58L235.004,288.011L236.089,285.34L237.174,282.566L238.259,279.692L239.344,276.72L240.43,273.652L241.515,270.493L242.6,267.245L243.685,263.915L244.771,260.509L245.856,257.032L246.941,253.49L248.026,249.892L249.111,246.244L250.197,242.554L251.282,238.827L252.367,235.071L253.452,231.292L254.537,227.495L255.623,223.684L256.708,219.863L257.793,216.033L258.878,212.195L259.964,208.35L261.049,204.494L262.134,200.624L263.219,196.736L264.304,192.824L265.39,188.882L266.475,184.901L267.56,180.873L268.645,176.791L269.73,172.646L270.816,168.429L271.901,164.134L272.986,159.755L274.071,155.286L275.157,150.725L276.242,146.071L277.327,141.323L278.412,136.487L279.497,131.566L280.583,126.571L281.668,121.511L282.753,116.399L283.838,111.253L284.924,106.088L286.009,100.926L287.094,95.788L288.179,90.696L289.264,85.675L290.35,80.748L291.435,75.941L292.52,71.278L293.605,66.783L294.69,62.479L295.776,58.389L296.861,54.531L297.946,50.926L299.031,47.588L300.117,44.534L301.202,41.772L302.287,39.314L303.372,37.165L304.457,35.329L305.543,33.807L306.628,32.596L307.713,31.693L308.798,31.09L309.883,30.778L310.969,30.746L312.054,30.978L313.139,31.459L314.224,32.172L315.31,33.096L316.395,34.212L317.48,35.497L318.565,36.929L319.65,38.483L320.736,40.137L321.821,41.866L322.906,43.647L323.991,45.456L325.076,47.271L326.162,49.069L327.247,50.831L328.332,52.537L329.417,54.17L330.503,55.715L331.588,57.158L332.673,58.489L333.758,59.697L334.843,60.779L335.929,61.728L337.014,62.544L338.099,63.229L339.184,63.786L340.27,64.221L341.355,64.542L342.44,64.76L343.525,64.888L344.61,64.939L345.696,64.931L346.781,64.879L347.866,64.804L348.951,64.724L350.036,64.659L351.122,64.631L352.207,64.661L353.292,64.769L354.377,64.978L355.463,65.307L356.548,65.776L357.633,66.405L358.718,67.213L359.803,68.215L360.889,69.429L361.974,70.869L363.059,72.546L364.144,74.473L365.229,76.658L366.315,79.108L367.4,81.829L368.485,84.822L369.57,88.089L370.656,91.627L371.741,95.432L372.826,99.498L373.911,103.816L374.996,108.376L376.082,113.164L377.167,118.165L378.252,123.363L379.337,128.739L380.423,134.275L381.508,139.947L382.593,145.736L383.678,151.618L384.763,157.57L385.849,163.569L386.934,169.592L388.019,175.617L389.104,181.62L390.189,187.58L391.275,193.478L392.36,199.293L393.445,205.009L394.53,210.608L395.616,216.076L396.701,221.401L397.786,226.57L398.871,231.574L399.956,236.404L401.042,241.055L402.127,245.522L403.212,249.801L404.297,253.891L405.382,257.79L406.468,261.5L407.553,265.021L408.638,268.357L409.723,271.51L410.809,274.484L411.894,277.284L412.979,279.914L414.064,282.381L415.149,284.689L416.235,286.844L417.32,288.852L418.405,290.719L419.49,292.452L420.576,294.055L421.661,295.537L422.746,296.901L423.831,298.156L424.916,299.306L426.002,300.358L427.087,301.319L428.172,302.193L429.257,302.988L430.342,303.709L431.428,304.362L432.513,304.953L433.598,305.488L434.683,305.974L435.769,306.414L436.854,306.816L437.939,307.185L439.024,307.526L440.109,307.844L441.195,308.145L442.28,308.433L443.365,308.714L444.45,308.992L445.535,309.27L446.621,309.553L447.706,309.844L448.791,310.147L449.876,310.464L450.962,310.799L452.047,311.153L453.132,311.528L454.217,311.926L455.302,312.347L456.388,312.792L457.473,313.261L458.558,313.754L459.643,314.27L460.729,314.809L461.814,315.368L462.899,315.947L463.984,316.542L465.069,317.152L466.155,317.774L467.24,318.405L468.325,319.042L469.41,319.682L470.495,320.322L471.581,320.958L472.666,321.587L473.751,322.205L474.836,322.809L475.922,323.397L477.007,323.964L478.092,324.509L479.177,325.028L480.262,325.518L481.348,325.978L482.433,326.406L483.518,326.799L484.603,327.157L485.688,327.478L486.774,327.76L487.859,328.005L488.944,328.21L490.029,328.376L491.115,328.504L492.2,328.593L493.285,328.645L494.37,328.66L495.455,328.64L496.541,328.587L497.626,328.503L498.711,328.389L499.796,328.248L500.882,328.083L501.967,327.896L503.052,327.691L504.137,327.471L505.222,327.24L506.308,327L507.393,326.755L508.478,326.509L509.563,326.266L510.648,326.03L511.734,325.803L512.819,325.589L513.904,325.392L514.989,325.215L516.075,325.059L517.16,324.929L518.245,324.825L519.33,324.749L520.415,324.703L521.501,324.687L522.586,324.703L523.671,324.749L524.756,324.826L525.841,324.933L526.927,325.068L528.012,325.23L529.097,325.418L530.182,325.627L531.268,325.858L532.353,326.106L533.438,326.369L534.523,326.644L535.608,326.929L536.694,327.22L537.779,327.515L538.864,327.811L539.949,328.105L541.035,328.396L542.12,328.681L543.205,328.959L544.29,329.227L545.375,329.484L546.461,329.73L547.546,329.962L548.631,330.181L549.716,330.386L550.801,330.577L551.887,330.754L552.972,330.916L554.057,331.065L555.142,331.201L556.228,331.324L557.313,331.434L558.398,331.533L559.483,331.622L560.568,331.7L561.654,331.769L562.739,331.83L563.824,331.883L564.909,331.929L565.994,331.969L567.08,332.004L568.165,332.033L569.25,332.058L570.335,332.079L571.421,332.097L572.506,332.113L573.591,332.125L574.676,332.136L575.761,332.144L576.847,332.152L577.932,332.158L579.017,332.162L580.102,332.166L581.188,332.17L582.273,332.172L582.273,332.182L581.188,332.182L580.102,332.182L579.017,332.182L577.932,332.182L576.847,332.182L575.761,332.182L574.676,332.182L573.591,332.182L572.506,332.182L571.421,332.182L570.335,332.182L569.25,332.182L568.165,332.182L567.08,332.182L565.994,332.182L564.909,332.182L563.824,332.182L562.739,332.182L561.654,332.182L560.568,332.182L559.483,332.182L558.398,332.182L557.313,332.182L556.228,332.182L555.142,332.182L554.057,332.182L552.972,332.182L551.887,332.182L550.801,332.182L549.716,332.182L548.631,332.182L547.546,332.182L546.461,332.182L545.375,332.182L544.29,332.182L543.205,332.182L542.12,332.182L541.035,332.182L539.949,332.182L538.864,332.182L537.779,332.182L536.694,332.182L535.608,332.182L534.523,332.182L533.438,332.182L532.353,332.182L531.268,332.182L530.182,332.182L529.097,332.182L528.012,332.182L526.927,332.182L525.841,332.182L524.756,332.182L523.671,332.182L522.586,332.182L521.501,332.182L520.415,332.182L519.33,332.182L518.245,332.182L517.16,332.182L516.075,332.182L514.989,332.182L513.904,332.182L512.819,332.182L511.734,332.182L510.648,332.182L509.563,332.182L508.478,332.182L507.393,332.182L506.308,332.182L505.222,332.182L504.137,332.182L503.052,332.182L501.967,332.182L500.882,332.182L499.796,332.182L498.711,332.182L497.626,332.182L496.541,332.182L495.455,332.182L494.37,332.182L493.285,332.182L492.2,332.182L491.115,332.182L490.029,332.182L488.944,332.182L487.859,332.182L486.774,332.182L485.688,332.182L484.603,332.182L483.518,332.182L482.433,332.182L481.348,332.182L480.262,332.182L479.177,332.182L478.092,332.182L477.007,332.182L475.922,332.182L474.836,332.182L473.751,332.182L472.666,332.182L471.581,332.182L470.495,332.182L469.41,332.182L468.325,332.182L467.24,332.182L466.155,332.182L465.069,332.182L463.984,332.182L462.899,332.182L461.814,332.182L460.729,332.182L459.643,332.182L458.558,332.182L457.473,332.182L456.388,332.182L455.302,332.182L454.217,332.182L453.132,332.182L452.047,332.182L450.962,332.182L449.876,332.182L448.791,332.182L447.706,332.182L446.621,332.182L445.535,332.182L444.45,332.182L443.365,332.182L442.28,332.182L441.195,332.182L440.109,332.182L439.024,332.182L437.939,332.182L436.854,332.182L435.769,332.182L434.683,332.182L433.598,332.182L432.513,332.182L431.428,332.182L430.342,332.182L429.257,332.182L428.172,332.182L427.087,332.182L426.002,332.182L424.916,332.182L423.831,332.182L422.746,332.182L421.661,332.182L420.576,332.182L419.49,332.182L418.405,332.182L417.32,332.182L416.235,332.182L415.149,332.182L414.064,332.182L412.979,332.182L411.894,332.182L410.809,332.182L409.723,332.182L408.638,332.182L407.553,332.182L406.468,332.182L405.382,332.182L404.297,332.182L403.212,332.182L402.127,332.182L401.042,332.182L399.956,332.182L398.871,332.182L397.786,332.182L396.701,332.182L395.616,332.182L394.53,332.182L393.445,332.182L392.36,332.182L391.275,332.182L390.189,332.182L389.104,332.182L388.019,332.182L386.934,332.182L385.849,332.182L384.763,332.182L383.678,332.182L382.593,332.182L381.508,332.182L380.423,332.182L379.337,332.182L378.252,332.182L377.167,332.182L376.082,332.182L374.996,332.182L373.911,332.182L372.826,332.182L371.741,332.182L370.656,332.182L369.57,332.182L368.485,332.182L367.4,332.182L366.315,332.182L365.229,332.182L364.144,332.182L363.059,332.182L361.974,332.182L360.889,332.182L359.803,332.182L358.718,332.182L357.633,332.182L356.548,332.182L355.463,332.182L354.377,332.182L353.292,332.182L352.207,332.182L351.122,332.182L350.036,332.182L348.951,332.182L347.866,332.182L346.781,332.182L345.696,332.182L344.61,332.182L343.525,332.182L342.44,332.182L341.355,332.182L340.27,332.182L339.184,332.182L338.099,332.182L337.014,332.182L335.929,332.182L334.843,332.182L333.758,332.182L332.673,332.182L331.588,332.182L330.503,332.182L329.417,332.182L328.332,332.182L327.247,332.182L326.162,332.182L325.076,332.182L323.991,332.182L322.906,332.182L321.821,332.182L320.736,332.182L319.65,332.182L318.565,332.182L317.48,332.182L316.395,332.182L315.31,332.182L314.224,332.182L313.139,332.182L312.054,332.182L310.969,332.182L309.883,332.182L308.798,332.182L307.713,332.182L306.628,332.182L305.543,332.182L304.457,332.182L303.372,332.182L302.287,332.182L301.202,332.182L300.117,332.182L299.031,332.182L297.946,332.182L296.861,332.182L295.776,332.182L294.69,332.182L293.605,332.182L292.52,332.182L291.435,332.182L290.35,332.182L289.264,332.182L288.179,332.182L287.094,332.182L286.009,332.182L284.924,332.182L283.838,332.182L282.753,332.182L281.668,332.182L280.583,332.182L279.497,332.182L278.412,332.182L277.327,332.182L276.242,332.182L275.157,332.182L274.071,332.182L272.986,332.182L271.901,332.182L270.816,332.182L269.73,332.182L268.645,332.182L267.56,332.182L266.475,332.182L265.39,332.182L264.304,332.182L263.219,332.182L262.134,332.182L261.049,332.182L259.964,332.182L258.878,332.182L257.793,332.182L256.708,332.182L255.623,332.182L254.537,332.182L253.452,332.182L252.367,332.182L251.282,332.182L250.197,332.182L249.111,332.182L248.026,332.182L246.941,332.182L245.856,332.182L244.771,332.182L243.685,332.182L242.6,332.182L241.515,332.182L240.43,332.182L239.344,332.182L238.259,332.182L237.174,332.182L236.089,332.182L235.004,332.182L233.918,332.182L232.833,332.182L231.748,332.182L230.663,332.182L229.577,332.182L228.492,332.182L227.407,332.182L226.322,332.182L225.237,332.182L224.151,332.182L223.066,332.182L221.981,332.182L220.896,332.182L219.811,332.182L218.725,332.182L217.64,332.182L216.555,332.182L215.47,332.182L214.384,332.182L213.299,332.182L212.214,332.182L211.129,332.182L210.044,332.182L208.958,332.182L207.873,332.182L206.788,332.182L205.703,332.182L204.618,332.182L203.532,332.182L202.447,332.182L201.362,332.182L200.277,332.182L199.191,332.182L198.106,332.182L197.021,332.182L195.936,332.182L194.851,332.182L193.765,332.182L192.68,332.182L191.595,332.182L190.51,332.182L189.424,332.182L188.339,332.182L187.254,332.182L186.169,332.182L185.084,332.182L183.998,332.182L182.913,332.182L181.828,332.182L180.743,332.182L179.658,332.182L178.572,332.182L177.487,332.182L176.402,332.182L175.317,332.182L174.231,332.182L173.146,332.182L172.061,332.182L170.976,332.182L169.891,332.182L168.805,332.182L167.72,332.182L166.635,332.182L165.55,332.182L164.465,332.182L163.379,332.182L162.294,332.182L161.209,332.182L160.124,332.182L159.038,332.182L157.953,332.182L156.868,332.182L155.783,332.182L154.698,332.182L153.612,332.182L152.527,332.182L151.442,332.182L150.357,332.182L149.271,332.182L148.186,332.182L147.101,332.182L146.016,332.182L144.931,332.182L143.845,332.182L142.76,332.182L141.675,332.182L140.59,332.182L139.505,332.182L138.419,332.182L137.334,332.182L136.249,332.182L135.164,332.182L134.078,332.182L132.993,332.182L131.908,332.182L130.823,332.182L129.738,332.182L128.652,332.182L127.567,332.182L126.482,332.182L125.397,332.182L124.312,332.182L123.226,332.182L122.141,332.182L121.056,332.182L119.971,332.182L118.885,332.182L117.8,332.182L116.715,332.182L115.63,332.182L114.545,332.182L113.459,332.182L112.374,332.182L111.289,332.182L110.204,332.182L109.118,332.182L108.033,332.182L106.948,332.182L105.863,332.182L104.778,332.182L103.692,332.182L102.607,332.182L101.522,332.182L100.437,332.182L99.352,332.182L98.266,332.182L97.181,332.182L96.096,332.182L95.011,332.182L93.925,332.182L92.84,332.182L91.755,332.182L90.67,332.182L89.585,332.182L88.499,332.182L87.414,332.182L86.329,332.182L85.244,332.182L84.159,332.182L83.073,332.182L81.988,332.182L80.903,332.182L79.818,332.182L78.732,332.182L77.647,332.182L76.562,332.182L75.477,332.182L74.392,332.182L73.306,332.182L72.221,332.182L71.136,332.182L70.051,332.182L68.965,332.182L67.88,332.182L66.795,332.182L65.71,332.182L64.625,332.182L63.539,332.182L62.454,332.182L61.369,332.182L60.284,332.182L59.199,332.182L58.113,332.182L57.028,332.182L55.943,332.182L54.858,332.182L53.772,332.182L52.687,332.182L51.602,332.182L50.517,332.182L49.432,332.182L48.346,332.182L47.261,332.182L46.176,332.182L45.091,332.182L44.006,332.182L42.92,332.182L41.835,332.182L40.75,332.182L39.665,332.182L38.579,332.182L37.494,332.182L36.409,332.182L35.324,332.182L34.239,332.182L33.153,332.182L32.068,332.182L30.983,332.182L29.898,332.182L28.812,332.182L27.727,332.182Z" fill="#008856" fill-opacity="0.8" stroke="#008856" stroke-width="1.3333333333333333"/></g></g><path class="foreground" aria-hidden="true" d="" display="none"/></g></g><g class="mark-group role-legend" role="graphics-symbol" aria-roledescription="legend" aria-label="Symbol legend titled 'species' for fill color and stroke color with 3 values: Adelie, Chinstrap, Gentoo"><g transform="translate(628,0)"><path class="background" aria-hidden="true" d="M0,0h68v76h-68Z" pointer-events="none"/><g><g class="mark-group role-legend-entry"><g transform="translate(0,23)"><path class="background" aria-hidden="true" d="M0,0h0v0h0Z" pointer-events="none"/><g><g class="mark-group role-scope" role="graphics-object" aria-roledescription="group mark container"><g transform="translate(0,0)"><path class="background" aria-hidden="true" d="M0,0h67.357421875v12.5h-67.357421875Z" pointer-events="none" opacity="1"/><g><g class="mark-symbol role-legend-symbol" pointer-events="none"><path transform="translate(6,6)" d="M5,0A5,5,0,1,1,-5,0A5,5,0,1,1,5,0" fill="#0067A5" fill-opacity="1" stroke="#0067A5" stroke-width="1.5" opacity="1"/></g><g class="mark-text role-legend-label" pointer-events="none"><text text-anchor="start" transform="translate(16,10)" font-family="sans-serif" font-size="12px" fill="#4D4D4D" opacity="1">Adelie</text></g></g><path class="foreground" aria-hidden="true" d="" pointer-events="none" display="none"/></g><g transform="translate(0,20)"><path class="background" aria-hidden="true" d="M0,0h67.357421875v12.5h-67.357421875Z" pointer-events="none" opacity="1"/><g><g class="mark-symbol role-legend-symbol" pointer-events="none"><path transform="translate(6,6)" d="M5,0A5,5,0,1,1,-5,0A5,5,0,1,1,5,0" fill="#F38400" fill-opacity="1" stroke="#F38400" stroke-width="1.5" opacity="1"/></g><g class="mark-text role-legend-label" pointer-events="none"><text text-anchor="start" transform="translate(16,10)" font-family="sans-serif" font-size="12px" fill="#4D4D4D" opacity="1">Chinstrap</text></g></g><path class="foreground" aria-hidden="true" d="" pointer-events="none" display="none"/></g><g transform="translate(0,40)"><path class="background" aria-hidden="true" d="M0,0h67.357421875v12.5h-67.357421875Z" pointer-events="none" opacity="1"/><g><g class="mark-symbol role-legend-symbol" pointer-events="none"><path transform="translate(6,6)" d="M5,0A5,5,0,1,1,-5,0A5,5,0,1,1,5,0" fill="#008856" fill-opacity="1" stroke="#008856" stroke-width="1.5" opacity="1"/></g><g class="mark-text role-legend-label" pointer-events="none"><text text-anchor="start" transform="translate(16,10)" font-family="sans-serif" font-size="12px" fill="#4D4D4D" opacity="1">Gentoo</text></g></g><path class="foreground" aria-hidden="true" d="" pointer-events="none" display="none"/></g></g></g><path class="foreground" aria-hidden="true" d="" pointer-events="none" display="none"/></g></g><g class="mark-text role-legend-title" pointer-events="none"><text text-anchor="start" transform="translate(0,12)" font-family="sans-serif" font-size="15px" font-weight="normal" fill="#000000" opacity="1">species</text></g></g><path class="foreground" aria-hidden="true" d="" pointer-events="none" display="none"/></g></g></g><path class="foreground" aria-hidden="true" d="" display="none"/></g></g></g><defs><clipPath id="clip1"><rect x="0" y="0" width="610" height="348"/></clipPath><clipPath id="clip2"><rect x="0" y="0" width="610" height="348"/></clipPath><clipPath id="clip3"><rect x="0" y="0" width="610" height="348"/></clipPath></defs></svg>