<svg xmlns="http://www.w3.org/2000/svg" xmlns:xlink="http://www.w3.org/1999/xlink" version="1.1" class="marks" width="761" height="400" viewBox="0 0 761 400"><rect width="761" height="400" fill="white"/><g fill="none" stroke-miterlimit="10" transform="translate(50,33)"><g class="mark-group role-frame root" role="graphics-object" aria-roledescription="group mark container"><g transform="translate(0,0)"><path class="background" aria-hidden="true" d="M0,0h706v320h-706Z" fill="#EBEBEB"/><g><g class="mark-group role-axis" aria-hidden="true"><g transform="translate(0.5,320.5)"><path class="background" aria-hidden="true" d="M0,0h0v0h0Z" pointer-events="none"/><g><g class="mark-rule role-axis-grid" pointer-events="none"><line transform="translate(0,-320)" x2="0" y2="320" stroke="#FFFFFF" stroke-width="1" opacity="1"/><line transform="translate(118,-320)" x2="0" y2="320" stroke="#FFFFFF" stroke-width="1" opacity="1"/><line transform="translate(237,-320)" x2="0" y2="320" stroke="#FFFFFF" stroke-width="1" opacity="1"/><line transform="translate(355,-320)" x2="0" y2="320" stroke="#FFFFFF" stroke-width="1" opacity="1"/><line transform="translate(473,-320)" x2="0" y2="320" stroke="#FFFFFF" stroke-width="1" opacity="1"/><line transform="translate(592,-320)" x2="0" y2="320" stroke="#FFFFFF" stroke-width="1" opacity="1"/></g></g><path class="foreground" aria-hidden="true" d="" pointer-events="none" display="none"/></g></g><g class="mark-group role-axis" aria-hidden="true"><g transform="translate(0.5,0.5)"><path class="background" aria-hidden="true" d="M0,0h0v0h0Z" pointer-events="none"/><g><g class="mark-rule role-axis-grid" pointer-events="none"><line transform="translate(0,277)" x2="706" y2="0" stroke="#FFFFFF" stroke-width="1" opacity="1"/><line transform="translate(0,206)" x2="706" y2="0" stroke="#FFFFFF" stroke-width="1" opacity="1"/><line transform="translate(0,135)" x2="706" y2="0" stroke="#FFFFFF" stroke-width="1" opacity="1"/><line transform="translate(0,64)" x2="706" y2="0" stroke="#FFFFFF" stroke-width="1" opacity="1"/></g></g><path class="foreground" aria-hidden="true" d="" pointer-events="none" display="none"/></g></g><g class="mark-group role-axis" role="graphics-symbol" aria-roledescription="axis" aria-label="X-axis titled 'Date' for a time scale with values from Monday, 23 April 1973, 1:00:00 AM to Sunday, 07 October 1973, 1:00:00 AM"><g transform="translate(0.5,320.5)"><path class="background" aria-hidden="true" d="M0,0h0v0h0Z" pointer-events="none"/><g><g class="mark-rule role-axis-tick" pointer-events="none"><line transform="translate(0,0)" x2="0" y2="4" stroke="#333333" stroke-width="1" opacity="1"/><line transform="translate(118,0)" x2="0" y2="4" stroke="#333333" stroke-width="1" opacity="1"/><line transform="translate(237,0)" x2="0" y2="4" stroke="#333333" stroke-width="1" opacity="1"/><line transform="translate(355,0)" x2="0" y2="4" stroke="#333333" stroke-width="1" opacity="1"/><line transform="translate(473,0)" x2="0" y2="4" stroke="#333333" stroke-width="1" opacity="1"/><line transform="translate(592,0)" x2="0" y2="4" stroke="#333333" stroke-width="1" opacity="1"/></g><g class="mark-text role-axis-label" pointer-events="none"><text text-anchor="start" transform="translate(0,15)" font-family="sans-serif" font-size="12px" fill="#4D4D4D" opacity="1">1973-04-23</text><text text-anchor="middle" transform="translate(118.37125748502993,15)" font-family="sans-serif" font-size="12px" fill="#4D4D4D" opacity="1">1973-05-21</text><text text-anchor="middle" transform="translate(236.74251497005986,15)" font-family="sans-serif" font-size="12px" fill="#4D4D4D" opacity="1">1973-06-18</text><text text-anchor="middle" transform="translate(355.1137724550898,15)" font-family="sans-serif" font-size="12px" fill="#4D4D4D" opacity="1">1973-07-16</text><text text-anchor="middle" transform="translate(473.4850299401197,15)" font-family="sans-serif" font-size="12px" fill="#4D4D4D" opacity="1">1973-08-13</text><text text-anchor="middle" transform="translate(591.8562874251496,15)" font-family="sans-serif" font-size="12px" fill="#4D4D4D" opacity="1">1973-09-10</text></g><g class="mark-text role-axis-title" pointer-events="none"><text text-anchor="middle" transform="translate(353,39)" font-family="sans-serif" font-size="15px" font-weight="normal" fill="#000000" opacity="1">Date</text></g></g><path class="foreground" aria-hidden="true" d="" pointer-events="none" display="none"/></g></g><g class="mark-group role-axis" role="graphics-symbol" aria-roledescription="axis" aria-label="Y-axis titled 'Temperature (F)' for a linear scale with values from 54 to 99"><g transform="translate(0.5,0.5)"><path class="background" aria-hidden="true" d="M0,0h0v0h0Z" pointer-events="none"/><g><g class="mark-rule role-axis-tick" pointer-events="none"><line transform="translate(0,277)" x2="-4" y2="0" stroke="#333333" stroke-width="1" opacity="1"/><line transform="translate(0,206)" x2="-4" y2="0" stroke="#333333" stroke-width="1" opacity="1"/><line transform="translate(0,135)" x2="-4" y2="0" stroke="#333333" stroke-width="1" opacity="1"/><line transform="translate(0,64)" x2="-4" y2="0" stroke="#333333" stroke-width="1" opacity="1"/></g><g class="mark-text role-axis-label" pointer-events="none"><text text-anchor="end" transform="translate(-6,281.07317073170736)" font-family="sans-serif" font-size="12px" fill="#4D4D4D" opacity="1">60</text><text text-anchor="end" transform="translate(-6,210.11973392461198)" font-family="sans-serif" font-size="12px" fill="#4D4D4D" opacity="1">70</text><text text-anchor="end" transform="translate(-6,139.16629711751662)" font-family="sans-serif" font-size="12px" fill="#4D4D4D" opacity="1">80</text><text text-anchor="end" transform="translate(-6,68.21286031042129)" font-family="sans-serif" font-size="12px" fill="#4D4D4D" opacity="1">90</text></g><g class="mark-text role-axis-title" pointer-events="none"><text text-anchor="middle" transform="translate(-29.34765625,160) rotate(-90) translate(0,-3)" font-family="sans-serif" font-size="15px" font-weight="normal" fill="#000000" opacity="1">Temperature (F)</text></g></g><path class="foreground" aria-hidden="true" d="" pointer-events="none" display="none"/></g></g><g class="mark-line role-mark layer_0_marks" clip-path="url(#clip1)" role="graphics-object" aria-roledescription="line mark container"><path aria-label="Date: May 01, 1973; Temperature (F): 67" role="graphics-symbol" aria-roledescription="line mark" d="M33.82,227.406L38.048,191.929L42.275,177.738L46.503,262.882L50.731,305.455L54.958,234.501L59.186,241.596L63.413,284.169L67.641,269.978L71.868,213.215L76.096,177.738L80.323,213.215L84.551,234.501L88.778,220.31L93.006,291.264L97.234,248.692L101.461,234.501L105.689,298.359L109.916,220.31L114.144,262.882L118.371,284.169L122.599,184.834L126.826,269.978L131.054,269.978L135.281,298.359L139.509,291.264L143.737,298.359L147.964,227.406L152.192,128.071L156.419,142.262L160.647,163.548L164.874,149.357L169.102,177.738L173.329,227.406L177.557,106.785L181.784,99.69L186.012,142.262L190.24,120.976L194.467,85.499L198.695,64.213L202.922,85.499L207.15,42.927L211.377,50.022L215.605,120.976L219.832,135.166L224.06,142.262L228.287,156.452L232.515,191.929L236.743,241.596L240.97,184.834L245.198,163.548L249.425,156.452L253.653,163.548L257.88,163.548L262.108,163.548L266.335,170.643L270.563,149.357L274.79,184.834L279.018,135.166L283.246,156.452L287.473,113.88L291.701,106.785L295.928,99.69L300.156,128.071L304.383,106.785L308.611,113.88L312.838,113.88L317.066,78.404L321.293,50.022L325.521,50.022L329.749,71.308L333.976,120.976L338.204,184.834L342.431,128.071L346.659,57.118L350.886,135.166L355.114,128.071L359.341,120.976L363.569,106.785L367.796,85.499L372.024,99.69L376.251,177.738L380.479,128.071L384.707,120.976L388.934,92.594L393.162,99.69L397.389,120.976L401.617,92.594L405.844,78.404L410.072,92.594L414.299,113.88L418.527,128.071L422.754,128.071L426.982,128.071L431.21,120.976L435.437,92.594L439.665,99.69L443.892,85.499L448.12,71.308L452.347,64.213L456.575,64.213L460.802,50.022L465.03,92.594L469.257,92.594L473.485,120.976L477.713,135.166L481.94,142.262L486.168,156.452L490.395,142.262L494.623,163.548L498.85,149.357L503.078,149.357L507.305,156.452L511.533,191.929L515.76,170.643L519.988,142.262L524.216,128.071L528.443,92.594L532.671,78.404L536.898,14.545L541.126,35.831L545.353,21.641L549.581,35.831L553.808,57.118L558.036,50.022L562.263,42.927L566.491,42.927L570.719,85.499L574.946,106.785L579.174,135.166L583.401,149.357L587.629,170.643L591.856,184.834L596.084,128.071L600.311,163.548L604.539,156.452L608.766,199.024L612.994,199.024L617.222,149.357L621.449,227.406L625.677,163.548L629.904,220.31L634.132,120.976L638.359,248.692L642.587,199.024L646.814,128.071L651.042,213.215L655.269,255.787L659.497,206.12L663.725,156.452L667.952,170.643L672.18,163.548L676.407,220.31" stroke="black" stroke-width="2" stroke-dasharray="" opacity="1"/></g><g class="mark-group role-title"><g transform="translate(0,-28)"><path class="background" aria-hidden="true" d="M0,0h0v0h0Z" pointer-events="none"/><g><g class="mark-text role-title-text" role="graphics-symbol" aria-roledescription="title" aria-label="Title text 'Daily Temperature'" pointer-events="none"><text text-anchor="start" transform="translate(0,14)" font-family="sans-serif" font-size="18px" font-weight="normal" fill="#000000" opacity="1">Daily Temperature</text></g></g><path class="foreground" aria-hidden="true" d="" pointer-events="none" display="none"/></g></g></g><path class="foreground" aria-hidden="true" d="" display="none"/></g></g></g><defs><clipPath id="clip1"><rect x="0" y="0" width="706" height="320"/></clipPath></defs></svg>