<svg xmlns="http://www.w3.org/2000/svg" xmlns:xlink="http://www.w3.org/1999/xlink" version="1.1" class="marks" width="761" height="400" viewBox="0 0 761 400"><rect width="761" height="400" fill="white"/><g fill="none" stroke-miterlimit="10" transform="translate(35,51)"><g class="mark-group role-frame root" role="graphics-object" aria-roledescription="group mark container"><g transform="translate(0,0)"><path class="background" aria-hidden="true" d="M0,0h621v327h-621Z" fill="#EBEBEB"/><g><g class="mark-group role-axis" aria-hidden="true"><g transform="translate(0.5,327.5)"><path class="background" aria-hidden="true" d="M0,0h0v0h0Z" pointer-events="none"/><g><g class="mark-rule role-axis-grid" pointer-events="none"><line transform="translate(69,-327)" x2="0" y2="327" stroke="#FFFFFF" stroke-width="1" opacity="1"/><line transform="translate(275,-327)" x2="0" y2="327" stroke="#FFFFFF" stroke-width="1" opacity="1"/><line transform="translate(482,-327)" x2="0" y2="327" stroke="#FFFFFF" stroke-width="1" opacity="1"/></g></g><path class="foreground" aria-hidden="true" d="" pointer-events="none" display="none"/></g></g><g class="mark-group role-axis" aria-hidden="true"><g transform="translate(0.5,0.5)"><path class="background" aria-hidden="true" d="M0,0h0v0h0Z" pointer-events="none"/><g><g class="mark-rule role-axis-grid" pointer-events="none"><line transform="translate(0,296)" x2="621" y2="0" stroke="#FFFFFF" stroke-width="1" opacity="1"/><line transform="translate(0,218)" x2="621" y2="0" stroke="#FFFFFF" stroke-width="1" opacity="1"/><line transform="translate(0,140)" x2="621" y2="0" stroke="#FFFFFF" stroke-width="1" opacity="1"/><line transform="translate(0,62)" x2="621" y2="0" stroke="#FFFFFF" stroke-width="1" opacity="1"/></g></g><path class="foreground" aria-hidden="true" d="" pointer-events="none" display="none"/></g></g><g class="mark-group role-axis" role="graphics-symbol" aria-roledescription="axis" aria-label="X-axis for a linear scale with values from 23 to 38"><g transform="translate(0.5,327.5)"><path class="background" aria-hidden="true" d="M0,0h0v0h0Z" pointer-events="none"/><g><g class="mark-rule role-axis-tick" pointer-events="none"><line transform="translate(69,0)" x2="0" y2="4" stroke="#333333" stroke-width="1" opacity="1"/><line transform="translate(275,0)" x2="0" y2="4" stroke="#333333" stroke-width="1" opacity="1"/><line transform="translate(482,0)" x2="0" y2="4" stroke="#333333" stroke-width="1" opacity="1"/></g><g class="mark-text role-axis-label" pointer-events="none"><text text-anchor="middle" transform="translate(69.43497013934963,15)" font-family="sans-serif" font-size="12px" fill="#4D4D4D" opacity="1">25</text><text text-anchor="middle" transform="translate(275.4734571997344,15)" font-family="sans-serif" font-size="12px" fill="#4D4D4D" opacity="1">30</text><text text-anchor="middle" transform="translate(481.51194426011926,15)" font-family="sans-serif" font-size="12px" fill="#4D4D4D" opacity="1">35</text></g></g><path class="foreground" aria-hidden="true" d="" pointer-events="none" display="none"/></g></g><g class="mark-group role-axis" role="graphics-symbol" aria-roledescription="axis" aria-label="Y-axis for a linear scale with values from 53.8 to 55.9"><g transform="translate(0.5,0.5)"><path class="background" aria-hidden="true" d="M0,0h0v0h0Z" pointer-events="none"/><g><g class="mark-rule role-axis-tick" pointer-events="none"><line transform="translate(0,296)" x2="-4" y2="0" stroke="#333333" stroke-width="1" opacity="1"/><line transform="translate(0,218)" x2="-4" y2="0" stroke="#333333" stroke-width="1" opacity="1"/><line transform="translate(0,140)" x2="-4" y2="0" stroke="#333333" stroke-width="1" opacity="1"/><line transform="translate(0,62)" x2="-4" y2="0" stroke="#333333" stroke-width="1" opacity="1"/></g><g class="mark-text role-axis-label" pointer-events="none"><text text-anchor="end" transform="translate(-6,300.49043062200957)" font-family="sans-serif" font-size="12px" fill="#4D4D4D" opacity="1">54.0</text><text text-anchor="end" transform="translate(-6,222.26076555023937)" font-family="sans-serif" font-size="12px" fill="#4D4D4D" opacity="1">54.5</text><text text-anchor="end" transform="translate(-6,144.03110047846917)" font-family="sans-serif" font-size="12px" fill="#4D4D4D" opacity="1">55.0</text><text text-anchor="end" transform="translate(-6,65.80143540669894)" font-family="sans-serif" font-size="12px" fill="#4D4D4D" opacity="1">55.5</text></g></g><path class="foreground" aria-hidden="true" d="" pointer-events="none" display="none"/></g></g><g class="mark-group role-scope layer_0_pathgroup" role="graphics-object" aria-roledescription="group mark container"><g transform="translate(0,0)"><path class="background" aria-hidden="true" d="M0,0h621v327h-621Z"/><g><g class="mark-trail role-mark layer_0_marks" clip-path="url(#clip39)" role="graphics-object" aria-roledescription="trail mark container"><path aria-label="Direction: R; Troops: 100000; direction: R; group: 1" role="graphics-symbol" aria-roledescription="trail mark" d="M592.7727272727271,34.431138005441404L584.5311877903117,34.352706632892385A3.84313725490196,3.84313725490196,0,1,1,584.5311877903117,26.666432123088466L592.7727272727271,26.588000750539447A3.9215686274509802,3.9215686274509802,0,1,1,592.7727272727271,34.431138005441404ZM588.3080715551375,31.22009945266015L567.6656832188457,140.73438024625452A3.8039215686274503,3.8039215686274503,0,0,1,560.1889949497006,139.32782071068382L580.7543040254859,29.799039303320704A3.84313725490196,3.84313725490196,0,1,1,588.3080715551375,31.220099452660147ZM563.9273390842732,143.83502204709663L555.6857996018576,143.7958063608221A3.7647058823529407,3.7647058823529407,0,1,1,555.6857996018576,136.26639459611624L563.9273390842732,136.2271789098417A3.8039215686274503,3.8039215686274503,0,1,1,563.9273390842732,143.83502204709663ZM553.3098516535508,142.95135418791966L495.8418203967969,95.739781359597A3.4117647058823524,3.4117647058823524,0,1,1,500.1482260531031,90.44682151121799L558.0617475501645,137.11084676901868A3.7647058823529407,3.7647058823529407,0,1,1,553.3098516535508,142.95135418791966ZM499.1082076526172,96.31835319286873L453.3702933535239,110.77806027344302A2.156862745098039,2.156862745098039,0,1,1,451.9628187898067,106.70040862607824L496.8818387972828,89.86824967794627A3.4117647058823524,3.4117647058823524,0,1,1,499.1082076526172,96.31835319286873ZM454.46798405462874,109.92536855827788L412.67072839358184,172.12091127108928A1.4509803921568627,1.4509803921568627,0,1,1,410.2469889255947,170.52502174326608L450.86512808870185,107.55310034124338A2.156862745098039,2.156862745098039,0,1,1,454.46798405462874,109.92536855827788ZM412.19071054749685,172.57585792808706L358.3635667619912,203.42751886296148A0.9411764705882352,0.9411764705882352,0,1,1,357.41413728578544,201.80214620880875L410.72700677167967,170.0700750862683A1.4509803921568627,1.4509803921568627,0,1,1,412.19071054749685,172.57585792808706ZM358.29239677500044,203.46510589348182L292.29282345715865,234.6152596959242A0.784313725490196,0.784313725490196,0,1,1,291.62024887197174,233.19813743326304L357.4853072727762,201.7645591782884A0.9411764705882352,0.9411764705882352,0,1,1,358.29239677500044,203.46510589348182ZM292.19313540482216,234.6544744798932L242.7438985103298,250.30040749424745A0.784313725490196,0.784313725490196,0,1,1,242.27070002981583,248.8048556636483L291.71993692430823,233.15892264929406A0.784313725490196,0.784313725490196,0,1,1,292.19313540482216,234.6544744798932ZM242.8812491042284,250.24205854500545L214.03586091577458,265.8879915593586A0.784313725490196,0.784313725490196,0,1,1,213.28796124746341,264.5091376272435L242.13334943591724,248.8632046128903A0.784313725490196,0.784313725490196,0,1,1,242.8812491042284,250.24205854500545ZM212.96798260827993,265.5640933799672L204.72644312586456,249.91816036561403A0.784313725490196,0.784313725490196,0,1,1,206.1143000725427,249.18710279228173L214.35583955495807,264.83303580663494A0.784313725490196,0.784313725490196,0,1,1,212.96798260827993,265.5640933799672ZM204.8804116630986,250.12148242705638L171.91425373343702,218.82961639834787A0.784313725490196,0.784313725490196,0,1,1,172.99417360564706,217.69191470213087L205.96033153530865,248.98378073083938A0.784313725490196,0.784313725490196,0,1,1,204.8804116630986,250.12148242705638ZM173.03089195805543,218.79235766036666L143.9548324541962,249.87158684502427A0.4705882352941176,0.4705882352941176,0,1,1,143.26281850798017,249.2336763128715L171.87753538102865,217.72917344011208A0.784313725490196,0.784313725490196,0,1,1,173.03089195805543,218.79235766036666ZM143.28484951942517,249.89394208781297L126.7477745609838,234.30489415826958A0.5490196078431372,0.5490196078431372,0,1,1,127.50371847153085,233.50850297091768L143.9328014427512,249.2113210700828A0.4705882352941176,0.4705882352941176,0,1,1,143.28484951942517,249.89394208781297ZM127.12574651625732,234.45571817243678L69.43497013934963,234.2204240547897A0.31372549019607837,0.31372549019607837,0,1,1,69.43497013934963,233.59297307439755L127.12574651625732,233.35767895675048A0.5490196078431372,0.5490196078431372,0,1,1,127.12574651625732,234.45571817243678ZM69.43497013934963,234.2204240547897L44.7103516921034,234.06356130969166A0.15686274509803919,0.15686274509803919,0,1,1,44.7103516921034,233.7498358194956L69.43497013934963,233.59297307439755A0.31372549019607837,0.31372549019607837,0,1,1,69.43497013934963,234.2204240547897ZM44.7103516921034,234.06356130969166L36.46881220968803,234.06356130969166A0.15686274509803919,0.15686274509803919,0,1,1,36.46881220968803,233.7498358194956L44.7103516921034,233.7498358194956A0.15686274509803919,0.15686274509803919,0,1,1,44.7103516921034,234.06356130969166ZM36.46881220968803,234.06356130969166L32.34804246848042,234.06356130969166A0.15686274509803919,0.15686274509803919,0,1,1,32.34804246848042,233.7498358194956L36.46881220968803,233.7498358194956A0.15686274509803919,0.15686274509803919,0,1,1,36.46881220968803,234.06356130969166Z" fill="#000000" fill-opacity="1"/></g></g><path class="foreground" aria-hidden="true" d="" display="none"/></g><g transform="translate(0,0)"><path class="background" aria-hidden="true" d="M0,0h621v327h-621Z"/><g><g class="mark-trail role-mark layer_0_marks" clip-path="url(#clip40)" role="graphics-object" aria-roledescription="trail mark container"><path aria-label="Direction: R; Troops: 33000; direction: R; group: 2" role="graphics-symbol" aria-roledescription="trail mark" d="M223.19097914152877,61.67101053727486L243.67777979506775,265.0799965301883A1.1764705882352942,1.1764705882352942,0,1,1,241.3368187450779,265.31713265641383L220.61592198653995,61.931860276123025A1.2941176470588234,1.2941176470588234,0,1,1,223.19097914152877,61.67101053727486ZM243.0682240213062,266.2327050423874L214.22283583285238,281.8786380567417A1.1764705882352942,1.1764705882352942,0,1,1,213.1009863303856,279.810357158569L241.94637451883943,264.1644241442147A1.1764705882352942,1.1764705882352942,0,1,1,243.0682240213062,266.2327050423874ZM212.62101837161038,281.3927907876545L204.44887173652893,265.7103048946336A1.0980392156862744,1.0980392156862744,0,1,1,206.39187146187834,264.6868242919685L214.70280379162762,280.29620442765616A1.1764705882352942,1.1764705882352942,0,1,1,212.62101837161038,281.3927907876545Z" fill="#000000" fill-opacity="1"/></g></g><path class="foreground" aria-hidden="true" d="" display="none"/></g><g transform="translate(0,0)"><path class="background" aria-hidden="true" d="M0,0h621v327h-621Z"/><g><g class="mark-trail role-mark layer_0_marks" clip-path="url(#clip41)" role="graphics-object" aria-roledescription="trail mark container"><path aria-label="Direction: R; Troops: 6000; direction: R; group: 3" role="graphics-symbol" aria-roledescription="trail mark" d="M53.18652191719218,14.881292421857959L36.703442952361314,233.92435462281432A0.2352941176470588,0.2352941176470588,0,1,1,36.23418146701475,233.88904250637293L52.71726043184562,14.845980305416559A0.2352941176470588,0.2352941176470588,0,1,1,53.18652191719218,14.881292421857959ZM36.46881220968803,234.1419926822407L32.34804246848042,234.1419926822407A0.2352941176470588,0.2352941176470588,0,1,1,32.34804246848042,233.67140444694655L36.46881220968803,233.67140444694655A0.2352941176470588,0.2352941176470588,0,1,1,36.46881220968803,234.1419926822407Z" fill="#000000" fill-opacity="1"/></g></g><path class="foreground" aria-hidden="true" d="" display="none"/></g><g transform="translate(0,0)"><path class="background" aria-hidden="true" d="M0,0h621v327h-621Z"/><g><g class="mark-trail role-mark layer_0_marks" clip-path="url(#clip42)" role="graphics-object" aria-roledescription="trail mark container"><path aria-label="Direction: A; Troops: 340000; direction: A; group: 1" role="graphics-symbol" aria-roledescription="trail mark" d="M20.16374074197042,145.05831277421586L40.767589448008906,129.4123797598616A13.333333333333332,13.333333333333332,0,1,1,56.89465341861339,150.64982119707673L36.29080471257491,166.295754211431A13.333333333333332,13.333333333333332,0,1,1,20.16374074197042,145.05831277421586ZM60.62790548007547,133.8171111051451L101.83560289215245,212.0467761769153A13.333333333333332,13.333333333333332,0,1,1,78.24203479862379,224.47475492356344L37.034337386546824,146.24508985179324A13.333333333333332,13.333333333333332,0,1,1,60.62790548007547,133.8171111051451ZM78.90271858706849,210.92830015213275L100.16163201418459,180.06775561743046A12.549019607843135,12.549019607843135,0,1,1,121.1237030886686,193.8700434256312L101.17491910370775,225.593230948346A13.333333333333332,13.333333333333332,0,1,1,78.90271858706848,210.92830015213275ZM106.18826518811984,175.23705428287383L147.67436274790347,160.32436159593675A11.76470588235294,11.76470588235294,0,1,1,156.02636717910363,182.3215714184186L115.09706991473335,198.70074476018783A12.549019607843135,12.549019607843135,0,0,1,106.18826518811984,175.23705428287383ZM147.67436274790322,160.32436159593684L189.1604603076869,145.41166890899865A10.980392156862743,10.980392156862743,0,1,1,196.95566444347418,165.9423980766482L156.0263671791039,182.32157141841853A11.76470588235294,11.76470588235294,0,1,1,147.67436274790322,160.32436159593686ZM186.4175066229787,146.93220466573484L207.9700061508174,132.53553291239325A9.411764705882353,9.411764705882353,0,1,1,219.3538160124206,147.5266680445451L199.69861812818237,164.421862319912A10.980392156862743,10.980392156862743,0,1,1,186.4175066229787,146.93220466573484ZM207.9700061508174,132.53553291239325L229.2853429732061,117.82654584379846A8.235294117647058,8.235294117647058,0,1,1,239.24617660210887,130.94378908443133L219.3538160124206,147.5266680445451A9.411764705882353,9.411764705882353,0,1,1,207.9700061508174,132.53553291239325ZM231.34255823673723,116.68614402624631L272.9678558703742,102.14007150301613A7.0588235294117645,7.0588235294117645,0,1,1,277.97905852909463,115.33839739650513L237.18896133857774,132.08419090198348A8.235294117647058,8.235294117647058,0,1,1,231.34255823673726,116.68614402624631ZM269.9348745857637,104.36303835639393L282.4510333264415,88.8386663446343A6.862745098039214,6.862745098039214,0,1,1,293.22049952027356,97.34793652618069L281.01203981370514,113.11543054312733A7.0588235294117645,7.0588235294117645,0,1,1,269.9348745857637,104.36303835639393ZM292.9482796308895,88.51514908063895L362.12493439584335,167.52964027036947A5.686274509803921,5.686274509803921,0,1,1,353.6527696519333,175.1162927439859L282.7232532158256,97.67145379017605A6.862745098039214,6.862745098039214,0,1,1,292.9482796308895,88.51514908063895ZM356.17350753202516,165.9015911212557L405.6818942365819,150.44260208572635A5.490196078431372,5.490196078431372,0,1,1,408.99428360017976,160.9114648999205L359.6041965157515,176.74434189309966A5.686274509803921,5.686274509803921,0,1,1,356.17350753202516,165.9015911212557ZM402.4805896050073,153.1183319861606L452.3774103648032,59.47849996743575A4.984313725490196,4.984313725490196,0,1,1,461.1972412609429,64.12437084596213L412.19558823175436,158.23573499948625A5.490196078431372,5.490196078431372,0,1,1,402.48058960500725,153.1183319861606ZM458.4135986951318,57.08989427597113L503.3953152968097,73.74041237799435A3.9215686274509802,3.9215686274509802,0,1,1,500.8362706355057,81.15432446411205L455.16105293061435,66.51297653742675A4.984313725490196,4.984313725490196,0,1,1,458.4135986951318,57.08989427597113ZM499.74416591165703,74.32421526852156L520.3480146176955,58.67828225416731A3.9215686274509802,3.9215686274509802,0,1,1,525.0912687266969,64.92458855923059L504.48742002065836,80.57052157358484A3.9215686274509802,3.9215686274509802,0,1,1,499.74416591165703,74.32421526852157ZM520.4453070797055,58.606736256355056L586.3776229390287,11.668937213293368A3.9215686274509802,3.9215686274509802,0,1,1,590.9262921240102,18.05833551398115L524.9939762646869,64.99613455704284A3.9215686274509802,3.9215686274509802,0,1,1,520.4453070797055,58.606736256355056Z" fill="#deb887" fill-opacity="1"/></g></g><path class="foreground" aria-hidden="true" d="" display="none"/></g><g transform="translate(0,0)"><path class="background" aria-hidden="true" d="M0,0h621v327h-621Z"/><g><g class="mark-trail role-mark layer_0_marks" clip-path="url(#clip43)" role="graphics-object" aria-roledescription="trail mark container"><path aria-label="Direction: A; Troops: 60000; direction: A; group: 2" role="graphics-symbol" aria-roledescription="trail mark" d="M26.80429649457227,122.5112755725959L47.40814520061075,106.86534255824165A2.3529411764705883,2.3529411764705883,0,1,1,50.254097666011546,110.61312634127961L29.650248959973062,126.25905935563387A2.3529411764705883,2.3529411764705883,0,1,1,26.80429649457227,122.5112755725959ZM50.91290685332838,107.64264808976226L92.12060426540536,185.87231316153247A2.3529411764705883,2.3529411764705883,0,1,1,87.95703342537088,188.06548588152918L46.74933601329391,109.835820809759A2.3529411764705883,2.3529411764705883,0,1,1,50.91290685332838,107.64264808976226ZM87.7788127865189,186.3141439993661L133.86061529276,30.073065696547275A1.568627450980392,1.568627450980392,0,1,1,136.87395670458565,30.94607305943358L92.29882490425734,187.62365504369555A2.3529411764705883,2.3529411764705883,0,1,1,87.7788127865189,186.3141439993661ZM136.0398605838597,29.092447115329247L168.88831796111344,44.98637652564921A1.2941176470588234,1.2941176470588234,0,1,1,167.7785698955551,47.32462825904016L134.69471141348595,31.926691640651608A1.568627450980392,1.568627450980392,0,1,1,136.0398605838597,29.092447115329247ZM168.69625306183286,44.913282598154034L222.26625969753294,60.55921561250829A1.2941176470588234,1.2941176470588234,0,1,1,221.54064143053577,63.043655200889596L167.9706347948357,47.39772218653534A1.2941176470588234,1.2941176470588234,0,1,1,168.69625306183286,44.913282598154034Z" fill="#deb887" fill-opacity="1"/></g></g><path class="foreground" aria-hidden="true" d="" display="none"/></g><g transform="translate(0,0)"><path class="background" aria-hidden="true" d="M0,0h621v327h-621Z"/><g><g class="mark-trail role-mark layer_0_marks" clip-path="url(#clip44)" role="graphics-object" aria-roledescription="trail mark container"><path aria-label="Direction: A; Troops: 22000; direction: A; group: 3" role="graphics-symbol" aria-roledescription="trail mark" d="M27.705514775282545,108.05214075620366L48.30936348132102,92.40620774185052A0.8627450980392157,0.8627450980392157,0,1,1,49.35287938530127,93.78039512896447L28.749030679262788,109.4263281433176A0.8627450980392157,0.8627450980392157,0,1,1,27.705514775282545,108.05214075620366ZM47.96957077333091,93.04791901063415L52.71692281270611,14.851259338699071A0.2352941176470588,0.2352941176470588,0,1,1,53.18685953633169,14.876013388575446L49.692672093291385,93.13868386018085A0.8627450980392157,0.8627450980392157,0,1,1,47.96957077333091,93.04791901063415Z" fill="#deb887" fill-opacity="1"/></g></g><path class="foreground" aria-hidden="true" d="" display="none"/></g></g><g class="mark-text role-mark layer_1_layer_0_marks" role="graphics-object" aria-roledescription="text mark container"><text aria-label="city: Kowno" role="graphics-symbol" aria-roledescription="text mark" text-anchor="middle" transform="translate(28.227272727272666,142.03110047846917)" font-family="sans-serif" font-size="8px" font-style="normal" font-weight="normal" fill="black" fill-opacity="1">Kowno</text><text aria-label="city: Wilna" role="graphics-symbol" aria-roledescription="text mark" text-anchor="middle" transform="translate(81.79727936297274,188.96889952153083)" font-family="sans-serif" font-size="8px" font-style="normal" font-weight="normal" fill="black" fill-opacity="1">Wilna</text><text aria-label="city: Smorgoni" role="graphics-symbol" aria-roledescription="text mark" text-anchor="middle" transform="translate(127.12574651625732,235.90669856459363)" font-family="sans-serif" font-size="8px" font-style="normal" font-weight="normal" fill="black" fill-opacity="1">Smorgoni</text><text aria-label="city: Moiodexno" role="graphics-symbol" aria-roledescription="text mark" text-anchor="middle" transform="translate(143.6088254810882,251.55263157894788)" font-family="sans-serif" font-size="8px" font-style="normal" font-weight="normal" fill="black" fill-opacity="1">Moiodexno</text><text aria-label="city: Gloubokoe" role="graphics-symbol" aria-roledescription="text mark" text-anchor="middle" transform="translate(180.6957531519574,110.73923444976063)" font-family="sans-serif" font-size="8px" font-style="normal" font-weight="normal" fill="black" fill-opacity="1">Gloubokoe</text><text aria-label="city: Minsk" role="graphics-symbol" aria-roledescription="text mark" text-anchor="middle" transform="translate(176.5749834107498,314.13636363636385)" font-family="sans-serif" font-size="8px" font-style="normal" font-weight="normal" fill="black" fill-opacity="1">Minsk</text><text aria-label="city: Studienska" role="graphics-symbol" aria-roledescription="text mark" text-anchor="middle" transform="translate(213.661911081619,251.55263157894788)" font-family="sans-serif" font-size="8px" font-style="normal" font-weight="normal" fill="black" fill-opacity="1">Studienska</text><text aria-label="city: Polotzk" role="graphics-symbol" aria-roledescription="text mark" text-anchor="middle" transform="translate(221.90345056403436,63.80143540669894)" font-family="sans-serif" font-size="8px" font-style="normal" font-weight="normal" fill="black" fill-opacity="1">Polotzk</text><text aria-label="city: Bobr" role="graphics-symbol" aria-roledescription="text mark" text-anchor="middle" transform="translate(242.50729927007282,235.90669856459363)" font-family="sans-serif" font-size="8px" font-style="normal" font-weight="normal" fill="black" fill-opacity="1">Bobr</text><text aria-label="city: Witebsk" role="graphics-symbol" aria-roledescription="text mark" text-anchor="middle" transform="translate(283.71499668214983,95.0933014354075)" font-family="sans-serif" font-size="8px" font-style="normal" font-weight="normal" fill="black" fill-opacity="1">Witebsk</text><text aria-label="city: Orscha" role="graphics-symbol" aria-roledescription="text mark" text-anchor="middle" transform="translate(291.9565361645652,220.26076555023937)" font-family="sans-serif" font-size="8px" font-style="normal" font-weight="normal" fill="black" fill-opacity="1">Orscha</text><text aria-label="city: Mohilow" role="graphics-symbol" aria-roledescription="text mark" text-anchor="middle" transform="translate(291.9565361645652,314.13636363636385)" font-family="sans-serif" font-size="8px" font-style="normal" font-weight="normal" fill="black" fill-opacity="1">Mohilow</text><text aria-label="city: Smolensk" role="graphics-symbol" aria-roledescription="text mark" text-anchor="middle" transform="translate(357.8888520238883,173.32296650717768)" font-family="sans-serif" font-size="8px" font-style="normal" font-weight="normal" fill="black" fill-opacity="1">Smolensk</text><text aria-label="city: Dorogobouge" role="graphics-symbol" aria-roledescription="text mark" text-anchor="middle" transform="translate(407.33808891838083,157.67703349282343)" font-family="sans-serif" font-size="8px" font-style="normal" font-weight="normal" fill="black" fill-opacity="1">Dorogobouge</text><text aria-label="city: Wixma" role="graphics-symbol" aria-roledescription="text mark" text-anchor="middle" transform="translate(452.6665560716653,110.73923444976063)" font-family="sans-serif" font-size="8px" font-style="normal" font-weight="normal" fill="black" fill-opacity="1">Wixma</text><text aria-label="city: Chjat" role="graphics-symbol" aria-roledescription="text mark" text-anchor="middle" transform="translate(456.78732581287306,63.80143540669894)" font-family="sans-serif" font-size="8px" font-style="normal" font-weight="normal" fill="black" fill-opacity="1">Chjat</text><text aria-label="city: Mojaisk" role="graphics-symbol" aria-roledescription="text mark" text-anchor="middle" transform="translate(522.7196416721962,63.80143540669894)" font-family="sans-serif" font-size="8px" font-style="normal" font-weight="normal" fill="black" fill-opacity="1">Mojaisk</text><text aria-label="city: Moscou" role="graphics-symbol" aria-roledescription="text mark" text-anchor="middle" transform="translate(588.6519575315194,16.86363636363726)" font-family="sans-serif" font-size="8px" font-style="normal" font-weight="normal" fill="black" fill-opacity="1">Moscou</text><text aria-label="city: Tarantino" role="graphics-symbol" aria-roledescription="text mark" text-anchor="middle" transform="translate(547.4442601194424,95.0933014354075)" font-family="sans-serif" font-size="8px" font-style="normal" font-weight="normal" fill="black" fill-opacity="1">Tarantino</text><text aria-label="city: Malo-Jarosewii" role="graphics-symbol" aria-roledescription="text mark" text-anchor="middle" transform="translate(543.3234903782347,142.03110047846917)" font-family="sans-serif" font-size="8px" font-style="normal" font-weight="normal" fill="black" fill-opacity="1">Malo-Jarosewii</text></g><g class="mark-group role-legend" role="graphics-symbol" aria-roledescription="legend" aria-label="Symbol legend titled 'Troops' for strokeWidth with values from 0 to 340,000"><g transform="translate(639,0)"><path class="background" aria-hidden="true" d="M0,0h82v110h-82Z" pointer-events="none"/><g><g class="mark-group role-legend-entry"><g transform="translate(0,23)"><path class="background" aria-hidden="true" d="M0,0h0v0h0Z" pointer-events="none"/><g><g class="mark-group role-scope" role="graphics-object" aria-roledescription="group mark container"><g transform="translate(0,0)"><path class="background" aria-hidden="true" d="M0,0h81.376953125v12h-81.376953125Z" pointer-events="none" opacity="1"/><g><g class="mark-symbol role-legend-symbol" pointer-events="none"><path transform="translate(17,6)" d="M-5,0L5,0" fill="black" fill-opacity="1" stroke-width="0" opacity="1"/></g><g class="mark-text role-legend-label" pointer-events="none"><text text-anchor="start" transform="translate(38,10)" font-family="sans-serif" font-size="12px" fill="#4D4D4D" opacity="1">0</text></g></g><path class="foreground" aria-hidden="true" d="" pointer-events="none" display="none"/></g><g transform="translate(0,18)"><path class="background" aria-hidden="true" d="M0,0h81.376953125v15h-81.376953125Z" pointer-events="none" opacity="1"/><g><g class="mark-symbol role-legend-symbol" pointer-events="none"><path transform="translate(17,9)" d="M-5,0L5,0" fill="black" fill-opacity="1" stroke-width="7.8431372549019605" opacity="1"/></g><g class="mark-text role-legend-label" pointer-events="none"><text text-anchor="start" transform="translate(38,13)" font-family="sans-serif" font-size="12px" fill="#4D4D4D" opacity="1">100,000</text></g></g><path class="foreground" aria-hidden="true" d="" pointer-events="none" display="none"/></g><g transform="translate(0,39)"><path class="background" aria-hidden="true" d="M0,0h81.376953125v19h-81.376953125Z" pointer-events="none" opacity="1"/><g><g class="mark-symbol role-legend-symbol" pointer-events="none"><path transform="translate(17,13)" d="M-5,0L5,0" fill="black" fill-opacity="1" stroke-width="15.686274509803921" opacity="1"/></g><g class="mark-text role-legend-label" pointer-events="none"><text text-anchor="start" transform="translate(38,17)" font-family="sans-serif" font-size="12px" fill="#4D4D4D" opacity="1">200,000</text></g></g><path class="foreground" aria-hidden="true" d="" pointer-events="none" display="none"/></g><g transform="translate(0,64)"><path class="background" aria-hidden="true" d="M0,0h81.376953125v23h-81.376953125Z" pointer-events="none" opacity="1"/><g><g class="mark-symbol role-legend-symbol" pointer-events="none"><path transform="translate(17,17)" d="M-5,0L5,0" fill="black" fill-opacity="1" stroke-width="23.52941176470588" opacity="1"/></g><g class="mark-text role-legend-label" pointer-events="none"><text text-anchor="start" transform="translate(38,21)" font-family="sans-serif" font-size="12px" fill="#4D4D4D" opacity="1">300,000</text></g></g><path class="foreground" aria-hidden="true" d="" pointer-events="none" display="none"/></g></g></g><path class="foreground" aria-hidden="true" d="" pointer-events="none" display="none"/></g></g><g class="mark-text role-legend-title" pointer-events="none"><text text-anchor="start" transform="translate(0,12)" font-family="sans-serif" font-size="15px" font-weight="normal" fill="#000000" opacity="1">Troops</text></g></g><path class="foreground" aria-hidden="true" d="" pointer-events="none" display="none"/></g></g><g class="mark-group role-legend" role="graphics-symbol" aria-roledescription="legend" aria-label="Symbol legend titled 'Direction' for fill color with 2 values: A, R"><g transform="translate(639,118)"><path class="background" aria-hidden="true" d="M0,0h63v53h-63Z" pointer-events="none"/><g><g class="mark-group role-legend-entry"><g transform="translate(0,23)"><path class="background" aria-hidden="true" d="M0,0h0v0h0Z" pointer-events="none"/><g><g class="mark-group role-scope" role="graphics-object" aria-roledescription="group mark container"><g transform="translate(0,0)"><path class="background" aria-hidden="true" d="M0,0h62.69921875v12h-62.69921875Z" pointer-events="none" opacity="1"/><g><g class="mark-symbol role-legend-symbol" pointer-events="none"><path transform="translate(6,6)" d="M-5,0L5,0" fill="#deb887" stroke-width="1.5" opacity="1"/></g><g class="mark-text role-legend-label" pointer-events="none"><text text-anchor="start" transform="translate(16,10)" font-family="sans-serif" font-size="12px" fill="#4D4D4D" opacity="1">Advance</text></g></g><path class="foreground" aria-hidden="true" d="" pointer-events="none" display="none"/></g><g transform="translate(0,18)"><path class="background" aria-hidden="true" d="M0,0h62.69921875v12h-62.69921875Z" pointer-events="none" opacity="1"/><g><g class="mark-symbol role-legend-symbol" pointer-events="none"><path transform="translate(6,6)" d="M-5,0L5,0" fill="#000000" stroke-width="1.5" opacity="1"/></g><g class="mark-text role-legend-label" pointer-events="none"><text text-anchor="start" transform="translate(16,10)" font-family="sans-serif" font-size="12px" fill="#4D4D4D" opacity="1">Retreat</text></g></g><path class="foreground" aria-hidden="true" d="" pointer-events="none" display="none"/></g></g></g><path class="foreground" aria-hidden="true" d="" pointer-events="none" display="none"/></g></g><g class="mark-text role-legend-title" pointer-events="none"><text text-anchor="start" transform="translate(0,12)" font-family="sans-serif" font-size="15px" font-weight="normal" fill="#000000" opacity="1">Direction</text></g></g><path class="foreground" aria-hidden="true" d="" pointer-events="none" display="none"/></g></g><g class="mark-group role-title"><g transform="translate(0,-46)"><path class="background" aria-hidden="true" d="M0,0h0v0h0Z" pointer-events="none"/><g><g class="mark-text role-title-text" role="graphics-symbol" aria-roledescription="title" aria-label="Title text 'Napoleon's Russian Campaign'" pointer-events="none"><text text-anchor="start" transform="translate(0,14)" font-family="sans-serif" font-size="18px" font-weight="normal" fill="#000000" opacity="1">Napoleon's Russian Campaign</text></g><g class="mark-text role-title-subtitle" role="graphics-symbol" aria-roledescription="subtitle" aria-label="Subtitle text 'Inspired by the graphic of C.J. Minard'" pointer-events="none"><text text-anchor="start" transform="translate(0,33)" font-family="sans-serif" font-size="15px" font-weight="normal" fill="#4D4D4D" opacity="1">Inspired by the graphic of C.J. Minard</text></g></g><path class="foreground" aria-hidden="true" d="" pointer-events="none" display="none"/></g></g></g><path class="foreground" aria-hidden="true" d="" display="none"/></g></g></g><defs><clipPath id="clip39"><rect x="0" y="0" width="621" height="327"/></clipPath><clipPath id="clip40"><rect x="0" y="0" width="621" height="327"/></clipPath><clipPath id="clip41"><rect x="0" y="0" width="621" height="327"/></clipPath><clipPath id="clip42"><rect x="0" y="0" width="621" height="327"/></clipPath><clipPath id="clip43"><rect x="0" y="0" width="621" height="327"/></clipPath><clipPath id="clip44"><rect x="0" y="0" width="621" height="327"/></clipPath></defs></svg>