<svg xmlns="http://www.w3.org/2000/svg" width="1344" height="960" viewBox="0 0 1344 960" font-family="sans-serif" font-size="23.467" xml:space="preserve" style="isolation:isolate;white-space:pre"><defs><clipPath id="p4c13a2b9-6a2a-4942-aa32-4fcacf78f551-c0" clipPathUnits="userSpaceOnUse"><path d="M91.873 14.667L1329.333 14.667L1329.333 869.827L91.873 869.827Z"/></clipPath></defs><rect width="1344" height="960" fill="#ffffff"/><path d="M0 0L1344 0L1344 960L0 960Z" fill="#ffffff"/><path d="M91.873 14.667L1329.333 14.667L1329.333 869.827L91.873 869.827Z" fill="#ebebeb"/><g clip-path="url(#p4c13a2b9-6a2a-4942-aa32-4fcacf78f551-c0)" style="isolation:isolate"><path d="M298.116 14.667L298.116 869.827" fill="none" stroke="#ffffff" stroke-width="1.333"/><path d="M710.603 14.667L710.603 869.827" fill="none" stroke="#ffffff" stroke-width="1.333"/><path d="M1123.09 14.667L1123.09 869.827" fill="none" stroke="#ffffff" stroke-width="1.333"/><path d="M91.873 840.838L1329.333 840.838" fill="none" stroke="#ffffff" stroke-width="0.667"/><path d="M91.873 655.447L1329.333 655.447" fill="none" stroke="#ffffff" stroke-width="0.667"/><path d="M91.873 470.056L1329.333 470.056" fill="none" stroke="#ffffff" stroke-width="0.667"/><path d="M91.873 284.665L1329.333 284.665" fill="none" stroke="#ffffff" stroke-width="0.667"/><path d="M91.873 99.274L1329.333 99.274" fill="none" stroke="#ffffff" stroke-width="0.667"/><path d="M91.873 748.142L1329.333 748.142" fill="none" stroke="#ffffff" stroke-width="1.333"/><path d="M91.873 562.751L1329.333 562.751" fill="none" stroke="#ffffff" stroke-width="1.333"/><path d="M91.873 377.36L1329.333 377.36" fill="none" stroke="#ffffff" stroke-width="1.333"/><path d="M91.873 191.969L1329.333 191.969" fill="none" stroke="#ffffff" stroke-width="1.333"/></g><g clip-path="url(#p4c13a2b9-6a2a-4942-aa32-4fcacf78f551-c0)" style="isolation:isolate"><path d="M1088.793 830.957L1086.466 828.958L1084.047 826.96L1081.536 824.961L1078.934 822.963L1076.243 820.964L1073.466 818.966L1070.605 816.967L1067.663 814.968L1064.646 812.97L1061.557 810.971L1058.402 808.973L1055.186 806.974L1051.917 804.976L1048.6 802.977L1045.243 800.979L1041.855 798.98L1038.443 796.982L1035.016 794.983L1031.581 792.985L1028.148 790.986L1024.724 788.988L1021.318 786.989L1017.937 784.991L1014.588 782.992L1011.278 780.994L1008.012 778.995L1004.796 776.997L1001.634 774.998L998.53 773L995.487 771.001L992.506 769.003L989.59 767.004L986.738 765.006L983.951 763.007L981.23 761.009L978.572 759.01L975.979 757.012L973.449 755.013L970.983 753.015L968.579 751.016L966.239 749.018L963.962 747.019L961.752 745.021L959.608 743.022L957.535 741.024L955.536 739.025L953.615 737.027L951.776 735.028L950.025 733.03L948.367 731.031L946.808 729.033L945.353 727.034L944.009 725.036L942.781 723.037L941.674 721.039L940.692 719.04L939.838 717.042L939.115 715.043L938.524 713.045L938.066 711.046L937.74 709.048L937.542 707.049L937.471 705.051L937.52 703.052L937.685 701.054L937.958 699.055L938.332 697.057L938.798 695.058L939.348 693.06L939.974 691.061L940.665 689.063L941.413 687.064L942.211 685.066L943.049 683.067L943.922 681.069L944.822 679.07L945.745 677.072L946.686 675.073L947.642 673.075L948.61 671.076L949.59 669.078L950.579 667.079L951.579 665.081L952.589 663.082L953.611 661.084L954.645 659.085L955.692 657.087L956.753 655.088L957.828 653.089L958.917 651.091L960.018 649.092L961.13 647.094L962.25 645.095L963.375 643.097L964.499 641.098L965.618 639.1L966.726 637.101L967.817 635.103L968.882 633.104L969.917 631.106L970.913 629.107L971.863 627.109L972.762 625.11L973.603 623.112L974.383 621.113L975.096 619.115L975.742 617.116L976.318 615.118L976.826 613.119L977.268 611.121L977.647 609.122L977.969 607.124L978.24 605.125L978.47 603.127L978.667 601.128L978.844 599.13L979.011 597.131L979.181 595.133L979.368 593.134L979.585 591.136L979.846 589.137L980.165 587.139L980.554 585.14L981.028 583.142L981.597 581.143L982.274 579.145L983.067 577.146L983.986 575.148L985.038 573.149L986.23 571.151L987.566 569.152L989.048 567.154L990.68 565.155L992.46 563.157L994.387 561.158L996.459 559.16L998.67 557.161L1001.016 555.163L1003.488 553.164L1006.079 551.166L1008.779 549.167L1011.577 547.169L1014.463 545.17L1017.423 543.172L1020.445 541.173L1023.515 539.175L1026.62 537.176L1029.743 535.178L1032.872 533.179L1035.992 531.181L1039.087 529.182L1042.144 527.184L1045.149 525.185L1048.089 523.187L1050.951 521.188L1053.724 519.19L1056.397 517.191L1058.961 515.193L1061.408 513.194L1063.73 511.196L1065.922 509.197L1067.982 507.199L1069.905 505.2L1071.692 503.202L1073.344 501.203L1074.862 499.205L1076.251 497.206L1077.516 495.207L1078.663 493.209L1079.701 491.21L1080.637 489.212L1081.481 487.213L1082.244 485.215L1082.936 483.216L1083.569 481.218L1084.154 479.219L1084.702 477.221L1085.224 475.222L1085.731 473.224L1086.233 471.225L1086.74 469.227L1087.259 467.228L1087.8 465.23L1088.369 463.231L1088.971 461.233L1089.611 459.234L1090.293 457.236L1091.019 455.237L1091.79 453.239L1092.607 451.24L1093.469 449.242L1094.373 447.243L1095.318 445.245L1096.3 443.246L1149.88 443.246L1150.862 445.245L1151.807 447.243L1152.711 449.242L1153.573 451.24L1154.389 453.239L1155.161 455.237L1155.887 457.236L1156.569 459.234L1157.209 461.233L1157.811 463.231L1158.38 465.23L1158.92 467.228L1159.44 469.227L1159.947 471.225L1160.449 473.224L1160.956 475.222L1161.478 477.221L1162.026 479.219L1162.611 481.218L1163.244 483.216L1163.936 485.215L1164.699 487.213L1165.543 489.212L1166.479 491.21L1167.516 493.209L1168.664 495.207L1169.928 497.206L1171.317 499.205L1172.836 501.203L1174.487 503.202L1176.275 505.2L1178.198 507.199L1180.257 509.197L1182.45 511.196L1184.772 513.194L1187.219 515.193L1189.783 517.191L1192.456 519.19L1195.229 521.188L1198.091 523.187L1201.031 525.185L1204.036 527.184L1207.093 529.182L1210.188 531.181L1213.308 533.179L1216.436 535.178L1219.56 537.176L1222.664 539.175L1225.735 541.173L1228.757 543.172L1231.717 545.17L1234.602 547.169L1237.401 549.167L1240.101 551.166L1242.692 553.164L1245.164 555.163L1247.51 557.161L1249.721 559.16L1251.793 561.158L1253.72 563.157L1255.5 565.155L1257.132 567.154L1258.614 569.152L1259.95 571.151L1261.142 573.149L1262.194 575.148L1263.113 577.146L1263.906 579.145L1264.583 581.143L1265.152 583.142L1265.625 585.14L1266.015 587.139L1266.334 589.137L1266.595 591.136L1266.812 593.134L1266.999 595.133L1267.169 597.131L1267.336 599.13L1267.512 601.128L1267.71 603.127L1267.94 605.125L1268.211 607.124L1268.533 609.122L1268.912 611.121L1269.354 613.119L1269.862 615.118L1270.438 617.116L1271.084 619.115L1271.797 621.113L1272.577 623.112L1273.418 625.11L1274.317 627.109L1275.267 629.107L1276.263 631.106L1277.297 633.104L1278.363 635.103L1279.454 637.101L1280.562 639.1L1281.681 641.098L1282.805 643.097L1283.93 645.095L1285.05 647.094L1286.162 649.092L1287.263 651.091L1288.352 653.089L1289.427 655.088L1290.488 657.087L1291.535 659.085L1292.569 661.084L1293.591 663.082L1294.601 665.081L1295.601 667.079L1296.59 669.078L1297.569 671.076L1298.538 673.075L1299.494 675.073L1300.435 677.072L1301.357 679.07L1302.258 681.069L1303.131 683.067L1303.969 685.066L1304.767 687.064L1305.515 689.063L1306.206 691.061L1306.832 693.06L1307.382 695.058L1307.848 697.057L1308.222 699.055L1308.495 701.054L1308.66 703.052L1308.709 705.051L1308.637 707.049L1308.44 709.048L1308.114 711.046L1307.656 713.045L1307.065 715.043L1306.342 717.042L1305.488 719.04L1304.506 721.039L1303.399 723.037L1302.171 725.036L1300.827 727.034L1299.372 729.033L1297.813 731.031L1296.155 733.03L1294.404 735.028L1292.565 737.027L1290.644 739.025L1288.644 741.024L1286.572 743.022L1284.428 745.021L1282.217 747.019L1279.941 749.018L1277.601 751.016L1275.197 753.015L1272.73 755.013L1270.201 757.012L1267.608 759.01L1264.95 761.009L1262.229 763.007L1259.442 765.006L1256.59 767.004L1253.674 769.003L1250.693 771.001L1247.649 773L1244.545 774.998L1241.384 776.997L1238.168 778.995L1234.902 780.994L1231.592 782.992L1228.243 784.991L1224.862 786.989L1221.456 788.988L1218.032 790.986L1214.599 792.985L1211.164 794.983L1207.737 796.982L1204.325 798.98L1200.936 800.979L1197.58 802.977L1194.263 804.976L1190.994 806.974L1187.778 808.973L1184.623 810.971L1181.534 812.97L1178.516 814.968L1175.575 816.967L1172.714 818.966L1169.937 820.964L1167.246 822.963L1164.644 824.961L1162.133 826.96L1159.714 828.958L1157.387 830.957Z" fill="#000000" fill-opacity="0.8"/><path d="M1088.793 830.957L1086.466 828.958L1084.047 826.96L1081.536 824.961L1078.934 822.963L1076.243 820.964L1073.466 818.966L1070.605 816.967L1067.663 814.968L1064.646 812.97L1061.557 810.971L1058.402 808.973L1055.186 806.974L1051.917 804.976L1048.6 802.977L1045.243 800.979L1041.855 798.98L1038.443 796.982L1035.016 794.983L1031.581 792.985L1028.148 790.986L1024.724 788.988L1021.318 786.989L1017.937 784.991L1014.588 782.992L1011.278 780.994L1008.012 778.995L1004.796 776.997L1001.634 774.998L998.53 773L995.487 771.001L992.506 769.003L989.59 767.004L986.738 765.006L983.951 763.007L981.23 761.009L978.572 759.01L975.979 757.012L973.449 755.013L970.983 753.015L968.579 751.016L966.239 749.018L963.962 747.019L961.752 745.021L959.608 743.022L957.535 741.024L955.536 739.025L953.615 737.027L951.776 735.028L950.025 733.03L948.367 731.031L946.808 729.033L945.353 727.034L944.009 725.036L942.781 723.037L941.674 721.039L940.692 719.04L939.838 717.042L939.115 715.043L938.524 713.045L938.066 711.046L937.74 709.048L937.542 707.049L937.471 705.051L937.52 703.052L937.685 701.054L937.958 699.055L938.332 697.057L938.798 695.058L939.348 693.06L939.974 691.061L940.665 689.063L941.413 687.064L942.211 685.066L943.049 683.067L943.922 681.069L944.822 679.07L945.745 677.072L946.686 675.073L947.642 673.075L948.61 671.076L949.59 669.078L950.579 667.079L951.579 665.081L952.589 663.082L953.611 661.084L954.645 659.085L955.692 657.087L956.753 655.088L957.828 653.089L958.917 651.091L960.018 649.092L961.13 647.094L962.25 645.095L963.375 643.097L964.499 641.098L965.618 639.1L966.726 637.101L967.817 635.103L968.882 633.104L969.917 631.106L970.913 629.107L971.863 627.109L972.762 625.11L973.603 623.112L974.383 621.113L975.096 619.115L975.742 617.116L976.318 615.118L976.826 613.119L977.268 611.121L977.647 609.122L977.969 607.124L978.24 605.125L978.47 603.127L978.667 601.128L978.844 599.13L979.011 597.131L979.181 595.133L979.368 593.134L979.585 591.136L979.846 589.137L980.165 587.139L980.554 585.14L981.028 583.142L981.597 581.143L982.274 579.145L983.067 577.146L983.986 575.148L985.038 573.149L986.23 571.151L987.566 569.152L989.048 567.154L990.68 565.155L992.46 563.157L994.387 561.158L996.459 559.16L998.67 557.161L1001.016 555.163L1003.488 553.164L1006.079 551.166L1008.779 549.167L1011.577 547.169L1014.463 545.17L1017.423 543.172L1020.445 541.173L1023.515 539.175L1026.62 537.176L1029.743 535.178L1032.872 533.179L1035.992 531.181L1039.087 529.182L1042.144 527.184L1045.149 525.185L1048.089 523.187L1050.951 521.188L1053.724 519.19L1056.397 517.191L1058.961 515.193L1061.408 513.194L1063.73 511.196L1065.922 509.197L1067.982 507.199L1069.905 505.2L1071.692 503.202L1073.344 501.203L1074.862 499.205L1076.251 497.206L1077.516 495.207L1078.663 493.209L1079.701 491.21L1080.637 489.212L1081.481 487.213L1082.244 485.215L1082.936 483.216L1083.569 481.218L1084.154 479.219L1084.702 477.221L1085.224 475.222L1085.731 473.224L1086.233 471.225L1086.74 469.227L1087.259 467.228L1087.8 465.23L1088.369 463.231L1088.971 461.233L1089.611 459.234L1090.293 457.236L1091.019 455.237L1091.79 453.239L1092.607 451.24L1093.469 449.242L1094.373 447.243L1095.318 445.245L1096.3 443.246" fill="none" stroke="#000000" stroke-width="2.667"/><path d="M1157.387 830.957L1159.714 828.958L1162.133 826.96L1164.644 824.961L1167.246 822.963L1169.937 820.964L1172.714 818.966L1175.575 816.967L1178.516 814.968L1181.534 812.97L1184.623 810.971L1187.778 808.973L1190.994 806.974L1194.263 804.976L1197.58 802.977L1200.936 800.979L1204.325 798.98L1207.737 796.982L1211.164 794.983L1214.599 792.985L1218.032 790.986L1221.456 788.988L1224.862 786.989L1228.243 784.991L1231.592 782.992L1234.902 780.994L1238.168 778.995L1241.384 776.997L1244.545 774.998L1247.649 773L1250.693 771.001L1253.674 769.003L1256.59 767.004L1259.442 765.006L1262.229 763.007L1264.95 761.009L1267.608 759.01L1270.201 757.012L1272.73 755.013L1275.197 753.015L1277.601 751.016L1279.941 749.018L1282.217 747.019L1284.428 745.021L1286.572 743.022L1288.644 741.024L1290.644 739.025L1292.565 737.027L1294.404 735.028L1296.155 733.03L1297.813 731.031L1299.372 729.033L1300.827 727.034L1302.171 725.036L1303.399 723.037L1304.506 721.039L1305.488 719.04L1306.342 717.042L1307.065 715.043L1307.656 713.045L1308.114 711.046L1308.44 709.048L1308.637 707.049L1308.709 705.051L1308.66 703.052L1308.495 701.054L1308.222 699.055L1307.848 697.057L1307.382 695.058L1306.832 693.06L1306.206 691.061L1305.515 689.063L1304.767 687.064L1303.969 685.066L1303.131 683.067L1302.258 681.069L1301.357 679.07L1300.435 677.072L1299.494 675.073L1298.538 673.075L1297.569 671.076L1296.59 669.078L1295.601 667.079L1294.601 665.081L1293.591 663.082L1292.569 661.084L1291.535 659.085L1290.488 657.087L1289.427 655.088L1288.352 653.089L1287.263 651.091L1286.162 649.092L1285.05 647.094L1283.93 645.095L1282.805 643.097L1281.681 641.098L1280.562 639.1L1279.454 637.101L1278.363 635.103L1277.297 633.104L1276.263 631.106L1275.267 629.107L1274.317 627.109L1273.418 625.11L1272.577 623.112L1271.797 621.113L1271.084 619.115L1270.438 617.116L1269.862 615.118L1269.354 613.119L1268.912 611.121L1268.533 609.122L1268.211 607.124L1267.94 605.125L1267.71 603.127L1267.512 601.128L1267.336 599.13L1267.169 597.131L1266.999 595.133L1266.812 593.134L1266.595 591.136L1266.334 589.137L1266.015 587.139L1265.625 585.14L1265.152 583.142L1264.583 581.143L1263.906 579.145L1263.113 577.146L1262.194 575.148L1261.142 573.149L1259.95 571.151L1258.614 569.152L1257.132 567.154L1255.5 565.155L1253.72 563.157L1251.793 561.158L1249.721 559.16L1247.51 557.161L1245.164 555.163L1242.692 553.164L1240.101 551.166L1237.401 549.167L1234.602 547.169L1231.717 545.17L1228.757 543.172L1225.735 541.173L1222.664 539.175L1219.56 537.176L1216.436 535.178L1213.308 533.179L1210.188 531.181L1207.093 529.182L1204.036 527.184L1201.031 525.185L1198.091 523.187L1195.229 521.188L1192.456 519.19L1189.783 517.191L1187.219 515.193L1184.772 513.194L1182.45 511.196L1180.257 509.197L1178.198 507.199L1176.275 505.2L1174.487 503.202L1172.836 501.203L1171.317 499.205L1169.928 497.206L1168.664 495.207L1167.516 493.209L1166.479 491.21L1165.543 489.212L1164.699 487.213L1163.936 485.215L1163.244 483.216L1162.611 481.218L1162.026 479.219L1161.478 477.221L1160.956 475.222L1160.449 473.224L1159.947 471.225L1159.44 469.227L1158.92 467.228L1158.38 465.23L1157.811 463.231L1157.209 461.233L1156.569 459.234L1155.887 457.236L1155.161 455.237L1154.389 453.239L1153.573 451.24L1152.711 449.242L1151.807 447.243L1150.862 445.245L1149.88 443.246" fill="none" stroke="#000000" stroke-width="2.667"/><path d="M287.542 607.124L286.966 605.125L286.373 603.127L285.764 601.128L285.139 599.13L284.499 597.131L283.844 595.133L283.175 593.134L282.494 591.136L281.8 589.137L281.095 587.139L280.378 585.14L279.652 583.142L278.916 581.143L278.17 579.145L277.416 577.146L276.653 575.148L275.88 573.149L275.099 571.151L274.307 569.152L273.505 567.154L272.69 565.155L271.861 563.157L271.017 561.158L270.155 559.16L269.272 557.161L268.365 555.163L267.432 553.164L266.468 551.166L265.47 549.167L264.434 547.169L263.355 545.17L262.229 543.172L261.053 541.173L259.821 539.175L258.53 537.176L257.176 535.178L255.754 533.179L254.262 531.181L252.696 529.182L251.055 527.184L249.336 525.185L247.538 523.187L245.66 521.188L243.704 519.19L241.67 517.191L239.559 515.193L237.376 513.194L235.124 511.196L232.808 509.197L230.433 507.199L228.007 505.2L225.536 503.202L223.028 501.203L220.493 499.205L217.94 497.206L215.379 495.207L212.821 493.209L210.276 491.21L207.755 489.212L205.268 487.213L202.828 485.215L200.443 483.216L198.123 481.218L195.879 479.219L193.718 477.221L191.648 475.222L189.675 473.224L187.806 471.225L186.043 469.227L184.391 467.228L182.851 465.23L181.423 463.231L180.106 461.233L178.898 459.234L177.795 457.236L176.792 455.237L175.884 453.239L175.063 451.24L174.322 449.242L173.652 447.243L173.044 445.245L172.489 443.246L171.976 441.248L171.497 439.249L171.041 437.251L170.599 435.252L170.162 433.254L169.721 431.255L169.269 429.257L168.799 427.258L168.304 425.26L167.78 423.261L167.223 421.263L166.628 419.264L165.995 417.266L165.32 415.267L164.605 413.269L163.85 411.27L163.055 409.272L162.223 407.273L161.356 405.275L160.458 403.276L159.53 401.278L158.577 399.279L157.602 397.281L156.609 395.282L155.601 393.284L154.582 391.285L153.554 389.287L152.521 387.288L151.485 385.29L150.447 383.291L149.41 381.293L148.376 379.294L147.344 377.296L146.317 375.297L145.294 373.299L144.277 371.3L143.266 369.302L142.261 367.303L141.262 365.305L140.272 363.306L139.29 361.308L138.319 359.309L137.36 357.311L136.416 355.312L135.488 353.314L134.582 351.315L133.7 349.317L132.848 347.318L132.029 345.32L131.251 343.321L130.517 341.323L129.836 339.324L129.214 337.326L128.657 335.327L128.173 333.328L127.769 331.33L127.451 329.331L127.228 327.333L127.105 325.334L127.089 323.336L127.187 321.337L127.403 319.339L127.742 317.34L128.209 315.342L128.807 313.343L129.54 311.345L130.409 309.346L131.415 307.348L132.559 305.349L133.84 303.351L135.257 301.352L136.809 299.354L138.492 297.355L140.302 295.357L142.235 293.358L144.287 291.36L146.451 289.361L148.722 287.363L151.092 285.364L153.554 283.366L156.101 281.367L158.724 279.369L161.416 277.37L164.167 275.372L166.969 273.373L169.813 271.375L172.691 269.376L175.593 267.378L178.51 265.379L181.434 263.381L184.357 261.382L187.269 259.384L190.164 257.385L193.032 255.387L195.867 253.388L198.662 251.39L201.409 249.391L204.103 247.393L206.737 245.394L209.307 243.396L211.808 241.397L214.235 239.399L216.585 237.4L218.855 235.402L221.042 233.403L223.143 231.405L225.159 229.406L227.088 227.408L228.929 225.409L230.684 223.411L232.352 221.412L233.935 219.414L235.436 217.415L236.856 215.417L238.198 213.418L239.466 211.42L240.662 209.421L241.791 207.423L242.857 205.424L243.863 203.426L244.814 201.427L245.714 199.429L246.568 197.43L247.381 195.432L248.155 193.433L248.896 191.435L249.608 189.436L250.294 187.438L250.957 185.439L251.601 183.441L252.229 181.442L252.843 179.444L253.445 177.445L254.038 175.446L254.622 173.448L255.198 171.449L255.768 169.451L256.332 167.452L256.89 165.454L257.441 163.455L257.986 161.457L258.524 159.458L259.053 157.46L259.574 155.461L260.085 153.463L260.584 151.464L261.072 149.466L261.546 147.467L262.005 145.469L262.449 143.47L262.877 141.472L263.288 139.473L263.682 137.475L264.058 135.476L264.415 133.478L264.755 131.479L265.078 129.481L265.383 127.482L265.673 125.484L265.949 123.485L266.211 121.487L266.462 119.488L266.703 117.49L266.937 115.491L267.166 113.493L267.393 111.494L267.62 109.496L267.85 107.497L268.087 105.499L268.332 103.5L268.589 101.502L268.861 99.503L269.15 97.505L269.458 95.506L269.789 93.508L270.144 91.509L270.525 89.511L270.934 87.512L271.371 85.514L271.838 83.515L272.334 81.517L272.861 79.518L273.418 77.52L274.004 75.521L274.617 73.523L275.258 71.524L275.923 69.526L276.611 67.527L277.32 65.529L278.047 63.53L278.79 61.532L279.545 59.533L280.309 57.535L281.079 55.536L281.853 53.538L314.38 53.538L315.153 55.536L315.924 57.535L316.688 59.533L317.443 61.532L318.185 63.53L318.912 65.529L319.621 67.527L320.309 69.526L320.975 71.524L321.615 73.523L322.229 75.521L322.815 77.52L323.371 79.518L323.898 81.517L324.395 83.515L324.862 85.514L325.299 87.512L325.708 89.511L326.088 91.509L326.443 93.508L326.774 95.506L327.083 97.505L327.372 99.503L327.643 101.502L327.901 103.5L328.146 105.499L328.382 107.497L328.613 109.496L328.84 111.494L329.067 113.493L329.296 115.491L329.53 117.49L329.771 119.488L330.022 121.487L330.284 123.485L330.559 125.484L330.849 127.482L331.155 129.481L331.477 131.479L331.817 133.478L332.175 135.476L332.551 137.475L332.944 139.473L333.355 141.472L333.783 143.47L334.227 145.469L334.687 147.467L335.161 149.466L335.648 151.464L336.148 153.463L336.659 155.461L337.179 157.46L337.709 159.458L338.246 161.457L338.791 163.455L339.343 165.454L339.901 167.452L340.464 169.451L341.034 171.449L341.611 173.448L342.195 175.446L342.787 177.445L343.389 179.444L344.003 181.442L344.631 183.441L345.276 185.439L345.939 187.438L346.625 189.436L347.336 191.435L348.077 193.433L348.852 195.432L349.664 197.43L350.519 199.429L351.419 201.427L352.37 203.426L353.376 205.424L354.441 207.423L355.57 209.421L356.767 211.42L358.034 213.418L359.377 215.417L360.797 217.415L362.297 219.414L363.881 221.412L365.549 223.411L367.303 225.409L369.145 227.408L371.073 229.406L373.089 231.405L375.191 233.403L377.378 235.402L379.648 237.4L381.998 239.399L384.425 241.397L386.925 243.396L389.496 245.394L392.13 247.393L394.824 249.391L397.571 251.39L400.366 253.388L403.2 255.387L406.069 257.385L408.963 259.384L411.876 261.382L414.798 263.381L417.723 265.379L420.64 267.378L423.542 269.376L426.419 271.375L429.264 273.373L432.066 275.372L434.817 277.37L437.509 279.369L440.132 281.367L442.679 283.366L445.141 285.364L447.511 287.363L449.781 289.361L451.946 291.36L453.997 293.358L455.931 295.357L457.741 297.355L459.424 299.354L460.975 301.352L462.393 303.351L463.674 305.349L464.818 307.348L465.824 309.346L466.693 311.345L467.425 313.343L468.024 315.342L468.491 317.34L468.83 319.339L469.046 321.337L469.143 323.336L469.127 325.334L469.005 327.333L468.781 329.331L468.464 331.33L468.06 333.328L467.576 335.327L467.019 337.326L466.396 339.324L465.715 341.323L464.982 343.321L464.203 345.32L463.385 347.318L462.532 349.317L461.651 351.315L460.744 353.314L459.817 355.312L458.872 357.311L457.913 359.309L456.942 361.308L455.961 363.306L454.97 365.305L453.972 367.303L452.967 369.302L451.955 371.3L450.938 373.299L449.916 375.297L448.888 377.296L447.857 379.294L446.822 381.293L445.785 383.291L444.748 385.29L443.711 387.288L442.678 389.287L441.651 391.285L440.631 393.284L439.624 395.282L438.631 397.281L437.656 399.279L436.703 401.278L435.775 403.276L434.876 405.275L434.009 407.273L433.177 409.272L432.383 411.27L431.627 413.269L430.912 415.267L430.238 417.266L429.604 419.264L429.01 421.263L428.452 423.261L427.928 425.26L427.434 427.258L426.964 429.257L426.512 431.255L426.071 433.254L425.634 435.252L425.192 437.251L424.736 439.249L424.256 441.248L423.744 443.246L423.188 445.245L422.58 447.243L421.911 449.242L421.169 451.24L420.349 453.239L419.44 455.237L418.438 457.236L417.335 459.234L416.127 461.233L414.81 463.231L413.382 465.23L411.842 467.228L410.189 469.227L408.427 471.225L406.557 473.224L404.585 475.222L402.515 477.221L400.354 479.219L398.109 481.218L395.79 483.216L393.405 485.215L390.964 487.213L388.478 489.212L385.957 491.21L383.412 493.209L380.854 495.207L378.293 497.206L375.74 499.205L373.205 501.203L370.697 503.202L368.226 505.2L365.799 507.199L363.424 509.197L361.108 511.196L358.856 513.194L356.673 515.193L354.563 517.191L352.529 519.19L350.572 521.188L348.695 523.187L346.897 525.185L345.178 527.184L343.536 529.182L341.971 531.181L340.478 533.179L339.057 535.178L337.702 537.176L336.411 539.175L335.18 541.173L334.003 543.172L332.878 545.17L331.799 547.169L330.763 549.167L329.765 551.166L328.801 553.164L327.867 555.163L326.961 557.161L326.078 559.16L325.216 561.158L324.371 563.157L323.543 565.155L322.728 567.154L321.925 569.152L321.134 571.151L320.352 573.149L319.58 575.148L318.817 577.146L318.062 579.145L317.317 581.143L316.581 583.142L315.854 585.14L315.138 587.139L314.432 589.137L313.739 591.136L313.057 593.134L312.389 595.133L311.734 597.131L311.094 599.13L310.469 601.128L309.86 603.127L309.267 605.125L308.691 607.124Z" fill="#000000" fill-opacity="0.8"/><path d="M287.542 607.124L286.966 605.125L286.373 603.127L285.764 601.128L285.139 599.13L284.499 597.131L283.844 595.133L283.175 593.134L282.494 591.136L281.8 589.137L281.095 587.139L280.378 585.14L279.652 583.142L278.916 581.143L278.17 579.145L277.416 577.146L276.653 575.148L275.88 573.149L275.099 571.151L274.307 569.152L273.505 567.154L272.69 565.155L271.861 563.157L271.017 561.158L270.155 559.16L269.272 557.161L268.365 555.163L267.432 553.164L266.468 551.166L265.47 549.167L264.434 547.169L263.355 545.17L262.229 543.172L261.053 541.173L259.821 539.175L258.53 537.176L257.176 535.178L255.754 533.179L254.262 531.181L252.696 529.182L251.055 527.184L249.336 525.185L247.538 523.187L245.66 521.188L243.704 519.19L241.67 517.191L239.559 515.193L237.376 513.194L235.124 511.196L232.808 509.197L230.433 507.199L228.007 505.2L225.536 503.202L223.028 501.203L220.493 499.205L217.94 497.206L215.379 495.207L212.821 493.209L210.276 491.21L207.755 489.212L205.268 487.213L202.828 485.215L200.443 483.216L198.123 481.218L195.879 479.219L193.718 477.221L191.648 475.222L189.675 473.224L187.806 471.225L186.043 469.227L184.391 467.228L182.851 465.23L181.423 463.231L180.106 461.233L178.898 459.234L177.795 457.236L176.792 455.237L175.884 453.239L175.063 451.24L174.322 449.242L173.652 447.243L173.044 445.245L172.489 443.246L171.976 441.248L171.497 439.249L171.041 437.251L170.599 435.252L170.162 433.254L169.721 431.255L169.269 429.257L168.799 427.258L168.304 425.26L167.78 423.261L167.223 421.263L166.628 419.264L165.995 417.266L165.32 415.267L164.605 413.269L163.85 411.27L163.055 409.272L162.223 407.273L161.356 405.275L160.458 403.276L159.53 401.278L158.577 399.279L157.602 397.281L156.609 395.282L155.601 393.284L154.582 391.285L153.554 389.287L152.521 387.288L151.485 385.29L150.447 383.291L149.41 381.293L148.376 379.294L147.344 377.296L146.317 375.297L145.294 373.299L144.277 371.3L143.266 369.302L142.261 367.303L141.262 365.305L140.272 363.306L139.29 361.308L138.319 359.309L137.36 357.311L136.416 355.312L135.488 353.314L134.582 351.315L133.7 349.317L132.848 347.318L132.029 345.32L131.251 343.321L130.517 341.323L129.836 339.324L129.214 337.326L128.657 335.327L128.173 333.328L127.769 331.33L127.451 329.331L127.228 327.333L127.105 325.334L127.089 323.336L127.187 321.337L127.403 319.339L127.742 317.34L128.209 315.342L128.807 313.343L129.54 311.345L130.409 309.346L131.415 307.348L132.559 305.349L133.84 303.351L135.257 301.352L136.809 299.354L138.492 297.355L140.302 295.357L142.235 293.358L144.287 291.36L146.451 289.361L148.722 287.363L151.092 285.364L153.554 283.366L156.101 281.367L158.724 279.369L161.416 277.37L164.167 275.372L166.969 273.373L169.813 271.375L172.691 269.376L175.593 267.378L178.51 265.379L181.434 263.381L184.357 261.382L187.269 259.384L190.164 257.385L193.032 255.387L195.867 253.388L198.662 251.39L201.409 249.391L204.103 247.393L206.737 245.394L209.307 243.396L211.808 241.397L214.235 239.399L216.585 237.4L218.855 235.402L221.042 233.403L223.143 231.405L225.159 229.406L227.088 227.408L228.929 225.409L230.684 223.411L232.352 221.412L233.935 219.414L235.436 217.415L236.856 215.417L238.198 213.418L239.466 211.42L240.662 209.421L241.791 207.423L242.857 205.424L243.863 203.426L244.814 201.427L245.714 199.429L246.568 197.43L247.381 195.432L248.155 193.433L248.896 191.435L249.608 189.436L250.294 187.438L250.957 185.439L251.601 183.441L252.229 181.442L252.843 179.444L253.445 177.445L254.038 175.446L254.622 173.448L255.198 171.449L255.768 169.451L256.332 167.452L256.89 165.454L257.441 163.455L257.986 161.457L258.524 159.458L259.053 157.46L259.574 155.461L260.085 153.463L260.584 151.464L261.072 149.466L261.546 147.467L262.005 145.469L262.449 143.47L262.877 141.472L263.288 139.473L263.682 137.475L264.058 135.476L264.415 133.478L264.755 131.479L265.078 129.481L265.383 127.482L265.673 125.484L265.949 123.485L266.211 121.487L266.462 119.488L266.703 117.49L266.937 115.491L267.166 113.493L267.393 111.494L267.62 109.496L267.85 107.497L268.087 105.499L268.332 103.5L268.589 101.502L268.861 99.503L269.15 97.505L269.458 95.506L269.789 93.508L270.144 91.509L270.525 89.511L270.934 87.512L271.371 85.514L271.838 83.515L272.334 81.517L272.861 79.518L273.418 77.52L274.004 75.521L274.617 73.523L275.258 71.524L275.923 69.526L276.611 67.527L277.32 65.529L278.047 63.53L278.79 61.532L279.545 59.533L280.309 57.535L281.079 55.536L281.853 53.538" fill="none" stroke="#000000" stroke-width="2.667"/><path d="M308.691 607.124L309.267 605.125L309.86 603.127L310.469 601.128L311.094 599.13L311.734 597.131L312.389 595.133L313.057 593.134L313.739 591.136L314.432 589.137L315.138 587.139L315.854 585.14L316.581 583.142L317.317 581.143L318.062 579.145L318.817 577.146L319.58 575.148L320.352 573.149L321.134 571.151L321.925 569.152L322.728 567.154L323.543 565.155L324.371 563.157L325.216 561.158L326.078 559.16L326.961 557.161L327.867 555.163L328.801 553.164L329.765 551.166L330.763 549.167L331.799 547.169L332.878 545.17L334.003 543.172L335.18 541.173L336.411 539.175L337.702 537.176L339.057 535.178L340.478 533.179L341.971 531.181L343.536 529.182L345.178 527.184L346.897 525.185L348.695 523.187L350.572 521.188L352.529 519.19L354.563 517.191L356.673 515.193L358.856 513.194L361.108 511.196L363.424 509.197L365.799 507.199L368.226 505.2L370.697 503.202L373.205 501.203L375.74 499.205L378.293 497.206L380.854 495.207L383.412 493.209L385.957 491.21L388.478 489.212L390.964 487.213L393.405 485.215L395.79 483.216L398.109 481.218L400.354 479.219L402.515 477.221L404.585 475.222L406.557 473.224L408.427 471.225L410.189 469.227L411.842 467.228L413.382 465.23L414.81 463.231L416.127 461.233L417.335 459.234L418.438 457.236L419.44 455.237L420.349 453.239L421.169 451.24L421.911 449.242L422.58 447.243L423.188 445.245L423.744 443.246L424.256 441.248L424.736 439.249L425.192 437.251L425.634 435.252L426.071 433.254L426.512 431.255L426.964 429.257L427.434 427.258L427.928 425.26L428.452 423.261L429.01 421.263L429.604 419.264L430.238 417.266L430.912 415.267L431.627 413.269L432.383 411.27L433.177 409.272L434.009 407.273L434.876 405.275L435.775 403.276L436.703 401.278L437.656 399.279L438.631 397.281L439.624 395.282L440.631 393.284L441.651 391.285L442.678 389.287L443.711 387.288L444.748 385.29L445.785 383.291L446.822 381.293L447.857 379.294L448.888 377.296L449.916 375.297L450.938 373.299L451.955 371.3L452.967 369.302L453.972 367.303L454.97 365.305L455.961 363.306L456.942 361.308L457.913 359.309L458.872 357.311L459.817 355.312L460.744 353.314L461.651 351.315L462.532 349.317L463.385 347.318L464.203 345.32L464.982 343.321L465.715 341.323L466.396 339.324L467.019 337.326L467.576 335.327L468.06 333.328L468.464 331.33L468.781 329.331L469.005 327.333L469.127 325.334L469.143 323.336L469.046 321.337L468.83 319.339L468.491 317.34L468.024 315.342L467.425 313.343L466.693 311.345L465.824 309.346L464.818 307.348L463.674 305.349L462.393 303.351L460.975 301.352L459.424 299.354L457.741 297.355L455.931 295.357L453.997 293.358L451.946 291.36L449.781 289.361L447.511 287.363L445.141 285.364L442.679 283.366L440.132 281.367L437.509 279.369L434.817 277.37L432.066 275.372L429.264 273.373L426.419 271.375L423.542 269.376L420.64 267.378L417.723 265.379L414.798 263.381L411.876 261.382L408.963 259.384L406.069 257.385L403.2 255.387L400.366 253.388L397.571 251.39L394.824 249.391L392.13 247.393L389.496 245.394L386.925 243.396L384.425 241.397L381.998 239.399L379.648 237.4L377.378 235.402L375.191 233.403L373.089 231.405L371.073 229.406L369.145 227.408L367.303 225.409L365.549 223.411L363.881 221.412L362.297 219.414L360.797 217.415L359.377 215.417L358.034 213.418L356.767 211.42L355.57 209.421L354.441 207.423L353.376 205.424L352.37 203.426L351.419 201.427L350.519 199.429L349.664 197.43L348.852 195.432L348.077 193.433L347.336 191.435L346.625 189.436L345.939 187.438L345.276 185.439L344.631 183.441L344.003 181.442L343.389 179.444L342.787 177.445L342.195 175.446L341.611 173.448L341.034 171.449L340.464 169.451L339.901 167.452L339.343 165.454L338.791 163.455L338.246 161.457L337.709 159.458L337.179 157.46L336.659 155.461L336.148 153.463L335.648 151.464L335.161 149.466L334.687 147.467L334.227 145.469L333.783 143.47L333.355 141.472L332.944 139.473L332.551 137.475L332.175 135.476L331.817 133.478L331.477 131.479L331.155 129.481L330.849 127.482L330.559 125.484L330.284 123.485L330.022 121.487L329.771 119.488L329.53 117.49L329.296 115.491L329.067 113.493L328.84 111.494L328.613 109.496L328.382 107.497L328.146 105.499L327.901 103.5L327.643 101.502L327.372 99.503L327.083 97.505L326.774 95.506L326.443 93.508L326.088 91.509L325.708 89.511L325.299 87.512L324.862 85.514L324.395 83.515L323.898 81.517L323.371 79.518L322.815 77.52L322.229 75.521L321.615 73.523L320.975 71.524L320.309 69.526L319.621 67.527L318.912 65.529L318.185 63.53L317.443 61.532L316.688 59.533L315.924 57.535L315.153 55.536L314.38 53.538" fill="none" stroke="#000000" stroke-width="2.667"/><path d="M649.773 525.185L647.726 523.187L645.71 521.188L643.727 519.19L641.783 517.191L639.882 515.193L638.026 513.194L636.219 511.196L634.462 509.197L632.759 507.199L631.111 505.2L629.518 503.202L627.982 501.203L626.502 499.205L625.078 497.206L623.71 495.207L622.396 493.209L621.135 491.21L619.924 489.212L618.762 487.213L617.646 485.215L616.574 483.216L615.542 481.218L614.547 479.219L613.587 477.221L612.657 475.222L611.755 473.224L610.877 471.225L610.02 469.227L609.18 467.228L608.355 465.23L607.54 463.231L606.733 461.233L605.932 459.234L605.132 457.236L604.333 455.237L603.531 453.239L602.724 451.24L601.91 449.242L601.088 447.243L600.257 445.245L599.414 443.246L598.559 441.248L597.691 439.249L596.811 437.251L595.917 435.252L595.009 433.254L594.089 431.255L593.157 429.257L592.212 427.258L591.258 425.26L590.294 423.261L589.323 421.263L588.345 419.264L587.364 417.266L586.381 415.267L585.399 413.269L584.419 411.27L583.444 409.272L582.477 407.273L581.52 405.275L580.576 403.276L579.648 401.278L578.737 399.279L577.847 397.281L576.979 395.282L576.136 393.284L575.32 391.285L574.532 389.287L573.774 387.288L573.047 385.29L572.353 383.291L571.692 381.293L571.064 379.294L570.471 377.296L569.911 375.297L569.386 373.299L568.893 371.3L568.434 369.302L568.006 367.303L567.609 365.305L567.242 363.306L566.903 361.308L566.591 359.309L566.305 357.311L566.044 355.312L565.805 353.314L565.589 351.315L565.393 349.317L565.216 347.318L565.059 345.32L564.919 343.321L564.798 341.323L564.693 339.324L564.605 337.326L564.534 335.327L564.481 333.328L564.445 331.33L564.428 329.331L564.429 327.333L564.45 325.334L564.491 323.336L564.554 321.337L564.639 319.339L564.748 317.34L564.88 315.342L565.038 313.343L565.221 311.345L565.43 309.346L565.666 307.348L565.929 305.349L566.218 303.351L566.534 301.352L566.875 299.354L567.242 297.355L567.634 295.357L568.049 293.358L568.486 291.36L568.943 289.361L569.42 287.363L569.915 285.364L570.426 283.366L570.95 281.367L571.488 279.369L572.036 277.37L572.595 275.372L573.161 273.373L573.735 271.375L574.315 269.376L574.901 267.378L575.493 265.379L576.091 263.381L576.695 261.382L577.307 259.384L577.926 257.385L578.556 255.387L579.198 253.388L579.855 251.39L580.528 249.391L581.222 247.393L581.939 245.394L582.683 243.396L583.458 241.397L584.268 239.399L585.115 237.4L586.005 235.402L586.942 233.403L587.928 231.405L588.968 229.406L590.064 227.408L591.221 225.409L592.44 223.411L593.725 221.412L595.076 219.414L596.496 217.415L597.985 215.417L599.543 213.418L601.171 211.42L602.868 209.421L604.632 207.423L606.461 205.424L608.353 203.426L610.304 201.427L612.312 199.429L614.372 197.43L616.479 195.432L618.629 193.433L620.817 191.435L623.036 189.436L625.282 187.438L627.548 185.439L629.828 183.441L632.115 181.442L634.405 179.444L636.691 177.445L638.967 175.446L641.227 173.448L643.467 171.449L645.68 169.451L647.862 167.452L650.008 165.454L652.115 163.455L654.179 161.457L656.197 159.458L658.165 157.46L660.083 155.461L661.947 153.463L663.758 151.464L665.513 149.466L667.213 147.467L668.857 145.469L670.446 143.47L671.981 141.472L673.462 139.473L674.891 137.475L676.27 135.476L677.599 133.478L678.882 131.479L680.12 129.481L681.315 127.482L682.469 125.484L683.584 123.485L684.663 121.487L685.707 119.488L735.499 119.488L736.543 121.487L737.622 123.485L738.738 125.484L739.892 127.482L741.086 129.481L742.324 131.479L743.607 133.478L744.936 135.476L746.315 137.475L747.744 139.473L749.225 141.472L750.76 143.47L752.349 145.469L753.993 147.467L755.693 149.466L757.448 151.464L759.259 153.463L761.123 155.461L763.041 157.46L765.01 159.458L767.027 161.457L769.091 163.455L771.198 165.454L773.345 167.452L775.527 169.451L777.74 171.449L779.979 173.448L782.239 175.446L784.515 177.445L786.801 179.444L789.091 181.442L791.379 183.441L793.659 185.439L795.924 187.438L798.17 189.436L800.39 191.435L802.577 193.433L804.727 195.432L806.835 197.43L808.894 199.429L810.902 201.427L812.854 203.426L814.746 205.424L816.575 207.423L818.338 209.421L820.035 211.42L821.663 213.418L823.221 215.417L824.71 217.415L826.13 219.414L827.481 221.412L828.766 223.411L829.985 225.409L831.142 227.408L832.239 229.406L833.278 231.405L834.265 233.403L835.201 235.402L836.091 237.4L836.939 239.399L837.748 241.397L838.523 243.396L839.267 245.394L839.984 247.393L840.678 249.391L841.352 251.39L842.008 253.388L842.65 255.387L843.28 257.385L843.9 259.384L844.511 261.382L845.115 263.381L845.713 265.379L846.305 267.378L846.891 269.376L847.471 271.375L848.045 273.373L848.612 275.372L849.17 277.37L849.718 279.369L850.256 281.367L850.781 283.366L851.291 285.364L851.786 287.363L852.263 289.361L852.721 291.36L853.158 293.358L853.572 295.357L853.964 297.355L854.331 299.354L854.673 301.352L854.988 303.351L855.278 305.349L855.54 307.348L855.776 309.346L855.985 311.345L856.168 313.343L856.326 315.342L856.459 317.34L856.567 319.339L856.652 321.337L856.715 323.336L856.757 325.334L856.777 327.333L856.779 329.331L856.761 331.33L856.725 333.328L856.672 335.327L856.601 337.326L856.513 339.324L856.409 341.323L856.287 343.321L856.147 345.32L855.99 347.318L855.814 349.317L855.618 351.315L855.401 353.314L855.163 355.312L854.901 357.311L854.615 359.309L854.303 361.308L853.965 363.306L853.597 365.305L853.2 367.303L852.773 369.302L852.313 371.3L851.821 373.299L851.295 375.297L850.736 377.296L850.142 379.294L849.515 381.293L848.854 383.291L848.159 385.29L847.433 387.288L846.675 389.287L845.887 391.285L845.07 393.284L844.227 395.282L843.359 397.281L842.469 399.279L841.558 401.278L840.63 403.276L839.686 405.275L838.729 407.273L837.762 409.272L836.788 411.27L835.808 413.269L834.825 415.267L833.842 417.266L832.861 419.264L831.884 421.263L830.912 423.261L829.948 425.26L828.994 427.258L828.05 429.257L827.117 431.255L826.197 433.254L825.29 435.252L824.395 437.251L823.515 439.249L822.647 441.248L821.792 443.246L820.95 445.245L820.118 447.243L819.296 449.242L818.483 451.24L817.676 453.239L816.874 455.237L816.074 457.236L815.275 459.234L814.473 461.233L813.666 463.231L812.852 465.23L812.026 467.228L811.186 469.227L810.329 471.225L809.451 473.224L808.549 475.222L807.62 477.221L806.659 479.219L805.665 481.218L804.633 483.216L803.56 485.215L802.444 487.213L801.282 489.212L800.072 491.21L798.81 493.209L797.496 495.207L796.128 497.206L794.704 499.205L793.224 501.203L791.688 503.202L790.095 505.2L788.447 507.199L786.744 509.197L784.988 511.196L783.18 513.194L781.324 515.193L779.423 517.191L777.479 519.19L775.497 521.188L773.48 523.187L771.434 525.185Z" fill="#000000" fill-opacity="0.8"/><path d="M649.773 525.185L647.726 523.187L645.71 521.188L643.727 519.19L641.783 517.191L639.882 515.193L638.026 513.194L636.219 511.196L634.462 509.197L632.759 507.199L631.111 505.2L629.518 503.202L627.982 501.203L626.502 499.205L625.078 497.206L623.71 495.207L622.396 493.209L621.135 491.21L619.924 489.212L618.762 487.213L617.646 485.215L616.574 483.216L615.542 481.218L614.547 479.219L613.587 477.221L612.657 475.222L611.755 473.224L610.877 471.225L610.02 469.227L609.18 467.228L608.355 465.23L607.54 463.231L606.733 461.233L605.932 459.234L605.132 457.236L604.333 455.237L603.531 453.239L602.724 451.24L601.91 449.242L601.088 447.243L600.257 445.245L599.414 443.246L598.559 441.248L597.691 439.249L596.811 437.251L595.917 435.252L595.009 433.254L594.089 431.255L593.157 429.257L592.212 427.258L591.258 425.26L590.294 423.261L589.323 421.263L588.345 419.264L587.364 417.266L586.381 415.267L585.399 413.269L584.419 411.27L583.444 409.272L582.477 407.273L581.52 405.275L580.576 403.276L579.648 401.278L578.737 399.279L577.847 397.281L576.979 395.282L576.136 393.284L575.32 391.285L574.532 389.287L573.774 387.288L573.047 385.29L572.353 383.291L571.692 381.293L571.064 379.294L570.471 377.296L569.911 375.297L569.386 373.299L568.893 371.3L568.434 369.302L568.006 367.303L567.609 365.305L567.242 363.306L566.903 361.308L566.591 359.309L566.305 357.311L566.044 355.312L565.805 353.314L565.589 351.315L565.393 349.317L565.216 347.318L565.059 345.32L564.919 343.321L564.798 341.323L564.693 339.324L564.605 337.326L564.534 335.327L564.481 333.328L564.445 331.33L564.428 329.331L564.429 327.333L564.45 325.334L564.491 323.336L564.554 321.337L564.639 319.339L564.748 317.34L564.88 315.342L565.038 313.343L565.221 311.345L565.43 309.346L565.666 307.348L565.929 305.349L566.218 303.351L566.534 301.352L566.875 299.354L567.242 297.355L567.634 295.357L568.049 293.358L568.486 291.36L568.943 289.361L569.42 287.363L569.915 285.364L570.426 283.366L570.95 281.367L571.488 279.369L572.036 277.37L572.595 275.372L573.161 273.373L573.735 271.375L574.315 269.376L574.901 267.378L575.493 265.379L576.091 263.381L576.695 261.382L577.307 259.384L577.926 257.385L578.556 255.387L579.198 253.388L579.855 251.39L580.528 249.391L581.222 247.393L581.939 245.394L582.683 243.396L583.458 241.397L584.268 239.399L585.115 237.4L586.005 235.402L586.942 233.403L587.928 231.405L588.968 229.406L590.064 227.408L591.221 225.409L592.44 223.411L593.725 221.412L595.076 219.414L596.496 217.415L597.985 215.417L599.543 213.418L601.171 211.42L602.868 209.421L604.632 207.423L606.461 205.424L608.353 203.426L610.304 201.427L612.312 199.429L614.372 197.43L616.479 195.432L618.629 193.433L620.817 191.435L623.036 189.436L625.282 187.438L627.548 185.439L629.828 183.441L632.115 181.442L634.405 179.444L636.691 177.445L638.967 175.446L641.227 173.448L643.467 171.449L645.68 169.451L647.862 167.452L650.008 165.454L652.115 163.455L654.179 161.457L656.197 159.458L658.165 157.46L660.083 155.461L661.947 153.463L663.758 151.464L665.513 149.466L667.213 147.467L668.857 145.469L670.446 143.47L671.981 141.472L673.462 139.473L674.891 137.475L676.27 135.476L677.599 133.478L678.882 131.479L680.12 129.481L681.315 127.482L682.469 125.484L683.584 123.485L684.663 121.487L685.707 119.488" fill="none" stroke="#000000" stroke-width="2.667"/><path d="M771.434 525.185L773.48 523.187L775.497 521.188L777.479 519.19L779.423 517.191L781.324 515.193L783.18 513.194L784.988 511.196L786.744 509.197L788.447 507.199L790.095 505.2L791.688 503.202L793.224 501.203L794.704 499.205L796.128 497.206L797.496 495.207L798.81 493.209L800.072 491.21L801.282 489.212L802.444 487.213L803.56 485.215L804.633 483.216L805.665 481.218L806.659 479.219L807.62 477.221L808.549 475.222L809.451 473.224L810.329 471.225L811.186 469.227L812.026 467.228L812.852 465.23L813.666 463.231L814.473 461.233L815.275 459.234L816.074 457.236L816.874 455.237L817.676 453.239L818.483 451.24L819.296 449.242L820.118 447.243L820.95 445.245L821.792 443.246L822.647 441.248L823.515 439.249L824.395 437.251L825.29 435.252L826.197 433.254L827.117 431.255L828.05 429.257L828.994 427.258L829.948 425.26L830.912 423.261L831.884 421.263L832.861 419.264L833.842 417.266L834.825 415.267L835.808 413.269L836.788 411.27L837.762 409.272L838.729 407.273L839.686 405.275L840.63 403.276L841.558 401.278L842.469 399.279L843.359 397.281L844.227 395.282L845.07 393.284L845.887 391.285L846.675 389.287L847.433 387.288L848.159 385.29L848.854 383.291L849.515 381.293L850.142 379.294L850.736 377.296L851.295 375.297L851.821 373.299L852.313 371.3L852.773 369.302L853.2 367.303L853.597 365.305L853.965 363.306L854.303 361.308L854.615 359.309L854.901 357.311L855.163 355.312L855.401 353.314L855.618 351.315L855.814 349.317L855.99 347.318L856.147 345.32L856.287 343.321L856.409 341.323L856.513 339.324L856.601 337.326L856.672 335.327L856.725 333.328L856.761 331.33L856.779 329.331L856.777 327.333L856.757 325.334L856.715 323.336L856.652 321.337L856.567 319.339L856.459 317.34L856.326 315.342L856.168 313.343L855.985 311.345L855.776 309.346L855.54 307.348L855.278 305.349L854.988 303.351L854.673 301.352L854.331 299.354L853.964 297.355L853.572 295.357L853.158 293.358L852.721 291.36L852.263 289.361L851.786 287.363L851.291 285.364L850.781 283.366L850.256 281.367L849.718 279.369L849.17 277.37L848.612 275.372L848.045 273.373L847.471 271.375L846.891 269.376L846.305 267.378L845.713 265.379L845.115 263.381L844.511 261.382L843.9 259.384L843.28 257.385L842.65 255.387L842.008 253.388L841.352 251.39L840.678 249.391L839.984 247.393L839.267 245.394L838.523 243.396L837.748 241.397L836.939 239.399L836.091 237.4L835.201 235.402L834.265 233.403L833.278 231.405L832.239 229.406L831.142 227.408L829.985 225.409L828.766 223.411L827.481 221.412L826.13 219.414L824.71 217.415L823.221 215.417L821.663 213.418L820.035 211.42L818.338 209.421L816.575 207.423L814.746 205.424L812.854 203.426L810.902 201.427L808.894 199.429L806.835 197.43L804.727 195.432L802.577 193.433L800.39 191.435L798.17 189.436L795.924 187.438L793.659 185.439L791.379 183.441L789.091 181.442L786.801 179.444L784.515 177.445L782.239 175.446L779.979 173.448L777.74 171.449L775.527 169.451L773.345 167.452L771.198 165.454L769.091 163.455L767.027 161.457L765.01 159.458L763.041 157.46L761.123 155.461L759.259 153.463L757.448 151.464L755.693 149.466L753.993 147.467L752.349 145.469L750.76 143.47L749.225 141.472L747.744 139.473L746.315 137.475L744.936 135.476L743.607 133.478L742.324 131.479L741.086 129.481L739.892 127.482L738.738 125.484L737.622 123.485L736.543 121.487L735.499 119.488" fill="none" stroke="#000000" stroke-width="2.667"/></g><path d="M298.116 869.827L298.116 877.161" fill="none" stroke="#333333" stroke-width="2.667"/><path d="M710.603 869.827L710.603 877.161" fill="none" stroke="#333333" stroke-width="2.667"/><text fill="#4d4d4d" transform="translate(261.891 876.275)"><tspan x="0" y="22" textLength="72.451" lengthAdjust="spacingAndGlyphs">Adelie</tspan></text><path d="M1123.09 869.827L1123.09 877.161" fill="none" stroke="#333333" stroke-width="2.667"/><text fill="#4d4d4d" transform="translate(654.102 876.275)"><tspan x="0" y="22" textLength="113.002" lengthAdjust="spacingAndGlyphs">Chinstrap</tspan></text><path d="M91.873 840.838L88.206 840.838" fill="none" stroke="#333333" stroke-width="2.667"/><path d="M91.873 655.447L88.206 655.447" fill="none" stroke="#333333" stroke-width="2.667"/><path d="M91.873 470.056L88.206 470.056" fill="none" stroke="#333333" stroke-width="2.667"/><path d="M91.873 284.665L88.206 284.665" fill="none" stroke="#333333" stroke-width="2.667"/><path d="M91.873 99.274L88.206 99.274" fill="none" stroke="#333333" stroke-width="2.667"/><path d="M91.873 748.142L84.54 748.142" fill="none" stroke="#333333" stroke-width="2.667"/><text fill="#4d4d4d" transform="translate(1080.385 876.275)"><tspan x="0" y="22" textLength="85.41" lengthAdjust="spacingAndGlyphs">Gentoo</tspan></text><path d="M91.873 562.751L84.54 562.751" fill="none" stroke="#333333" stroke-width="2.667"/><text fill="#4d4d4d" transform="translate(48.813 733.766)"><tspan x="0" y="22" textLength="29.86" lengthAdjust="spacingAndGlyphs">14</tspan></text><path d="M91.873 377.36L84.54 377.36" fill="none" stroke="#333333" stroke-width="2.667"/><text fill="#4d4d4d" transform="translate(48.813 548.375)"><tspan x="0" y="22" textLength="29.86" lengthAdjust="spacingAndGlyphs">16</tspan></text><path d="M91.873 191.969L84.54 191.969" fill="none" stroke="#333333" stroke-width="2.667"/><text fill="#4d4d4d" transform="translate(48.813 362.984)"><tspan x="0" y="22" textLength="29.86" lengthAdjust="spacingAndGlyphs">18</tspan></text><text fill="#4d4d4d" transform="translate(48.813 177.593)"><tspan x="0" y="22" textLength="29.86" lengthAdjust="spacingAndGlyphs">20</tspan></text><text font-size="29.333" fill="#000000" transform="translate(91.873 911.187)"><tspan x="563.952" y="27" textLength="109.556" lengthAdjust="spacingAndGlyphs">species</tspan></text><text font-size="29.333" fill="#000000" transform="matrix(0 -1 1 0 14.14 498.758)"><tspan x="0" y="27" textLength="113.022" lengthAdjust="spacingAndGlyphs">bill_dep</tspan></text></svg>